<?xml version="1.0" encoding="utf-8"?>
<!-- Generator: Adobe Illustrator 25.0.1, SVG Export Plug-In . SVG Version: 6.00 Build 0)  -->
<svg version="1.1" id="Capa_1" xmlns="http://www.w3.org/2000/svg" xmlns:xlink="http://www.w3.org/1999/xlink" x="0px" y="0px"
	 viewBox="0 0 1667 692" style="enable-background:new 0 0 1667 692;" xml:space="preserve">
<style type="text/css">
	.st0{clip-path:url(#SVGID_2_);}
	.st1{clip-path:url(#SVGID_4_);}
	.st2{clip-path:url(#SVGID_6_);}
	.st3{clip-path:url(#SVGID_8_);}
	.st4{clip-path:url(#SVGID_10_);}
	.st5{clip-path:url(#SVGID_12_);}
</style>
<g>
	<g>
		<defs>
			<rect id="SVGID_1_" x="-77.9" y="-49.4" width="789.4" height="789.4"/>
		</defs>
		<clipPath id="SVGID_2_">
			<use xlink:href="#SVGID_1_"  style="overflow:visible;"/>
		</clipPath>
		<g class="st0">
			<defs>
				<rect id="SVGID_3_" x="-77.9" y="-49.4" width="789.4" height="789.4"/>
			</defs>
			<clipPath id="SVGID_4_">
				<use xlink:href="#SVGID_3_"  style="overflow:visible;"/>
			</clipPath>
			<g class="st1">
				<defs>
					<rect id="SVGID_5_" x="6.3" y="8.2" width="626.1" height="679.2"/>
				</defs>
				<clipPath id="SVGID_6_">
					<use xlink:href="#SVGID_5_"  style="overflow:visible;"/>
				</clipPath>
				<g class="st2">
					<defs>
						<rect id="SVGID_7_" x="6.3" y="8.2" width="626.1" height="679.2"/>
					</defs>
					<clipPath id="SVGID_8_">
						<use xlink:href="#SVGID_7_"  style="overflow:visible;"/>
					</clipPath>
					<path class="st3" d="M310.4,569.9c0,36.8-0.1,73.5,0.1,110.3c0,5.9-1.4,7.5-7.5,7.3C154.8,682.7,28.6,572.8,9.5,426.9
						c-16.7-127.8,32-228.4,138.2-300.6c46.5-31.6,99-46.2,155.1-48.1c6.2-0.2,7.9,1.4,7.9,7.7c-0.2,73-0.2,146,0,218.9
						c0,5.7-1,7.9-7.5,8.6c-35,3.3-62.2,33.3-62.7,68.4c-0.5,34.9,25.2,65.4,59.9,70c8,1.1,10.6,3.2,10.5,11.8
						C310.1,499,310.4,534.4,310.4,569.9"/>
					<path class="st3" d="M328,499.6c0-36.5,0.1-73-0.1-109.5c0-5.1,1-7.2,6.7-7.8c35.7-3.4,62.9-33.2,63.3-68.7
						c0.4-35.6-26.2-66.1-61.7-70.1c-6.9-0.8-8.4-3.1-8.4-9.7c0.2-72.5,0.3-145,0-217.4c0-7.2,1.9-8.4,8.8-8.2
						c130.4,3.6,246,92.5,283.3,219c38.5,130.5-14.6,269.5-130.1,342.7c-46.5,29.5-97.3,44.9-152.3,47.4c-8.3,0.4-9.9-2.1-9.8-9.9
						C328.3,571.5,328.1,535.6,328,499.6L328,499.6z"/>
				</g>
			</g>
		</g>
	</g>
</g>
<g>
	<g>
		<defs>
			<rect id="SVGID_9_" x="679.4" y="158.7" width="1007.6" height="372.5"/>
		</defs>
		<clipPath id="SVGID_10_">
			<use xlink:href="#SVGID_9_"  style="overflow:visible;"/>
		</clipPath>
		<g class="st4">
			<defs>
				<rect id="SVGID_11_" x="679.4" y="158.7" width="1007.6" height="372.5"/>
			</defs>
			<clipPath id="SVGID_12_">
				<use xlink:href="#SVGID_11_"  style="overflow:visible;"/>
			</clipPath>
			<path class="st5" d="M1108.1,501.8V190h553.5c0.4,2.2,0.6,302.5,0.2,311.8H1108.1z M1297.3,459.9c0.8,0.7,1.6,1.6,2.8,0.6
				c0.5-0.4,1.5-0.7,2-0.5c0.8,0.4,1.2,0.5,2,0.1c0.5-0.3,1.3,0.3,2,0.3c1.1-0.1,2.2,0.5,3.1-0.4c2.3,1,4.8,0.2,7.2,0.5
				c0.3,0,0.9-0.1,1,0c1,1.1,1.8,0.1,2.6-0.1c0.5-0.1,0.9-0.7,1.7-1.3c-1.3-0.1-2.2-0.2-3-0.3c0-0.1,0-0.3,0-0.4
				c0.7-0.2,1.3-0.5,2.1-0.8c-0.2-1-0.5-2-0.5-3c0-1.7-0.2-3.5,0.4-5.2c0.3-0.7,0.2-1.7,0-2.5c-0.1-0.7,1.1-1.1,0.2-2
				c-0.4-0.5-0.1-1.6-0.2-2.4c0-0.3-0.3-0.6-0.2-1c0-0.6,0.2-1.3,0.2-1.9c0.1-0.7-0.2-1.5,0.2-2c0.6-0.8-0.3-1.1-0.2-1.7
				c0.4-2-0.3-3.7-1.7-5.2c-0.3-0.3-0.7-0.8-0.7-1.2c0-0.9-0.7-0.9-1.1-1c-1-0.4-2.2-0.7-3.2-0.8c-4-0.2-8.1,0.4-12.1-0.5
				c-1-0.2-2,0.4-2.9,0.4c-2.8,0-5.7,0.7-8.5-0.4c-0.4-0.1-1-0.2-1.2,0c-0.6,0.7-1.4,0.4-2.1,0.4c-1.2,0.1-2.4,0-3.6,0
				c-0.4,0-0.7,0.3-1.1,0.4c-0.5-0.6-0.9-1.3-1.4-1.9c-0.1,0.3-0.3,0.6-0.4,0.9c-0.9,0.6-0.7-1.5-1.7-0.5c-0.2-0.8-0.5-1.5-0.7-2.3
				c-0.1-0.7-1.1-1.4-0.2-2.3h1.2c0-4,0-7.9,0-11.8c0-1.1-0.1-2.1-1.3-2.5c-0.5-0.2,0.7-0.7-0.1-1.1c0.1-0.1,0.2-0.4,0.3-0.4
				c0.9-0.1,0.4-0.4,0.1-0.7c0.3-0.2,0.6-0.4,1-0.6c0-0.5,0.1-1,0-1.5c-0.1-0.4-0.4-0.7-0.5-1.1c-0.1-0.3-0.1-0.7,0-1
				c0.6-2.6,0.5-2.6,0-5.2c-0.1-0.6-0.1-1.2,0.3-1.9c0.5-0.8,0.2-1.8-0.6-2.4c-0.1-0.1-0.1-0.2-0.1-0.3c0.3-0.1,0.6-0.2,0.8-0.3
				c-0.1-1-0.4-2-0.4-2.9c0-5.4,0-10.8,0-16.1c0-0.9-0.3-1.8,0.5-2.6c0.2-0.2,0-0.7,0-1c0-0.7-1-1.4,0-2.1c-0.2-0.8-0.5-1.6-0.5-2.4
				c-0.1-1.6,0-3.2,0-4.7c0.7-0.7,1.2-1.2,1.8-1.8c0.7,1.3,2,1.4,3,0.9c0.8-0.4,1.6-0.3,2.4-0.4c0.6-0.1,1.2,0,1.8,0
				c2.2,0.1,4.5-0.3,6.7,0.5c1.3,0.5,2.6-0.4,3.9-0.5c5.3-0.2,10.6,0.4,15.9-0.5c1.4-0.2,2.9,0,4.4,0c0.1,0,0.3-0.1,0.4-0.1
				c0.2-0.4,0.3-0.8,0.6-1.3c-0.5-0.3-1-0.6-1.5-0.8c0.3-0.4,0.7-0.7,0.9-1c-0.6-0.6-1.1-1.3-1.8-2.1c0.8-0.2,1.4-0.3,1.8-0.4
				c0.4-2.8-0.5-5.5,0.6-8.1c0.1-0.2,0.1-0.5,0-0.8c-0.4-1.1-0.9-2.1-1.4-3.2c0.6-0.1,1.3-0.4,0.9-1.1c-0.5-1-0.5-1.7,0-2.7
				c0.2-0.5,0.3-1.3,0-1.7c-0.9-1.5,0.1-3.3-1.2-4.7c0.7-0.1,1.2-0.2,1.7-0.3c-1-1.6-1.2-3.2-1-5c-1,0-1.7,0.1-2.5,0
				c-0.6-0.1-1,0.5-1.7,0.3c-0.7-0.2-1.5-0.2-2.2-0.2c-9.4,0-18.8,0-28.2,0c-1.2,0-2.5-0.1-3.5,0.8c-0.3,0.2-0.9,0.1-1.5,0.2
				c0.3-1.7-0.3-2.8-1.3-3.7c-1-0.9-1.9-1.9-2.7-2.7c0.3-1.1,0.5-2,0.7-2.8c0.7,0.5,1.4-1,2.3,0.2c0-0.6,0.1-1,0-1.2
				c-0.6-1-0.5-2.1-0.5-3.1c0-2,0-3.9,0-5.9c0-0.5-0.2-1.2,0-1.5c0.9-1,0.4-2.1,0.5-3.2c0.1-1.1,0.1-2.2,0-3.3
				c0-0.4-0.5-1.1-0.4-1.3c0.7-0.8,0.4-1.6,0.4-2.4c0.1-2,0-4.1,0-6.1c0-1.5,0.2-3.1-0.1-4.6c-0.3-1.5,0.2-2.8,0.5-4.2
				c0.1-0.6,0.3-1.3-0.3-1.9c-0.1-0.1-0.2-0.5-0.2-0.7c0.1-0.5,0.5-1.1,0.5-1.6c0-0.6-0.4-1.2-0.5-1.8c-0.3-2.2,0.4-4.3,0.6-6.4
				c0.7-0.4-0.6-1.5,0.6-1.6c0.5,0.4,1,0.7,1.6,1.1c0.2-0.5,0.4-0.8,0.5-1c1.4,0.1,2.4,1.5,3.9,0.4c0.5-0.4,1.7-0.1,2.4,0.1
				c0.5,0.2,0.8,0.4,1.3,0c0.3-0.3,1-0.2,1.4-0.2c2.5,0,5,0,7.4,0c0.6,0,1.3,0.3,1.9-0.3c0.2-0.2,0.7-0.3,0.9-0.1
				c1.2,0.9,2.6,0.4,3.9,0.5c2.4,0.1,4.8-0.1,7.2,0.1c1.4,0.1,2.7,0.2,4-0.5c0.8-0.4,2.1-0.3,3,0c0.5,0.2,0.9,1.1,1.3,1.7
				c0.1,0.1,0.2,0.2,0.3,0.2c0.6-0.3-0.2-1.1,0.8-1.6c1-0.5,1.6-2.2,1.3-3.3c-0.6-1.9-0.4-3.7-0.2-5.5c0.3-2.8,0.5-2.8-0.1-5.2
				c-0.1-0.4,0-0.9,0.2-1.2c0.4-0.6,0.5-1.1,0.1-1.6c-0.4-0.5-0.4-1-0.1-1.6c0.2-0.2,0.3-0.7,0.2-0.8c-0.8-0.7-0.3-1.6-0.4-2.4
				c-0.1-0.8,0.1-1.7,0-2.6c-0.2-1.5-0.1-2.2,0.8-2.9c0.3-0.2,0.6-0.3,0.9-0.5c-0.6-0.8-1-1.5-1.6-2.3h-2.2v-1.8
				c-0.2-0.1-0.4-0.1-0.6-0.1c-1.5-0.4-2.9-1-4.5,0c-0.3,0.2-0.9,0.1-1.3,0c-0.7-0.2-1.3-0.6-2-0.8c-0.8-0.3-1.6-0.3-2.3,0.3
				c-0.6-0.8-1.4-0.5-2.1-0.4c-2.2,0.1-4.4,0.8-6.7,0.5c-0.2,0-0.4,0-0.5,0.1c-0.6,0.7-1.4,0.3-1.9,0.3c-0.4-0.6-0.7-1-1.1-1.7
				c-0.1,0.7-0.2,1.2-0.3,1.6c-0.5,0.2-1,0.5-1.6,0.6c-0.7,0.1-1.5,0.2-1.8-0.6c-0.4-1.2-1.1-1.4-2.2-1.5c-0.8-0.1-1.6-0.8-2.4,0.1
				c-0.2,0.2-0.8-0.2-1.2-0.2c-1-0.1-2-0.4-2.9-0.1c-0.6,0.2-1.1,0.3-1.6,0.3c-0.9-0.1-1.8-0.5-2.5-0.3c-1,0.4-2,0.2-3,0.3
				c-0.5,0-1,0.2-1.4-0.3c-0.1-0.1-0.6-0.2-0.7-0.1c-0.7,0.8-1.6,0.6-2.4,0.4c-1-0.2-1.9,0.5-2.9,0.1c-1-0.4-2.2,0-3.3-0.1
				c-0.7,0-1.4,0.1-2.2-0.4c-0.5-0.3-1.5-0.1-2.2,0.1c-1.5,0.4-3,0.9-4.5,1.4c-0.1-0.3-0.2-0.6-0.4-1.1c-1.2,0.3-2.6-0.4-3.8,0.6
				c-0.2,0.1-0.6,0.1-0.7,0c-1-1.2-2.7,0.2-3.7-1c-1.4,0-2.7,0-4.1,0c-0.4,0.4-0.8,0.8-1.4,1.4v2c-0.7,0-1.4,0.3-1.8,0
				c-0.8-0.5-1.4-0.2-2.1-0.3c-0.4,1.5,0,2.5,1.3,2.7c-0.3,0.7-0.8,1.3-0.9,2c-0.1,1.2-0.1,2.4,0.2,3.5c0.4,1.4-0.1,2.5-0.2,3.8
				c-0.1,1.2,0.6,2.5,0.3,3.8c0,0.1-0.2,0.1-0.2,0.2c0,0.8-0.1,1.6,0,2.4c0.2,1.2,0.4,3,0.3,4.3c0,0.4-0.1,1,0.1,1.2
				c0.6,0.6,0.4,1.3,0.4,1.9c0,1.4,0,2.8-0.4,4.2c-0.3,1.1,0,2.4-0.1,3.6c-0.1,1.1-0.4,2.2-0.5,3.4c-0.1,0.8-0.1,1.7,0,2.6
				c0.1,0.8,1.1,1.2,0.6,2.2c-0.3,0.7-0.1,1.7-0.1,2.5c0,0.1,0.2,0.3,0.3,0.4c0.4,0.5,0.2,1,0,1.6c-0.5,1.3-0.5,2.8,0.1,4.1
				c0.1,0.2,0.3,0.6,0.2,0.7c-0.7,0.7-0.6,1.5-0.3,2.3c0.3,0.8-0.5,1.4-0.2,2.2c0.1,0.3,0.1,0.6,0.1,1h1.3c0.1,1-0.1,2,0.2,2.8
				c0.6,1.7,1,3.4,0.9,5.3c0,0.1-0.1,0.3-0.2,0.6c-0.6-0.1-1.1-0.3-1.7-0.4c-1.1,1.7-1.1,1.7-1.1,3.1c0,1.9,0,3.9,0,5.8
				c-0.4,0.1-0.7,0.3-1.1,0.4c0.4,0.2,0.8,0.4,1.1,0.5c0,3.7,0.1,7.4,0,11c0,1,0.4,1.7,1.1,2.3c-0.5,0.3-0.7,1.2-1.5,0.6
				c-1-0.8-1.2,0.1-1.6,0.7c-0.8-0.1-1.4,0.3-1.5,1c-0.2,1.6-1.3,3-1.1,4.7c0.1,0.5-0.4,1.1-0.4,1.6c0,0.6,0.5,1.2,0.4,1.8
				c0,1,0.4,2-0.4,2.9c-0.2,0.2-0.2,1,0,1.1c0.6,0.5,0.4,1.1,0.4,1.7c-0.1,1.7,0.5,3.5-0.5,5.2c-0.1,0.2-0.1,0.6,0,0.7
				c0.9,0.8,0.3,1.8,0.5,2.6c0.2,0.9,0.5,1.7,0.5,2.6c0,0.8,0.3,1.2,0.8,1.7c0.2,0.2,0.1,0.6,0.2,1.1c-0.4-0.3-0.6-0.5-0.7-0.6
				c-0.9,0.7,0.5,1.3,0,2.2c-0.4,0.6-0.1,1.6-0.2,2.5c1.3-0.5,1.7,0.5,2.4,0.9c1.7,0.7,2.2,2.3,2.1,3.7c0,1.7,1.2,2.8,1.3,4.4
				c0,0.1,0.4,0.1,0.7,0.2c0.1,0,0.1,0.2,0.1,0.3c-0.5,0.1-1,0.2-1.5,0.3c0.6,1.5,1.1,2.8,0.1,4.3c-0.2,0.2,0.1,1.1,0.2,1.1
				c0.7,0.1,0.9,0.2,0.3,0.8c-0.2,0.2-0.1,0.6-0.1,1c0,0.9,0,1.7,0,2.6v2.6c0,0.9,0,1.9,0,2.8c0,0.8-0.1,1.7,0.2,2.5
				c0.3,0.8-0.5,1.4-0.2,2.2c0.1,0.3,0,0.7,0.2,0.9c0.8,1.1-0.7,0.2-0.7,0.3v3.8c0,1.1,0.1,2.2,0,3.3c-0.1,1.2,1.1,2.1,0.9,2.9
				c-0.2,1-0.4,2.1-0.4,3.1c0,0.4,0.3,0.7,0.5,1.1c0.9,1.9,0.8,3.6-0.5,5.3c-0.4,0.5-0.7,1-0.6,1.6c0.1,0.6,0.5,1.4,0.3,1.7
				c-0.5,0.8-0.2,1.5-0.3,2.2c-0.1,1.1,0,2.2,0,3.3c0,1-0.3,2.1,0.1,3c0.4,1.1-0.4,1.9-0.1,2.9c0.2,0.7-0.1,1.6,0.4,2.3
				c-0.9,1.5-0.3,3.1-0.4,4.7c-0.1,1.6-0.1,3.2,0,4.9c0,0.5,0.6,1.3,0.4,1.5c-0.9,1.1-0.3,2.3-0.4,3.4c-0.1,1.8,0.9,3.6,0.5,5.4
				c-0.7,2.5-0.4,5-0.5,7.5c0,0.7-0.2,1.4,0.4,2.2c0.6,0.7-0.4,1.3-0.4,2c0,0.3,0.2,0.6,0.3,0.9c0.6,1.3,1.6,2.3,2.8,3
				c0.7,0.4,1.4,1,2.2,0.1c0.2-0.2,0.8-0.1,1.2-0.1c2,0.1,4-0.2,6,0.4c1.1,0.4,2.4-0.1,3.6,0.1c1.1,0.3,2.1,0.5,3.2,0
				c0.3-0.1,0.9,0,1.2,0.2c0.5,0.4,0.8,0,1.3-0.1c1.3-0.3,2.7-1,3.9,0.5c0.4,0.6,1.1,0.5,1.5,0.1c1.2-1,2.6-0.8,4-0.8
				c0.6,0,1.2,0.4,1.8,0.4c0.6,0,1.2-0.3,1.8-0.5c0.3-0.1,0.7,0,0.9,0.1c0.5,0.4,0.8,0.4,1.3,0c0.3-0.2,0.9,0,1.4,0
				c0.4,0.1,0.8,0.3,1.2,0.3c1,0,2.2,0.2,2.9-0.3c1.2-0.7,1.8,0.7,2.8,0.3c0.1,0,0.2,0,0.3,0c1.7-1,3.6-0.3,5.4-0.5
				c0.8-0.1,1.5,0.1,2.3,0C1295.9,460.3,1296.6,460.1,1297.3,459.9 M1416.3,352.8h1.6c-0.1-1.6,0.2-3-0.5-4.3c-0.5-1-0.6-2-0.5-3.1
				c0.1-0.6,0.1-1.2-0.5-1.6c-0.6-0.4-0.6-1-0.5-1.6c0.4-2.9-0.7-5.6-0.5-8.5c0-0.3-0.2-0.6-0.2-0.9c-0.3-1.2-0.5-2.4-0.8-3.5
				c-0.4-1.5-0.5-3-1.4-4.3c-0.4-0.6-0.6-1.3-0.9-1.9c-0.1-0.3-0.2-0.6-0.1-0.9c0.8-2.2,0.6-4.3-0.7-6.3c0.4-0.7,0.7-1.4,1.1-2.2
				c-2-1.9-1.5-4.4-1.6-7.1c-0.5-0.5-1.3-1.2-2-2c0-0.1,0-0.2,0.1-0.4c0.5-1.2,1.1-2.3,0.5-3.8c-0.5-1.2-1.3-2.7-0.1-4.2
				c0.1-0.1-0.1-0.6-0.3-0.9c-0.7-1-0.8-2.1-0.7-3.3c0.1-2.2,0-4.4-1.2-6.4c-0.1-0.1-0.1-0.4-0.1-0.5c0.3-1.8,0.1-3-0.7-4.9
				c-0.4-0.8-0.7-1.7-0.5-2.6c0.2-0.9-0.1-1.9-0.6-2.6c-0.7-0.9-0.7-1.9-0.3-2.6c0.7-1.1,0.2-1.8-0.1-2.7c-0.4-1.2-1.1-2.4-0.1-3.7
				c0.2-0.3,0-1-0.2-1.4c-1.1-2.3-1.2-4.8-1.8-7.2c-0.3-1.1-0.7-2.2-0.5-3.4c0.1-1.1,0.1-2.2-0.5-3.1c-0.6-1-0.5-2.1-0.5-3.1
				c0-1.3,0.1-2.6-0.8-3.8c-0.1-0.1-0.2-0.3-0.1-0.3c1-0.9-0.3-1.2-0.4-1.8c-0.1-0.7,0.2-1.5,0.2-2.3c0-0.1-0.3-0.2-0.3-0.4
				c-0.3-0.8-0.7-1.6-0.7-2.6c0.1-1.4-0.9-2.5-1.6-3.7c-0.2-0.4-0.9-0.8-1.8-0.3c-0.9,0.5-2.1-0.4-3.3,0.8c-0.5-0.5-1-1-1.6-1.6
				c-0.3,0.4-0.8,0.9-1.2,1.3c-1.5,0-3,0.1-4.4-0.1c-0.6-0.1-1.1-0.6-1.8-0.5c-0.7,0.1-1.4,0-2,0c-0.7,0-1.5,0.2-2.2,0.2
				c-0.5,0-1.2-0.1-1.6,0.1c-1.1,0.6-2.4-0.5-3.3,0.7c-0.1-0.1-0.2-0.3-0.4-0.3c-2.4-0.1-4.7-0.2-7.1-0.1c-0.6,0-1.3,0.6-1.8,1.1
				c-0.4,0.4-0.2,1,0.2,1.6c0.5,0.8,0,1.6-0.7,1.8c-0.6,0.2-0.9,0.5-1.3,1c-0.3,0.4-0.8,0.6-1.2,1c-0.2,0.2-0.3,0.6-0.3,0.9
				c0,2.1-0.2,4.1-0.4,6.2c-0.1,1.5-0.3,3-0.7,4.4c-1.3,3.9-1.7,7.9-1.9,12c-0.1,1.2-0.1,2.3-0.8,3.3c-0.1,0.2-0.3,0.8-0.2,0.8
				c0.9,0.6-0.4,0.9-0.2,1.5c0.2,0.5,0.2,1.2-0.2,1.9c-0.5,0.8-0.9,2-0.6,2.7c1,2.5,0.2,4.9-0.3,7.3c-0.4,2.1-0.3,3.3,1,4.9
				c0.1,0.1,0.1,0.3,0.1,0.4c-0.3,0.5-0.5,1-0.8,1.6h-0.9c-0.5,1-0.9,1.7-1.3,2.5c1.1,1.3-0.8,2.7,0.2,4.1c0.7-0.1,1.1,0.4,0.8,0.9
				c-0.7,1.1-0.1,2.9-1.8,3.3c-0.2,0.9-0.6,1.9-0.7,2.8c-0.1,2.6-0.9,5.1-0.6,7.7c0,0.3,0.1,0.9-0.1,1c-1.1,0.7,0.1,1.3,0.1,1.9
				c-0.4,0.4-0.7,0.9-1.2,1.3c0.5,0.9,1.1,1.6,1.6,2.4c-0.1,0.1-0.2,0.3-0.4,0.3c-1.2,0.3-1.4,1.3-1.9,2.3c-0.7,1.7,0.5,3.6-0.8,5.1
				c-0.1,0.1,0,0.3,0.1,0.5c0.1,0.3,0.5,0.7,0.4,0.8c-0.8,1-0.3,2.1-0.5,3.1c0,0.3-0.1,0.7-0.3,0.9c-0.9,0.6-0.7,1.5-0.7,2.3
				c0,0.9,0,1.7,0,2.6c0,0.6-0.1,1.5-0.3,1.7c-0.7,0.7-0.8,1.4-0.7,2.3c0,0.6,0,1.2,0,1.8c0,0.5-0.8,0.8-0.1,1.4
				c0.4,0.4-0.6,0.9-0.8,1.4c-0.1,0.3-0.2,0.7-0.1,1c0.4,2-0.6,3.9-0.5,5.9c0,0.5-0.5,1.1-0.3,1.5c0.3,0.5,0.3,0.7,0,1.3
				c-0.4,1.1-0.6,2.3-0.7,3.5c0,0.6,0.4,1.2,0.4,1.8c0,0.6-0.4,1.2-0.5,1.8c-0.1,0.8-0.1,1.6-0.4,2.4c-0.3,0.6-0.4,1.7,0.4,2.3
				c-1.6,0.9-1.6,0.9-1.1,2.5c0.1,0.4,0.2,0.9,0,1.2c-0.8,1.8-0.9,3.8-1,5.8c0,1.7-0.3,3.4-0.5,5.2c0,0.2-0.2,0.5-0.3,0.6
				c-0.8,0.5-0.7,1.3-0.7,2c0,0.6,0.1,1.2-0.1,1.8c-1,2.7-1.4,5.5-1.5,8.4c0,0.3,0,0.7-0.1,1c-1,2.5-1.4,5.2-1.4,7.9
				c0,1.9-0.1,3.8-0.5,5.7c-0.5,2.2-0.8,4.3-1,6.5c-0.1,1.1,0.1,2.1-0.5,3.1c-0.4,0.8-0.6,1.9-0.5,2.8c0.1,1.4-0.4,2.6-0.8,3.8
				c-0.1,0.3-0.3,0.6-0.3,0.9c0.2,2.6-0.9,5.1-0.5,7.7c0,0.4-0.2,0.8-0.3,1.2c-0.4,1.5-0.1,3.3-1.2,4.6c0,0,0,0.2,0,0.3
				c-0.2,2.5-0.3,5-0.5,7.5c-0.1,1.7-0.3,3.4-0.5,5.2c0,0.2-0.4,0.4-0.4,0.6c0,1.1-1.2,2.1-0.2,3.4c0.3,0.4,0.2,1.4-0.2,2.1
				c-0.5,0.8-0.5,1.8-0.8,2.8c0.9,0.2,1.7,0.7,2.4,0.5c0.8-0.2,1.4,1,2.2,0.1c0.8,0.2,1.5,0.6,2.4,0.5c2.8-0.1,5.6,0,8.5,0
				c0.6,0,1.1,0.2,1.7,0.3c1.8,0.3,3.5,1.1,5.3,0.7c0.9-0.2,2.3-0.1,2.7-1.6c1.3,0.2,2.6,0.6,3.8,0.6c1.3,0.1,2.6,0.4,3.8-0.4
				c0.3,0.7,0.4,1.4,1.4,1.4c1.1,0,1.2-0.9,1.6-1.5c1,1.1,1.3,0,1.7-0.3c-0.2-0.8-0.6-1.5-0.4-1.8c0.6-1,0.7-2.3,2-2.7
				c0-0.8,0-1.7,0-2.5c0-0.4-0.4-0.7-0.5-1.1c-0.1-0.3-0.2-0.8,0-1c0.9-0.8,0.4-1.8,0.5-2.6c0.1-0.8-0.1-1.7,0.8-2.3
				c0.2-0.1,0.3-0.6,0.3-0.9c-0.5-2.3,1.5-4.7,0-7c1.2-1.4-0.2-3.3,1-4.7c0.2-0.3-0.1-1.1-0.2-1.7c0-0.3-0.3-0.7-0.2-0.9
				c1.1-2.2,0.9-4.5,0.9-6.8c0-1.1-0.2-2.1,0.5-3.1c0.3-0.5,0.1-1.2,0.5-1.9c0.3-0.4-0.2-1.3-0.4-2c1.1-0.4,2-1.4,3.4-0.7
				c1.3-1,2.3,0.3,3.7,0.7c0.4-0.6,0.9-1.1,1.4-1.7c1,1.1,1.8,1.5,3.1,0.6c0.7-0.5,1.7-0.8,2.7-1.2c0.2,1.9,1.8,2,3,2.5
				c0.2,0.1,0.8-0.7,1.4-0.1c0.5,0.5,0.3,1.1,0.4,1.7c0,0.4,0,0.9,0,1.3c0,1.6-0.2,3.1,0.5,4.7c0.3,0.8,0.4,1.7,0.5,2.6
				c0.1,0.9,0,1.9,0,2.8c0,0.6-0.1,1.2,0.1,1.8c0.1,0.5,0.8,0.9,0.8,1.4c0.1,0.6-0.3,1.2-0.4,1.8c-0.1,1.2-0.3,2.5,0.1,3.6
				c0.4,1.2,0.5,2.3,0.4,3.4c-0.1,1.2,0.4,2.3,0.5,3.4c0.2,2.6-0.1,5.1,0.5,7.7c0.5,2.1,0.6,4.3,1.9,6.2c0.6,0.8,1.1,1.5,2.2,1.5
				c0.7,0,1.4,0,2,0.1c1.7,0.4,3.3,0.8,5,0.9c1.1,0.1,2.2-0.1,3.3,0c1.2,0.2,2.2-0.6,3.4-0.6c2.6,0,5.3,0,7.9,0h6.4
				c1.2-1.1,1.4-2.3,1.3-3.6c0.8,0.2,1.7,0.7,2.3,0.4c0.7-0.4,0.8-0.1,1.1,0.2c0.2,0.2,0.5,0.4,1,0.7c-0.9,0.2-1.4,0.3-2.2,0.5
				c0.4,0.5,0.7,0.8,0.9,1.1c0.3,0.3,0.6,0.5,0.9,0.8c1.8-1.6,1.9-1.7,0.9-3.5c-0.4-0.7-0.4-1.3-0.4-1.9c0-1.7-0.4-3.2-1.7-4.4
				c-0.2-0.2-0.2-0.6-0.4-1.3c1.4,1.2,1.4,1.2,2.8,1c-0.2-0.4-0.6-0.7-0.6-1c-0.1-1.2,0.1-2.4-1-3.2c-0.1-0.1-0.1-0.6,0-0.7
				c0.6-0.9,0.1-1.6-0.5-2.2c-0.4-0.4-0.8-0.8-0.9-0.9c0.1-1.3,0.2-2.2,0.3-3.1c0.2-1-1-1.2-1-1.9c0-0.8,0.7-1.8,0.4-2.3
				c-0.7-1-0.4-2-0.4-2.9c0-1.6-0.4-3.1-0.8-4.6c-0.9-3.5-1-3.5-0.3-7.6c0-0.2,0.1-0.6,0-0.8c-0.9-1-0.1-2.2-0.6-3.1
				c-0.7-1.2-0.3-2.3-0.5-3.4c-0.1-0.7-0.4-1.4-0.5-2.1c-0.1-0.8,0-1.5,0-2.3c0-0.3-0.2-0.6-0.4-0.9c-0.7-1.6-1.2-3.3-1.2-5.1
				c0-1,0-1.9-0.4-2.9c-0.5-1-0.4-2.2-0.6-3.3c1.2-0.9,0.2-1.8-0.1-2.6c-0.4-1-1-2-1.6-2.9c1.2-1.2,1.3-2.4,0.6-3.8
				c-0.4-0.8-0.6-1.7-0.6-2.6c0-1.7,0.4-3.5-0.9-5c-0.2-0.2-0.1-0.7-0.1-1c0.2-1.2-0.5-2.2-0.7-3.3c0-0.3-0.4-0.6-0.3-0.9
				c0.3-2.4-0.6-4.8-0.5-7.7c-0.2-0.1-0.6-0.3-0.9-0.4c0.4-0.8,0.7-1.5,1-2c-1.3-1.9-1.8-4-1.6-6.1c0.1-1.5-0.4-2.7-1.5-3.7
				C1416.6,353.4,1416.4,353.1,1416.3,352.8 M1224.4,369.5c0.7-0.2,1.4-0.3,2.4-0.5c-0.5-0.9-0.8-1.7-1.2-2.5c-0.3-0.6-1-1.1-1-1.6
				c-0.1-1.4-0.9-2.3-1.7-3.1c-2.6-2.5-4.9-5.4-7.9-7.5c-0.2-0.1-0.2-0.4-0.3-0.7c0.4-0.1,0.7-0.2,0.9-0.3c0.8-0.6,1.2-1.7,2.5-1.5
				c0.1,0,0.4-0.3,0.5-0.5c0.4-1.2,1.5-1.8,2.2-2.7c0.7-1,1.1-2.1,1.7-3.1c0.2-0.4,0.5-0.8,0.7-1.2c0.1-0.3,0.4-0.7,0.3-0.9
				c-0.6-1,0.2-1.9,0-2.9c-0.1-0.7-0.1-1.3,0.6-1.8c0.2-0.1,0.3-0.4,0.4-0.6c0-1.1,0.2-2.3,0.4-3.4c0.3-1.6,0.2-3.4,0-5.1
				c-0.2-1.8,0.6-3.4,0.6-5.2c0-10.2,0-20.3,0-30.5c0-0.6-0.2-1.3-0.2-1.9c0-0.5,0.2-1.2-0.1-1.6c-0.7-1,0.5-1.5,0.3-2.3
				c-0.1-0.9-0.7-1.9-0.4-2.5c0.3-0.7,0.3-1.3,0.4-1.9c0.1-1.7-0.3-3.5,0.5-5.2c0.1-0.3,0.2-0.8,0-1c-0.8-1-0.5-2.1-0.5-3.1
				c0-3.8,0-7.5,0-11.3c0-0.5-0.1-1.1,0-1.5c0.2-0.5,0.7-0.9,1.2-1.4c-1.4-1-1.2-2.5-1.3-3.9c-0.2-4.5,0.5-9-0.9-13.4
				c-0.9-2.9-2.4-5-4.7-6.7c-1.2-0.9-2.5-1.9-4.2-1.6c-0.5-0.9-2.1,0-2.2-1.5c0-0.2-0.5-0.5-0.8-0.6c-1.4-0.2-2.8-0.4-4.1-0.5
				c-1.7-0.1-3.4,0-5.1,0c-1-0.1-2.1-0.4-3.1-0.5c-0.6,0-1.2,0.4-1.8,0.4c-0.7,0-1.4-0.3-2.1-0.5c-0.2-0.1-0.6-0.1-0.8,0
				c-1,0.8-2.1,0.5-3.1,0.5c-5,0-9.9,0-14.9,0h-11.9c-0.4-0.4-0.7-0.7-1-1c-1.2,0-2.4,0-3.6,0c-0.6,0-1.3-0.1-1.7,0.2
				c-1.3,0.8-3-0.3-4.3,0.8c-2.6-1.1-5.3-0.3-8-0.5c-0.6-0.1-1.3,0.2-1.8,0c-0.9-0.4-1.6-0.6-2.5-0.2c-0.9,0.3-2.1,0-2.9,0.5
				c-0.7,0.4-1,0.1-1.5-0.2c-0.4-0.3-1-0.4-1.4-0.6c-1.5,1.1-0.4,2.8-1,4c-0.3,0.1-0.5,0.1-0.9,0.2c0.1,0.2,0.3,0.3,0.4,0.5
				c0.5,1.5-0.4,3.2,0.5,4.7c0.1,0.1-0.4,0.6-0.4,0.8c0.3,0.9-1,2,0.3,2.8c0.2,0.1,0.3,1,0.1,1.1c-0.7,0.6-0.4,1.4-0.4,2.1
				c-0.2,2.5,0.5,5-0.5,7.5c-0.1,0.3-0.2,0.8,0,1c0.8,0.9,0.4,1.9,0.5,2.9c0.2,1.6-0.4,3.2,0.5,4.7c0.1,0.2-0.1,0.6-0.1,0.9
				c-0.3,1.6-1.5,3.1-0.4,4.8c0.3,0.4-0.2,1.3-0.2,1.9c-0.1,1.1-0.4,2.4-0.1,3.4c0.3,0.9,0.2,1.6,0.3,2.4c0,0.7,0.1,1.4-0.4,2.2
				c-0.3,0.5,0.3,1.5,0.4,2.3c0,0.2,0.1,0.4,0,0.5c-1.2,1.8,0,3.6,0.1,5.4c1,0.9,0.3,1.8,0,2.7c-0.1,0.4-0.9,0.9-0.1,1.3
				c-0.6,0.4-0.5,0.8-0.1,1.5c0.3,0.6,0.1,1.6-0.1,2.4c-0.1,0.5-0.2,0.7,0.1,1.1c0.1,0.2-0.2,0.6-0.3,1c0,0.4-0.1,0.9,0,1.3
				c0.6,2.7,0.6,2.7,0,5.7c-0.1,0.4-0.2,1,0,1.3c0.8,1.2,0.4,2.4,0.5,3.7c0.1,0.6-0.1,1.3,0.1,1.7c0.8,1.3,0.4,2.5-0.2,3.5
				c-0.6,1-0.5,1.9-0.3,2.8c0.5,1.6,0.5,5.1-0.1,6.9c-0.4,1.2,0,2.3,0.8,2.8c0.7,0.5,0.9,0.5,0.4,1.2c-0.4,0.5-0.5,1,0.2,1.5
				c0.3,0.2,0.5,0.4,0.7,0.6c-0.3,0.9-1.8-0.2-1.5,1.4c0.4,0.1,0.9,0.1,1.5,0.2c-0.1,1.6-1.3,3.2,0,4.5c-0.3,0.4-0.5,0.7-0.7,1.1
				c-0.6-1-1-1.9-1.6-2.9c-0.6,1.1-1,1.9-1.6,2.9h-1.6c-1,2.4-1,2.4-1.7,2.8c-0.1,1.5,0.2,3.1-0.5,4.6c-0.2,0.5-0.2,1.3,0.1,1.7
				c0.8,1.3,0.2,2.4-0.2,3.5c-0.1,0.3-0.5,0.7-0.5,0.8c0.8,1,0.1,2.3,0.6,3.4c0.7,1.6,0.3,3.2,0.3,4.7c-0.4,0.1-0.7,0.2-1.2,0.3
				c0.6,0.4,1,0.7,1.1,0.8c0.4,1.4-0.3,2.5,0.6,3.5c0.2,0.2-0.1,0.8-0.2,1.2c-0.5,1.6,0.1,3.4,1.6,4.1c0.2,0.1,0.7-0.2,1-0.4
				c0.5,0.5,1.1,1.1,1.6,1.6c0.3,0.8-0.3,1.8,0.5,2.6c0.3,0.3,0.4,1.3-0.2,1.9c-0.1,0.1-0.2,0.6-0.2,0.7c1.1,0.9-0.1,2.5,1,3.4v10.8
				c-0.8,0.7,0,1.2,0.2,1.8c0.1,0.4,0.8,0.5,0.8,1c-0.2,0.2-0.3,0.4-0.5,0.5c-1.5,0.9-1.5,0.9-1.2,2.8c0,0.1,0.1,0.3,0.1,0.4
				c-0.6,0.6-0.6,1.6-0.1,2c0.9,1-0.8,1.5-0.2,2.3c0.1,0.2,0,0.5,0.1,0.7c1,1.5,1,3.1,1,4.7c0,0.4,0.3,0.9,0.4,1.3
				c0.2,0.8,0,1.4-1,1.6c0.9,1.8,0.4,3.8,0.5,5.7c-0.7,0.6-0.8,1.3-0.1,1.9c-0.6,0.7-0.7,1.7-0.3,2.3c0.6,1-0.6,1.9,0.1,2.6
				c0.8,0.7-0.5,1.6,0.3,2.3c0.1,0.1-0.3,0.7-0.4,1.1c-0.3,0.9,0,1.4,1,1.7c-1.2,0-2,0.6-2.5,1.5c0.5,0.5,1.1,1,1,1.9
				c-0.1,2.2-0.1,4.4,0,6.7c0,0.5,0,1.1,0.3,1.4c1.1,1.1,0.9,2.3,0.5,3.5c-0.4,1.2-0.3,2.4-0.1,3.6c0.1,0.2,0.3,0.5,0.3,0.6
				c-0.3,0.6-0.9,1.2-0.4,1.8c0.7,0.7-0.2,1.1-0.2,1.7c0.2,1.9,0.1,3.8,0.5,5.7c0.2,0.9,0.7,0.9,1.1,1.3c-0.5,1.8-2,3.5-0.3,5.2
				c1.3,0.7,1.2-0.9,2-1c0.5,0.5,0.9,1.1,1.5,1.4c0.8,0.4,1.7,1.1,2.5,0.7c1.3-0.7,2.6-0.3,3.9-0.5c0.7-0.1,1.4-0.2,2.1-0.3
				c0.1,0.4,0.3,1,1.1,0.8c0.5-0.1,1.1-0.6,1.3-0.5c0.5,0.4,0.7,0.2,1.2,0c0.5-0.2,1.1,0.1,1.7,0.2c0.5,0.1,1.1,0.4,1.4,0.2
				c1.3-0.8,2.6-0.3,3.9-0.4c0.4,0,1,0.6,1.3,0.4c1.4-0.8,3-0.5,4.4-0.4c1.3,0,1.7-0.6,2.1-1.7c1,0.2,1.9,0.3,3.2,0.5
				c0.3-0.3,0.7-0.8,1.2-1.3c-0.5-0.8,0.4-2-0.5-2.8c0.7-0.9,0.4-1.9,0.4-2.8c0-1,0-2,0-3.1v-3.1v-3c-0.7-0.5-1.4-1-2-1.5
				c0.5-0.3,1-0.7,1.4-1c-0.1-0.8-0.6-1.7-0.4-2.2c0.8-1.5,0.3-3.1,0.4-4.7c0-0.1-0.1-0.3-0.2-0.5c-0.4,0-0.8-0.1-1.3-0.1v-4.4
				c0.6-0.3,0.7-1.3,1.7-1.2c0.1,0,0.2-0.5,0.4-1h-2.1c-0.1-1.7-1.9-3.6,1-4.3c-0.2-0.7-0.3-1.2-0.4-1.7c0.3-0.1,0.6-0.1,0.9-0.2
				c-0.3-0.9,0.3-1.9-0.5-2.7c-0.2-0.2-0.1-0.7-0.1-1c0.1-0.6,0.5-1.2,0.5-1.8c0-0.7-0.4-1.4-0.5-2.1c-0.1-0.7-0.2-1.4,0-2
				c0.7-2.2,0.8-4.3,0-6.5c-0.1-0.3,0.2-0.8,0.2-1.2c0.1-0.3,0.2-0.7,0.1-0.8c-0.7-0.6-0.3-1.3-0.4-1.9c-0.2-1.4,0.4-2.8,0.5-4.1
				c0.1-1.3,0-2.6,0-3.8c0.1-1.1-0.7-2.2-0.1-3.4c0.1-0.3-0.4-0.9-0.4-1.3c0-0.5,0.4-1,0.5-1.6c0.1-1.4,0-2.9,0-4.4
				c0-1.3,0.2-2.7-0.8-3.8c-0.1-0.2-0.2-0.6-0.2-0.7c1.3-0.9-0.3-2.2,0.5-3.3c0.2-0.2-0.3-0.9-0.4-1.3c-0.2-1.3-1.5-1.7-2.1-2.7
				c1-0.2,2.6-1.2,2.4-1.4c-0.4-0.5-0.4-0.9,0.1-1.1c0.5-0.2,1.1-0.2,1.7-0.2c0.1,0,0.2,0.3,0.4,0.3c1.4,0.3,2.8,0.6,3.9-1
				c0.1,0.6,0.2,1.1,0.2,1.6c2.5-0.7,2.5-0.7,3.2,0.6c1.7,0,3.4,0,5.1,0c0.1,0,0.2-0.2,0.3-0.4c-0.1-0.3-0.3-0.6-0.4-0.8
				c0.4-0.5,0.8-0.9,1.2-1.4c0.3,0.5,0.6,1,0.9,1.5c0.5,0,1.1,0.1,1.7,0.1c0.1,0.5,0.2,1,0.3,1.5h2c0.8,0.9,1.4,1.6,2,2.4
				c-0.6,0.1-1,0.1-1.5,0.2c-0.2,0.9,0.3,2-0.5,2.8c-0.1,0.1-0.1,0.6,0,0.7c1.1,1.2,0.3,2.7,0.7,4.1c0.4,1.4,0.2,3,0.3,4.5
				c0,0.6-0.2,1.3,0.5,1.9c0.2,0.1,0.1,0.7,0,1c-0.3,0.7-0.6,1.5-1,2.1c-0.6,0.9,1.2,1.5,0.2,2.5c-0.4,0.4-0.4,1.6-0.1,2.2
				c0.6,1.1,0.4,1.9,0,3c-0.2,0.7,0,1.5,0,2.3c0,0.8,0.2,2-0.2,2.4c-0.9,1,0.3,1.3,0.3,2c-0.2,1.4-0.1,2.9,0,4.3
				c0.1,1.5,0.4,2.9,0.5,4.4c0.3,3-0.5,6.1,0.5,9c0.1,0.2-0.2,0.6-0.3,0.9c-0.1,0.2-0.3,0.6-0.2,0.6c0.9,0.8,0.3,1.6,0,2.4
				c-0.2,0.7-0.3,1.7,0,2.2c0.6,0.8,0.3,1.6,0.4,2.4c0.1,1.2-0.3,2.3-0.4,3.4c-0.1,1.1,0.3,2.2,0.4,3.4c0,0.4,0.1,1-0.1,1.2
				c-0.6,0.6-0.3,1.3-0.4,1.9c-0.1,0.8,0,1.7,0,2.6c0,0.8-0.2,1.8,0.2,2.2c0.9,1-0.6,1.5-0.2,2.3c0.2,0.5,0.4,1,0.5,1.6
				c0.1,0.6,0.1,1.3,0.3,1.9c0.2,1,0.4,4,0.3,5.1c0,0.4,0.1,1.1,0.3,1.1c0.9,0.2,0.3,1.4,1.4,1.6c0.6,0.1,1.1,0.9,1.7,1.5
				c1.5,1.7,3.4,1.9,5.4,1.2c0.2-0.1,0.6-0.3,0.7-0.2c0.7,0.8,1.6,0.5,2.4,0.5c6.6,0,13.2,0,19.8,0c0.3-0.5,0.7-1,1-1.4
				c1.1-0.4,1.9,0.2,2.6,1.1c0.3-0.8,0.7-1.5,0.6-2c-0.2-1.4-0.2-2.8-0.7-4.1c-0.6-2-0.1-4-0.3-6c1.1-1.6,0.5-3.1,0-4.7
				c-0.4-1.3-0.3-1.6,0.1-2.6c0.2-0.4,0.4-0.9,0.4-1.4c0.1-1,0-2,0-3.1c0-1.3-0.1-2.6,0-3.8c0.1-1.2-0.4-2.5,0.3-3.7
				c0.8-1.4-0.9-2.1-0.8-3.3c0-0.4,0-0.9,0-1.3c0.2-3.2,0.4-6.3,0.5-9.5c0.1-1.8,0-3.6,0-5.4c0-1.2,0-2.4-0.8-3.5
				c-0.3-0.5-0.2-1.2-0.1-1.9c0-0.3,0.3-0.6,0.3-0.9c0.1-0.6,0-1.2,0-1.8c0-0.6,0-1.2,0-1.8c0.1-0.6,0.4-1.2,0.3-1.8
				c-0.1-0.5-0.7-0.9-0.8-1.5c-0.1-0.6-0.2-1.5,0.1-2c0.6-0.7,0.4-1.5,0.4-2.2c-0.1-2.7-0.3-5.5-0.5-8.2c-0.1-1.4,0-2.7,0-4.1
				c0-1.3,0.3-2.7-0.1-3.8c-0.5-1.3,0.3-2.5,0.1-3.7c-0.1-0.4,0-0.9,0-1.3C1226.8,370.5,1226,369.8,1224.4,369.5 M1551.6,451.1h1.4
				c0.5-1.1-0.7-0.7-0.8-1.2c-0.2-0.5-0.2-1.1-0.4-1.7c1.7-0.9,1.7-1.1,0.8-3.1c-0.2-0.4-0.4-0.9-0.6-1.6c1.2,0.2,1.5-0.7,1.1-1.3
				c-0.6-0.8-0.4-1.6-0.4-2.4c0-4.8,0-9.6,0-14.3c0-0.5,0.2-1.2,0-1.5c-0.7-0.9-0.2-1.7,0.1-2.4c0.3-0.9,0.9-1.7,0-2.7
				c-0.1-0.1-0.1-0.8,0.1-0.9c0.6-0.5,0.4-1.1,0.4-1.7c-0.1-1.4-0.1-2.7-0.4-4.2c-0.3-1.5-0.4-3.2,0.3-4.9c0.4-0.9-0.6-2.3-0.3-3.3
				c0.3-1.2,0.8-2.6,0.3-3.6c-0.5-1.1-0.4-2.1-0.4-3.2c0-3.9-0.1-7.9,0-11.8c0.1-3.9-0.3-7.9,0.4-11.8c0.3-1.7-0.1-3.4-0.3-5.2
				c-0.3-1.9-0.6-3.8-1.2-5.7c0.4-0.1,0.7-0.3,1-0.4c-0.3-0.6-0.9-1.2,0-2c0.9,0.8,2,1.2,2.2,2.8c0.1,0.6,0.7,1.2,1.1,1.8
				c0.8,1.4,1.8,2.6,2.2,4.2c0.3,1-0.8,0.2-0.8,0.7c-0.4,2.3,1.5,4.2,1.2,6.4c0,0.3,0.2,0.6,0.3,0.9c0.9,1.8,1.8,3.6,1.5,5.8
				c0,0.3,0,0.8,0.1,0.9c1.7,1.4,1.4,3.3,1.4,5.1c0,0.6,0.2,1.1,0.6,1.6c0.6,0.7,1.4,1.6,1.4,2.4c0,1,0.6,1.9,0.6,2.9
				c0,2.2,0.7,4.3,1.6,6.3c0.5,1.1,0.8,2.3,0.9,3.4c0.2,1.6-0.3,3.3,1.1,4.7c0.1,0.1-0.1,0.4,0,0.5c1,0.9,0,2.4,1,3.5
				c0.5,0.6,0.5,1.5,0.6,2.3c0.3,2.1,0.4,4.3,1.9,6.1c0.5,0.6,0.8,1.6,0.7,2.5c-0.2,1.1,0.1,2.1,0.8,3c0.5,0.6,0.8,1.4,1.2,2
				c-0.6,0.8-1,1.8-0.2,2.4c0.8,0.6,0.5,1.5,1,2.2c0.5,0.7,0.4,1.6-0.3,2.3c-0.1,0.1-0.1,0.5,0,0.7c0.3,0.9,0.7,1.8,0.9,2.7
				c0.7,2.4,1.1,4.8,1.6,7.3c0.5,2,1.1,4,1.6,5.9c1-0.3,1.7-0.6,2.4-0.8c-0.4-0.6-0.8-1.2-1.1-1.8c-0.3-0.7-0.5-1.5-0.8-2.2
				c0.8-0.5,0.5-1.2,0-1.8c0.7,0,1.2-0.3,1.6,0.7c0.5,1.2,1.8,1.1,2.4-0.2c0.4-0.7,0.6-1.5,0.5-2.4c-0.1-0.4,0-1.2,0.1-1.2
				c1.2-0.2,0.9-1,0.9-1.7c0-0.5,0.2-0.9,0.5-1.3c1.3-2.2,1.4-4.7,2-7.1c0.2-0.7-0.1-1.5-0.2-2.3c0.4,0,0.8-0.1,1.2-0.1
				c0.1-1,0.1-2,0.4-2.9c0.6-1.8,1.6-3.6,1.3-5.6c0-0.1,0-0.3,0.1-0.5c0.5-0.8,1-1.6,0.9-2.7c-0.1-1.1,0.8-2,0.5-3.1
				c-0.1-0.3,0.3-0.7,0.4-1.1c0.3-0.9,0.6-1.8,0.8-2.6c-0.2-0.7,1.3,0.2,0.6-0.9c-0.4-0.6-0.4-1.4,0.1-2.1c0.4-0.5,0.5-1.1,0.7-1.8
				c0.7-2.8,1.4-5.6,2.1-8.4c0.2-0.7,0.6-1.5,0.4-2.1c-0.3-0.7-0.3-1.1,0.3-1.6c0.2-0.1,0.2-0.4,0.3-0.6c0.6-1.2,0.3-2.7,1.5-3.8
				c0.6-0.6,0.7-1.9,0.5-2.8c-0.3-0.9,0.1-1.4,0.4-2c0.2-0.4,0.9-0.6,0.7-1.2c-0.2-0.7,0.2-1.3,0.5-1.8c0.5-0.7,0.5-1.4,0.5-2.1
				c0-0.5-0.1-1.1,0-1.5c0.6-1.9,1-3.8,1-5.7c0-0.8,0.3-2,0.9-2.3c0.9-0.5,1.1-1,1.2-1.9c0-0.6,0.4-1.2,0.7-1.8
				c0.2,0.3,0.4,0.5,0.6,0.6c0.8,0.5-0.8,1.3,0.2,1.8c0,0-0.1,0.4-0.2,0.7c-0.1,0.5-0.4,1.1-0.2,1.4c0.4,0.6,0.8,1.2,0.2,1.8
				c-0.8,0.8,0.6,1.2,0.2,1.7c-0.6,0.8-0.7,1.4,0,2.2c0.2,0.2-0.1,1.1-0.4,1.3c-0.9,0.7-0.9,2-0.5,2.5c0.8,1.1-0.1,2.6,0.9,3.5
				c-0.3,0.3-0.6,0.6-1,1c0.2,1.9-0.6,4.2,1,6c-0.3,0.3-0.6,0.6-1,1c0.2,2.1-0.2,4.3,0.4,6.6c0.5,1.8,0.1,3.7,0.1,5.6
				c0,0.3-0.1,0.7-0.3,0.9c-0.8,0.5-0.7,1.3-0.7,2c-0.2,5.9,0.4,11.8-0.4,17.7c-0.3,2.1,0.2,4.3,0.5,6.4c0.1,0.7,0.5,1.3,0.8,2
				c0.1,0.3,0.2,0.6,0.1,0.9c-0.5,1.5-0.4,3.2-0.9,4.8c-0.2,0.8,0.5,1.4,0.2,2.2c-0.3,0.7-0.1,1.7-0.2,2.5c-0.1,1.3,0.4,2.7-0.5,3.9
				c-0.1,0.2-0.1,0.6,0,0.7c0.8,0.8,0.3,1.6,0.1,2.4c-0.2,0.6-0.4,1.5,0.3,2.2c0.2,0.2,0.2,0.6,0.2,0.9c-0.1,0.5-0.4,1-0.5,1.6
				c-0.1,0.7,1,0.2,1.1,1.1c0,0.9,0.7-0.2,0.7-0.1c0.2,1.5,1.9,1.5,2.4,2.3c2.5,0.7,4.8-0.4,7.1-0.3c4.5,0.1,8.9-0.5,13.4,0.4
				c1.7,0.3,3.6,0.1,5.4,0.1c0.7,0,1.5,0.2,2-0.1c1.1-0.7,2.1-0.3,3.1-0.3c0.2,0,0.3,0.2,0.5,0.4c0.4-0.4,0.8-0.8,1.3-1.2
				c-0.2-1.2,0.3-2.5-0.5-3.8c-0.2-0.3-0.1-1.1,0.1-1.4c0.8-1.2,0.6-2.6,0.2-3.7c-0.5-1.6-0.4-3.1-0.4-4.7c0-6.7-0.1-13.3,0-20
				c0-2.6-0.9-5.1-0.5-7.7c-0.7-0.5-0.2-1.1,0-1.6c0.3-0.6,0.9-1.2,0.3-1.8c-0.7-0.6,0.6-1,0-1.7c-0.7-0.9-0.4-2-0.1-3.1
				c0.1-0.5,0.2-1,0.3-1.4c0.2-0.8-0.4-1.4-0.2-2.2c0.2-0.8,0.2-1.6,0.2-2.5c0-1.4-0.1-2.7,0-4.1c0.2-2.8-0.5-5.7,0.5-8.5
				c0.1-0.2,0.1-0.6,0-0.8c-0.8-1.4-0.5-2.9-0.5-4.4c0-10.6,0-21.2,0-31.8c0-1.6,0.3-3.3-0.4-4.9c-0.3-0.6,0.4-1.5,0.4-2.3
				c0-0.9-0.6-1.8-0.3-2.5c0.3-0.7,0.3-1.3,0.3-1.9c0.1-0.9,0.1-1.9,0-2.8c-0.1-0.9-0.4-1.7-0.5-2.6c-0.1-2.1,0-4.3,0-6.4
				c0-1-0.2-2.1-0.3-3.2c0.2-0.1,0.5-0.3,0.8-0.4c-0.1-0.9-0.4-1.7-0.4-2.5c0-5.7,0-11.4,0-17.2c0-0.5,0-1,0.1-1.5
				c0.5-2,0.4-2,0-4.5c-0.2-0.9-0.2-1.9,0.2-2.9c0.3-0.7,0.3-1.7,0-2.4c-0.3-0.7-0.5-1.5-0.2-1.9c0.6-0.7,0.3-1.4,0.4-2.2
				c0.3-1.7-0.5-3.3-0.5-4.9c0.1-2.1-0.4-4.2,0.4-6.2c0.3-0.8,0.1-1.9,0-2.8c-0.1-0.9-0.5-1.7-0.5-2.6c0.2-3.2-0.5-6.4,0.4-9.5
				c0.2-0.8-0.7-2-0.3-2.5c0.6-1,0.2-2,0.4-2.9c0-0.2,0-0.5-0.1-0.7c-0.5-2-0.4-1.9,0-4c0.2-0.8,0.4-1.6-0.2-2.4
				c-0.1-0.2-0.3-0.6-0.2-0.7c1-0.9,0.4-2.1,0.5-3.1c0-1,0.5-2.2-0.4-3.1c-0.2-0.2-0.1-0.7,0-1c0.9-1.2,0.3-2.6,0.4-3.9
				c0-0.3-0.6-0.9-0.4-1c0.9-1.1,0.4-2.5,0.4-3.7c0-1,0.4-1.6,1-2.1c-0.6-0.6-1.2-1.3-1.8-2h-2.7c0.6-1.1,0.6-1.1-0.7-2
				c-0.2,0.3-0.3,0.7-0.5,1c-0.6-1.1-0.9-1.2-2.3-0.8c-0.4,0.1-0.8,0.4-1.1,0.3c-2.1-0.8-4.1-0.8-6.1,0.3c-0.1,0.1-0.3,0.1-0.4,0.1
				c-1-1-2.5,0.3-3.5-0.9c-0.2-0.3-1.2-0.2-1.5,0c-0.8,0.8-1.6,0.4-2.4,0.5c-1,0.1-1.9-0.1-2.9,0.5c-0.5,0.3-1.4-0.1-2.2-0.2
				c-1.6-0.1-3.1-0.9-4.9-0.3c-2.8,0.8-3.2,0.8-4.2,3.3c-0.3,0.8-0.5,1.7-0.7,2.5c-0.4,1.7-1.4,3.3-1,5.2c0,0.1-0.2,0.2-0.3,0.4
				c-0.8,1.6-1.2,3.2-0.2,4.9c0.1,0.3,0.1,0.8,0,1c-1.3,1.2-0.6,3-1.5,4.3c0.2,2.4-1.6,4.3-1.8,6.7c-0.1,0.6-0.2,1.4-0.5,1.9
				c-0.4,0.9-0.1,1.7-0.3,2.5c-0.1,0.6-0.1,1.3-0.3,1.9c-0.6,2.4-1.7,4.6-1.3,7.2c0.1,0.5,0,1.2-0.3,1.4c-0.9,0.7-0.7,1.6-0.7,2.5
				c-0.1,1.2,0.4,2.5-0.5,3.6c-0.8,1-0.4,2.2-0.5,3.4c-0.1,1.1-1.3,1.9-1,3.2c0,0.1,0,0.2,0,0.3c-0.3,1.9-0.3,3.9-1,5.7
				c-0.5,1.2-0.6,2.4-0.5,3.6c0.1,0.9-0.1,1.8-0.6,2.6c-1.1,1.7-1.5,3.5-1.5,5.5c0,0.8,0.1,1.6-0.5,2.4c-0.3,0.5-0.7,1.5-0.5,1.8
				c1,1.2-0.1,1.7-0.5,2.5c-0.2,0.4-0.6,0.7-0.6,1c-0.1,1.8,0.2,3.7-0.5,5.4c0,0.1,0,0.2,0,0.3c0.1,0.8,0.1,2.5-0.2,2.8
				c-1.5,1.4-0.2,3.4-1.2,4.9c0,0,0.2,0.3,0.3,0.3c1.1-0.1,0.8,1,0.7,1.2c-0.7,0.7-0.3,1.9-1.3,2.6c-0.6,0.4-0.9,1.3-1.1,2
				c-0.3,1-0.4,2.1-0.5,3.1c-0.1,1.1,0,2.2,0,3.2c0.5,0.2,0.7,0.3,1.2,0.4c-0.5,0.2-1,0.2-1,0.4c-0.5,1.7-1.8,3.2-1.7,5.2
				c0,0.1-0.2,0.2-0.3,0.2c-0.3-0.2-0.5-0.4-0.5-0.5c0.1-0.7,0.4-1.3,0.2-1.8c-0.2-0.7-1-1.2-1.2-1.8c-0.2-0.6,0.2-1.2,0.3-2.1
				c-0.7,0.3-1.1,0.4-1.5,0.6c0.1-1,0.2-1.9,0.4-2.8c0.2-1.3-1.3-1.4-1.5-2.4c-0.1-0.6-0.6-1.1-0.9-1.7c1.2-1.3,1.2-3,0.8-4.6
				c-0.4-1.5-1.1-2.9-1.4-4.5c-0.3-1.7-1.3-3.2-1-5c0-0.2-0.3-0.4-0.4-0.6c-0.5-1.5-1.1-3-1.1-4.7c0-0.4,0-0.9-0.2-1.2
				c-1.1-1.9-1.4-3.9-1.4-6.1c-0.3-0.1-0.8-0.2-0.9-0.4c-0.3-1.3-0.5-2.6-0.6-3.8c-0.1-1.3,0-2.5-0.8-3.8c-0.5-0.8-1-1.9-0.8-3
				c0.1-0.8-0.2-1.4-0.5-2.1c-0.9-2-0.7-2-1.1-4.5c-0.3-2-0.9-4.1-1.2-6.1c0-0.2-0.2-0.4-0.2-0.7c-0.7-2-1.6-3.9-1.5-6
				c0-0.1-0.1-0.4-0.2-0.4c-1-0.6-0.8-1.6-0.8-2.5c-0.1-0.9-0.3-1.7-0.4-2.6c0-0.6-0.1-2-0.5-2.3c-0.7-0.5-0.6-1.1-0.7-1.8
				c0-0.5-0.3-0.9-0.4-1.4c-0.4-1.4-0.8-2.8-1.1-4.1c-0.3-1.2-0.6-2.4-0.5-3.6c0.1-1.4-1-2.2-1.2-3.4c-0.1-0.8-0.4-1.6-0.4-2.4
				c0-1-0.2-1.9-0.4-2.9c-0.3-1.1-1.8-2-0.6-3.5c0.1-0.2-0.5-0.9-0.7-1.4c-0.5-1.5-2-2.8-0.8-4.6c0.1-0.2,0-0.7-0.2-0.9
				c-1.1-1.2-0.7-2.6-0.8-4c-1.7-1.2-3.4-1.6-5.5-1.3c-0.5,0.1-1.1-0.2-1.7-0.3c-0.2,0-0.6-0.3-0.7-0.2c-1.2,1-2.6,0.3-3.9,0.5
				c-1.9,0.2-3.9-0.5-5.7,0.5c-0.2,0.1-0.6,0.1-0.7,0c-0.6-0.8-1.4-0.4-2.1-0.5c-1.6-0.1-3.3,0.2-4.9-0.5c-0.7-0.3-1.6-0.3-2.3,0.6
				c-0.2,0.3-1.1,0.5-1.3,0.4c-1-1-1.8-0.2-2.6,0.1c-0.2-0.4-0.4-0.7-0.5-1.1c-0.6,0.6-1.2,1.5-1.9,1c-1.2-0.9-1.9-0.1-2.9,0.3
				c0,4,0,8,0,12c0,0.6,0.7,1.5,0.4,1.8c-0.5,0.7-0.4,1.4-0.4,2.1c0,0.9,0,1.7,0,2.6v2.6c0,0.9,0,1.7,0,2.6c0,0.8,0.3,1.5,0.3,2.3
				c0,0.8-0.2,1.6-0.3,2.4c0,0.6,0.1,1.3,0.3,1.9c0.3,1,0.1,2.3-0.1,3.4c-0.2,1.3-0.5,2.5-0.7,3.8c1.1,1.3,0.3,2.8,0.5,4.1
				c0.1,0.5-0.6,1.3-0.4,1.5c0.6,0.6,0.2,1.4,0.5,1.9c0.6,0.9,0.5,1.9,0.5,2.9c0,2.2-0.2,4.3-0.4,6.5c-0.3,4.3-0.1,8.7-0.1,13.1
				c0,0.6,0.7,1.5,0.4,1.8c-0.7,0.9-0.4,1.8-0.4,2.7c-0.1,1-0.1,2,0.5,2.9c0.2,0.2,0.2,0.8,0,1c-0.8,1.1-0.5,2.4-0.5,3.6
				c0,3.8,0,7.5,0,11.3c0,0.9-0.4,1.8-0.5,2.6c-0.1,0.9,0.2,1.9,0.5,2.8c0.5,1.7,0.5,3.4,0.5,5.2c0,0.3,0.3,0.6,0.4,0.9
				c-0.7,0.5-1.1,1.1-1,2.1c0.1,1.8,0.2,3.6,0.4,5.4c0.3,1.8,0.3,3.6,1.3,5.2c-0.5,0.2-0.8,0.4-1.3,0.6c0.2,0.9,0.6,1.7,0.6,2.6
				c0,1.6,0.3,3,0.9,4.5c0.7,1.6-0.2,3.3-2.1,4.2c0.2,0.8,0.6,1.7,0.6,2.5c0,0.9-0.3,1.7-0.4,2.6c0,0.4,0.1,0.8,0.2,1.2
				c0.3,1.1,0.5,2.2-0.2,3.3c-0.4,0.6-0.8,1.6-0.5,2c0.4,0.7,0.4,1.2,0.4,1.9c0.2,2.5-0.4,5,0.5,7.5c0.2,0.7,0.3,1.7,0,2.3
				c-0.6,1.1-0.4,2.3-0.4,3.4c0,0.9-0.1,1.8,0.4,2.6c0.2,0.3-0.4,1-0.4,1.5c0,0.5,0.5,1.2,0.3,1.5c-0.6,1-0.1,2-0.4,3.3
				c0.3,0.1,0.8,0.3,1.1,0.5c-0.4,0.8-0.7,1.5-1.1,2.1c0.5,0.2,0.8,0.4,1.2,0.6c-1.1,0.7-0.1,2-0.8,2.7c-0.3,0.2-0.8,0.6-0.7,0.7
				c1.5,2-0.5,4.3,0.5,6.3c-1,0.9-0.4,2.1-0.5,3.1c-0.1,2-0.3,4,0.1,5.9c0.3,1.8,0.4,3.6,0.4,5.4c0,2,0,3.9,0,5.9c0,1,0,2,0,3.1
				c0,0.6-0.3,1.2,0.4,1.6c-0.1,1.7,0.8,3.5-0.6,5c-0.3,0.4-0.2,1.2-0.1,1.9c0,0.5,0.3,0.9,0.4,1.4c0.1,0.9,0,1.7,0,2.6v2.6
				c0,0.9,0,1.9,0,2.8c0,0.8-0.2,1.9,0.2,2.4c0.9,1-0.6,1.4-0.3,2.3c0.2,0.6,0,1.3,0.6,1.8c0.4,0.3,0.8,0.9,0.9,1.4
				c0.3,1.2,1.3,1.6,2.2,2.1c0.1,0.1,4.5,0.4,4.7,0.4c2.1-0.1,4.1-0.4,6.2,0.2c1.2,0.3,2.6,0.6,3.8-0.3c1.2,0.6,2.4,0.6,3.8,0.3
				c1.9-0.5,3.9-0.5,5.9,0.3c0.8-0.9,1.5-1.8,2.9-1.6v-2.2c0.7,0.5,1.2,0.9,1.7,1.2c0.6-0.4,1.2-0.8,1.8-1.2c0,0-0.1-0.1-0.1-0.1
				c-0.4-0.3-0.1-0.4,0-0.7c0.4-0.8,0.2-1.4-0.7-1.5c0.1-0.5,0.4-0.9,0.3-1.3C1551.6,452.3,1552.7,451.9,1551.6,451.1 M1445.7,459.3
				c1.1-0.1,2.2,1.2,3.4,0.1c0.1-0.1,0.8,0.1,1.1,0.4c0.9,0.7,2,0.7,3.1,0.6c0.9,0,1.9-0.1,2.8,0c1.6,0.1,1.6,0.2,2.8-0.4
				c0.5-0.3,0.7,0,1.1,0.1c0.5,0.3,1.3,0.7,1.5-0.5c0-0.1,0.3-0.1,0.5-0.1c0.6-0.1,1.2-0.1,1.7-0.2c0.2-0.1,0.4-0.3,0.6-0.4
				c0.4,0.3,0.9,0.9,1.4,0.9c2.4,0.1,4.8,0,7.2,0c0.7,0,1.3,0.1,1.9-0.5c0.2-0.2,0.8,0.1,1.2,0.2c1,0.2,2,0.8,2.9,0.6
				c1.2-0.3,2.3-0.3,3.5,0.1c1,0.3,2.2,0.1,3.4-0.2c1.9-0.5,3.9-1.5,5.9-0.3c0.4,0.2,1.2,0.2,1.4-0.1c0.6-0.6,1.3-0.3,1.9-0.4
				c0.7-0.1,1.4,0.2,2.2-0.4c0.3-0.3,1.3-0.3,1.7,0c1.7,0.9,3.5,0.3,5.2,0.5c0.1,0,0.3-0.1,0.5-0.2c0-0.4,0.1-0.8,0.1-1.2
				c2.4-0.3,3-0.8,3-3.2c0-1.3,0.7-2.1,1.1-3.1c-0.3-0.6-0.7-1.2-1-1.8c0.4-0.1,0.7-0.2,1-0.3v-2.6v-2.6c0-0.9-0.3-2,0.1-2.8
				c0.4-0.9-0.2-1.5-0.1-2.2c0.1-0.5-0.2-1.2,0.4-1.7c0.2-0.1,0.3-0.8,0.1-0.9c-0.7-0.8-0.3-1.8-0.5-2.6c-0.4-1.7-0.4-3.6-2.5-4.3
				c0,0,0-0.3,0-0.7h2.5c0-0.7-0.1-1.1-0.1-1.6c-0.5,0.3-0.8,0.4-1.4,0.7c0.1-1.6-0.8-1.9-2-1.7c-1,0.1-1.9-0.1-2.9,0.3
				c-1.1,0.4-2.5,0.2-3.7,0c-2-0.4-3.1-0.5-4.8-0.4c-2.3,0.2-4.6,0.4-6.9,0.6c-0.4,0.4-0.7,0.8-1.1,1.1c-0.4,0.2-1.1,0.5-1.3,0.4
				c-1.8-1.2-4.3-1.2-5.5-3.5c0.7-0.6-0.1-1.3,0-2c0.1-0.7,0.4-1.4,0.7-2.1c0.2,1.9,1.5,3,2.8,4.1c0.6-0.3,1.1-0.6,1.7-0.8l-1.5-1.5
				c-0.1-0.9,0-1.9-0.5-2.8c-0.4-0.8,1.1-2,0.4-2.8c-1-1.1,0.1-1.8,0.1-2.6c-0.4-0.4-0.7-0.7-0.8-0.8c0.1-0.8,0.3-1.4,0.3-2
				c0-1.1-0.4-2.5,0.1-3.3c1-1.6,0-2.6-0.6-3.8c0.9-0.4,1.3-1.3,1-2.1c-0.7-1.4-0.2-2.6,0-4c0.3-2,0.1-4.1,0-6.1
				c0-0.5-0.6-1.2-0.4-1.5c0.4-0.6,0.6-0.9,0-1.5c-0.2-0.2-0.2-1,0-1.1c0.6-0.6,0.1-1.5,0.4-1.9c0.7-0.8-0.1-1.3-0.1-1.9
				c0.1-1-0.8-2-0.9-2.9c-0.1-0.9,0.6-1.9,0.9-2.9c0-0.2,0-0.3,0-0.5c0.1-1.1-0.2-2.3,0.5-3.4c0.3-0.5,0.2-1.4-0.2-1.9
				c-0.6-0.9-0.5-2-0.2-2.7c0.7-1.5,0.4-3,0.4-4.4c0-1,0.3-2-0.3-2.9c-0.7-1,0.3-1.9,0.4-2.8c0-0.2-0.2-0.4-0.3-0.7
				c-0.3-1-0.4-2.1,0.1-3.1c0.1-0.2,0.3-0.6,0.2-0.7c-1-1.1-0.3-2.4-0.5-3.6c-0.2-2,0.4-4-0.5-5.9c-0.1-0.2-0.1-0.6,0-0.7
				c0.8-0.6,0.4-1.4,0.4-2.1c0.1-1.4-0.4-2.9,0.1-4c0.7-1.5-0.4-2.7-0.1-4c-0.7-0.6-0.5-1.4-0.5-2.1c0-0.7-0.1-1.4,0.4-2.1
				c0.3-0.4-0.3-1.3-0.4-2c0-0.4,0.1-0.8,0.2-1.2c0.3-1.1,0.5-2.2,0.8-3.3c-1-1.1-0.5-2.4-0.5-3.6c-0.1-4.7-0.1-9.4,0-14.1
				c0-1.6-0.5-3.2,0.5-4.7c0.1-0.2-0.1-0.6-0.1-0.9c-0.1-0.5-0.3-0.9-0.3-1.4c-0.2-1.5,0.3-3-0.5-4.4c-0.2-0.3-0.1-0.8,0-1.2
				c0.6-2.4,0.6-2.4,0-4.5c-0.1-0.4-0.2-1,0-1.2c0.6-0.5,0.5-1.2,0.4-1.6c-0.5-1.7-0.5-3.4-0.5-5.2c0-0.4-0.6-1.1-0.4-1.3
				c0.9-0.9,0.4-2,0.4-2.9c0.1-4.6,0-9.2,0-13.8c0-0.7-0.4-1.5,0.4-2.1c0-2.3-0.1-4.7-0.1-7c0-0.7-0.3-1.5-0.2-2.2
				c0.2-1.3,1-2.6,0-3.9c-0.1-0.1,0-0.3,0.1-0.4c0.8-0.8,0.6-2,0.3-2.6c-0.6-1.4-0.1-2.8-0.5-4.2c-0.3-1.2-0.7-2.4-0.5-3.7
				c0.2-1.2-0.9-2.1-2.7-2.7c1-0.1,1.9-0.2,3.1-0.3c-0.5-0.6-0.8-1-1.2-1.4c-0.7-0.6,0.3-0.9,0.1-1.4c-0.9-0.3-1.9,0-2.9-0.5
				c-0.6-0.4-1.8-0.3-2.4,0.1c-0.7,0.4-1.3,0.3-1.9,0.3c-1.1,0.1-2.2-0.3-3,0.9c-0.1,0.2-0.6,0.1-0.9,0.2c-0.8,0.1-1.6,0.3-2.5,0.5
				c0.1-0.9-0.4-1.4-1.2-1.5c-1.1-0.1-2.2,0-3.3,0c-1.1-0.1-2.2-0.4-3.4-0.5c-0.8-0.1-1.6,0.2-2.4,0.4c-0.8,0.2-1.7-0.3-2.6-0.4
				c-0.3,0-0.6,0.1-0.9,0.2c-1.1,0.5-2.4,0.3-3.4,1.2c-0.3,0.3-1.2,0.3-1.4,0.1c-1.1-1.1-1.9-0.1-3,0.3c0.1,0.5,0.2,1,0.4,1.9
				c-0.1,0.1-0.5,0.5-0.9,0.7c-1.2,0.5-1.5,1.5-1.5,2.7c-0.1,1.6,0.2,3.1,0.7,4.6c0.1,0.3,0.4,0.4,0.1,0.7c-0.8,0.9-0.8,2.1-0.7,3.3
				c0.2,2.7-0.4,5.5,0.4,8.3c0.4,1.2,0.4,2.9-0.1,4c-0.7,1.5-0.2,2.5,0.3,3.7c0.1,0.3,0.5,0.7,0.4,0.8c-1,1.2-0.3,2.6-0.5,3.9
				c0.4,0,0.7,0.1,0.9,0.1c0.3,0,0.7,0,1,0c0.9,0.1,1.6,1.2,1.1,1.8c-1.1,1.2-0.6,2.3-0.4,3.5c0,0.1-0.1,0.1-0.2,0.2
				c-0.3-0.2-0.6-0.3-1.1-0.5c-0.7,1.5-1.4,2.9-1.4,4.6c0,1.6,0.3,3.3-0.4,4.9c-0.2,0.5-0.2,1.3,0.1,1.7c0.5,0.6,0.3,1.1,0.3,1.7
				c0,3,0,6,0,9c0,0.4,0,0.9-0.2,1.2c-0.5,1-0.4,1.8,0,2.8c0.2,0.7,0.1,1.6,0,2.4c0,0.4-0.4,0.9-0.3,1.1c0.8,1.2,0.5,2.6,0.4,3.9
				c-0.1,3,0.6,6.1-0.5,9c-0.1,0.1-0.1,0.4,0,0.5c1,1.2,0.2,2.9,1,4.2c0.2,0.4,0.3,1.3-0.3,1.9c-0.3,0.3-0.2,1-0.2,1.4
				c0.1,0.5,0.1,0.9,0.1,1.4c-0.2,1.6-0.1,3.2-0.1,4.9c0,0.1,0.2,0.3,0.2,0.4c0.3,0.1,0.5,0.1,1,0.2c-0.6,0.4-1,0.7-1.3,0.9
				c0,1.1-0.3,2.2,0.1,2.7c0.8,1.2,0.7,2.5,0.3,3.4c-0.5,1.4-0.3,2.8-0.4,4.2c-0.1,1.2-0.1,2.4,0,3.6c0.1,1.2-0.5,2.5,0.4,3.7
				c-0.7,1-0.4,2.2-0.4,3.3c0,2-0.1,3.9,0,5.9c0,0.9-0.3,1.8,0.4,2.7c0.2,0.3-0.3,1.2-0.4,1.8c-0.2,2.5,0.4,5-0.5,7.5
				c-0.1,0.3-0.1,0.8,0,1c0.8,0.6,0.5,1.4,0.4,2.1c0,1,0,2.1-0.4,3.2c-0.4,0.9,0.3,2.2,0.4,3.3c0,0.5-0.1,1-0.3,1.4
				c-0.3,1.1-0.4,2.1,0.1,3.1c0.1,0.3,0.3,0.7,0.2,0.9c-0.6,0.9-0.4,1.7,0,2.7c0.2,0.6-0.4,1.5-0.4,2.3c0,0.8,0.5,1.8,0.3,2.5
				c-0.4,1.3-0.5,2.5,0,3.8c0,0.1-0.1,0.4-0.1,0.5c-0.1,1.1-0.2,2.2-0.1,3.3c0,1,0.1,2.1,0.2,3.1c0.2,2.3,0.5,4.1,0,5.8
				c-0.1,0.4,0.5,0.8-0.1,1.3c-0.3,0.2-0.3,1.3,0,1.7c0.7,1.1,0.3,2.3,0.5,3.3c0.5,0.3,1,0.6,1.6,1c-0.8,0.6-1.5,1.2-2.1,1.7
				c0.1,0.8,0.3,1.7,0.4,2.6c0.2,3.1-0.5,6.2,0.5,9.3c0.1,0.4,0.2,1,0,1.2c-0.8,0.9-0.1,2.1-0.6,2.8c-0.7,1.1,0.1,1.8,0.1,2.7
				c-0.1,1.2,0,2.4,0,3.6v3.3c0,1.2,0.3,2.5-0.1,3.6c-0.3,1.1-0.4,2.1,0.1,3.2c0.1,0.1,0,0.4-0.1,0.5c-0.7,0.5-0.4,1.2-0.4,1.9
				c0,0.8-0.3,1.7,0.6,2.3c0.9,0.6,0,1.7,0.8,2.5C1445.5,457.1,1445.4,458.3,1445.7,459.3 M1229,456.3h-0.3v1h0.3V456.3z"/>
			<path class="st5" d="M978.4,336.4c-0.3-0.2-0.8-0.4-0.8-0.5c0-1.4-1-2.6-0.5-4.2c0.3-0.9,0.2-2,0-2.9c-0.4-1.8-0.4-2.7,0.5-4.7
				c0.5,1.6,1,3.1,1.5,4.7c0.3-0.5,0.6-0.8,0.8-1.2c0.5-0.9-1.2-1.8-0.1-2.7c-0.1-0.9-0.2-1.7-0.5-2.6c-0.1-0.3-0.6-0.6-0.9-0.8
				c-0.2-0.2-0.5,0.1-0.4,0.4c0.2,0.7-0.3,1.1-0.5,1.6c-0.3-0.8-0.6-1.6-0.7-2.5c-0.2-1.1,0-2.1,1-2.9c1.6-1.2,1.8-1.5,2-3
				c-1.6-1.1-1.5,0.9-2.3,1.3c-1-0.9-0.9-2.1-0.8-3.2c0.2-2.2-0.6-4.5,0.4-6.7c0-0.1-0.2-0.2-0.2-0.4c-1.2-1.9-0.6-4.1-0.7-6.1
				c0-0.3,0.4-0.5,0.5-0.8c0.2-1,1.2-1.9,0.1-3c-0.1-0.1,0.1-0.6,0.2-0.8c0.1-0.6,0.4-1.3,0.2-1.7c-0.6-1-0.6-1.7,0-2.7
				c0.3-0.5-0.4-1.5-0.6-2.2c-0.1-0.3-0.3-0.8-0.2-0.8c0.7-0.6,0.1-1.5,0.4-2.1c0.5-1-0.9-1.7-0.3-2.8c0.4-0.8,0.3-2,0.2-3
				c0-0.8,0.3-1.6-0.5-2.4c-0.3-0.2-0.1-1,0-1.5c0.5-2.3,0.5-2.2,0.1-4c-0.1-0.5-0.1-1-0.1-1.5c0-2,0-3.9,0-5.9
				c0-0.6-0.2-1.3,0.4-1.9c0.3-0.4,0.3-1.2,0.1-1.7c-0.8-1.6-0.3-3.3-0.5-4.9c-0.1-1.2,0.1-2.3-0.2-3.5c-0.3-1,0.2-2.2,0.2-3.3
				c0.1-1.2,0-2.4,0-3.6c0-1-0.1-2,0.5-2.9c-0.9-1.2-0.3-2.6-0.5-3.9c-0.1-0.8,0.1-1.6-0.3-2.4c-0.4-0.8,0.4-1.7,1.2-2.3
				c0.1,0.4,0.2,0.7,0.4,1.1c0.4-0.4,0.8-0.7,1.1-1c1.5,1.1,0.9-1.4,2-1.1c0.3,0.9,0.3,1.1-0.1,1.9c0.5,0.1,1,0.1,1.5,0.2
				c-0.1,0.3-0.3,0.5-0.6,1.1c0.8-0.3,1.3-0.5,2.1-0.8c0.2,0.3,0.5,0.7,0.8,1.1c0.2,0.2,0.3,0.5,0.5,0.5c1.3,0.2,2.5,0.3,3.9,0.5
				c0-1.3-0.7-1.7-1.7-1.5c-1.2,0.2-1.7-0.5-2.3-1.2c-0.2-0.2-0.2-0.9,0-1.2c0.3-0.4,1-0.8,1.2-0.7c2,1.2,3.8-0.6,5.8,0
				c1.1-0.7,2.1,0.3,3.2,0c1.3,0.9,2.8,0.4,4.1,0.5c0.9,0.1,1.9,0,2.8,0c0.3,0.5,0.6,1,0.8,1.5c0.2-0.1,0.3-0.1,0.4-0.2
				c0.4-0.4,0.7-0.9,1.5-0.8c1.1,0.1,2.4-0.2,3.4,0.5c1.8,1.4,3.1,3.2,3.4,5.5c0.3,2.5,0.8,3.7,2.6,5.6c-0.6,1.6-0.7,1.6,0,2.9
				c0.9,1.5,1.5,3,1.6,4.8c0,0.8,0.5,1.5,0.7,2.3c0.3,1,1.6,1.8,0.8,3.1c-0.1,0.1,0.6,0.6,0.7,1c0.2,0.7,1.5,1.3,0.4,2.3
				c-0.1,0.1,0.1,0.6,0.2,0.8c0.4,0.9,0.8,1.9,1.3,2.8c0.2,0.4,0.5,0.7,0.4,1.1c0,1.2,0.3,2.3,1.2,3.1c0.1,0.1,0.3,0.4,0.2,0.5
				c-1.1,1.5,0.5,2.4,0.9,3.5c0.4,1.1,0.7,2.1,0.9,3.2c0.3,2,0.9,4,1.6,6c0.2,0.6,0.3,1.1,0.4,1.6c0.1,0.7,0.2,1.6,0.6,2
				c1.2,1.2,1.4,2.9,1.8,4.4c0.5,1.4,0.8,2.9,1.5,4.2c0.5,1,0.7,2.2,1.1,3.4c0.1,0.4,0.3,0.7,0.4,1.1c0.6,1.7,1.1,3.5,1.7,5.2
				c0.2,0.8,0.4,1.7,0.5,2.6c0.1,0.8,0,1.7,0,2.7c1.4,0,1.7,1.2,2,2.1c0.8,2.2,1.4,4.4,2.8,6.3c0.2,0.2-0.3,0.8-0.2,1.2
				c0.2,0.7,0.7,1.2,1,1.8c-0.3,0.6-0.6,1.2-1,1.8c0,0,0.1,0.1,0.1,0.3c1,1.6,1.8,3.3,3.4,4.5c0.6,0.4,0.8,1.3,1.2,2.1
				c0.9,0.1,1.9,0.3,2.4-1.2c-0.4-0.2-0.7-0.3-1.3-0.5c0.4-0.2,0.6-0.3,1.1-0.5c0-0.4,0.3-1.3-0.1-1.6c-0.7-0.7,0-1.1,0-1.7
				c-0.1-0.6-0.3-1.2-0.5-2c-0.4-0.2-0.9-0.6-1.6-1c0.5-0.6,0.9-1.1,1.2-1.6c-0.1-0.6-1-1.1-0.1-2c0.4-0.4,0.4-1.9,0-2.4
				c-0.7-0.9,0.5-1.3,0.1-1.9c-0.4-0.6-0.6-1.1-0.5-1.8c0-0.3,0-0.7,0-1c0.4-0.1,0.7-0.3,1.1-0.4c-0.4-0.8-0.8-1.6-1.2-2.4
				c0.3-0.4,0.9-0.8,1-1.3c0.2-0.8,0-1.7,0-2.5c-1.2,0-1.1-0.9-1-1.6c0.1-0.7,0.7-1.4,0-2.2c-0.1-0.1,0-0.3,0-0.5
				c0-1.1,1.3-2.3,0-3.4v-3.6c0-0.4-0.2-1,0-1.3c1-1.3,0.3-2.1-0.6-2.8c0.6-1.3,0.6-2.4,0.6-3.9c-0.1-2.3-0.1-4.6,0-6.9
				c0.1-0.8,0.5-1.6,0-2.4c-0.1-0.1,0-0.3,0-0.5c0.1-1,0.9-1.8,0.3-3c-0.4-0.9-0.2-2.1-0.3-3.2c0-0.6-0.6-1.1-0.1-1.9
				c0.3-0.6-0.2-1.6,0.1-2.2c0.7-1.6-0.3-3.1-0.1-4.7c0.2-1.7,0.4-3.5,0-5.1c-0.7-2.3-0.2-4.5-0.4-6.7c-0.1-0.8,0.3-1.7-0.5-2.4
				c-0.1-0.1-0.1-0.5,0-0.7c0.2-0.6,0.6-1.1,0.5-1.8c-0.1-0.7,0-1.4,0-2.1c0.3-0.1,0.6-0.2,1.1-0.4c-0.2-0.8,0.2-1.6-0.4-2.6
				c-0.3-0.6-0.2-1.6,0.1-2.3c0.3-0.8,0.3-1.3-0.3-1.8c0.9-1,2-1.3,3.3-1.3c1.3,0,2.7,0.4,3.9-0.5c0.4-0.3,1,0.4,1.3,0.4
				c1.8,0.1,3.5-0.1,5.3-0.1c0.1,0,3.1,0.4,3.1,0.4c0.5,0.7,1.2,0.9,2,0.8c1-0.2,1.3,0.6,1.9,1c1.2,0,2-1.6,3.4-0.8
				c-0.4,0.2-0.7,0.3-1.3,0.6c1.9,0.2,3.5,0.8,5.1,0.6c1.6-0.3,3.1-0.4,4.8-0.4c0.3,2,1.3,3.8,1.2,5.9c-0.1,0.7,0,1.4-0.4,2.1
				c-0.3,0.4,0.3,1.3,0.4,2c0,0.5-0.2,1-0.3,1.6c0.1,0,0.4,0.1,0.6,0.1c0,0.1,0.1,0.3,0.1,0.3c-1.3,1.8-1.3,3.7-0.3,5.5
				c0.4,0.7,0.4,1.2,0.4,1.9c0,3.2,0,6.3,0,9.5c0,1.2-0.4,2.5,0.4,3.7c0.2,0.3-0.4,1-0.4,1.5c-0.2,1.9-0.4,3.8-0.5,5.7
				c-0.1,0.6,0.2,1.2-0.3,1.7c-0.1,0.1-0.2,0.5-0.2,0.7c0.3,0.6,1,1.4,0.9,1.5c-0.5,0.5-0.5,1.1-0.3,1.7c1,3.6,0.4,7.2,0.5,10.8
				c0.1,3.6,0,7.2,0,10.8c0,0.8,0.3,1.6-0.4,2.4c-0.3,0.3-0.2,1.2,0,1.7c1.1,2.9,0.2,5.8,0.4,8.8c0.1,0.8-0.4,1.6-0.4,2.3
				c0,0.8,0.4,1.6,0.4,2.3c0,1.1,0.4,2.4-0.5,3.4c0.8,1.2-0.9,2.8,0.5,4c0.2,0.2,0.1,0.8,0,1.2c-0.2,2.6,0.5,5.2-0.5,7.7
				c-0.1,0.2-0.1,0.6,0.1,0.7c0.9,0.9,0.3,1.9,0.4,2.9c-1,0.7-0.2,1.5,0,2.1c0.5,2,0.5,2,0,4.7c-0.1,0.6,0,1.2,0,1.8
				c-0.2,1.7,0.4,3.5-0.5,5.2c-0.2,0.4-0.2,1.1,0,1.5c0.8,2.2,0.8,4.3,0,6.5c-0.1,0.3-0.1,0.7,0,1c1.1,2.7,0.2,5.5,0.5,8.2
				c0,0.3,0,0.7-0.2,0.9c-0.5,0.6-0.4,1.1,0,1.8c0.3,0.5,0.2,1.1,0.2,1.7c0,3.9,0,7.9,0,11.8c0,1,0.4,2.2-0.5,3.1
				c-0.2,0.2,0,0.7,0,1c0.6,2.3,0.6,2.7,0,5c-0.1,0.6,0.1,1.3,0.2,1.9c0.1,0.8,0.3,1.7,0.2,2.5c-0.1,0.5-0.6,0.9-0.9,1.4
				c0,0,0.1,0.1,0.1,0.1c0.5,2.2,0.4,4.5,0.1,6.7c-0.1,0.4-0.4,0.9-0.2,1.1c0.9,1.2,0.3,2.4,0.5,3.7c1,7.8,0.3,15.6,0.5,23.4
				c0,1-0.3,1.8-1.1,2.4c1.3,0.7,0,1.3,0.1,2.1c0.3,0.2,0.7,0.5,1,0.7c0,2.2-0.1,4.1,0,6.1c0.1,1.3-0.4,2-1.5,2.3
				c0.1,1,0.4,1.8,0.4,2.7c0.1,1.3,0,2.6,0,3.8c0,0.4,0.2,0.9,0.3,1.3c-0.7,0.1-1.3,0.6-0.8,1.3c0.5,0.7,0.4,1.4,0.5,2.3
				c-1.3-0.2-2.7,1.8-3.8-0.5c-1,0.2-2,1.2-3,0.2c-0.2-0.2-0.6-0.1-1-0.1c-1.7,0-3.4-0.1-5.1,0c-1.6,0.1-3.1-0.4-4.7,0.3
				c-0.5,0.2-1.4-0.8-2.1,0.1c-0.6-0.8-1.5-0.4-2.3-0.5c-0.9-0.1-1.7-0.1-2.6,0c-2.1,0.3-3.9-0.4-5.7-1.1c-0.6-0.2-1-0.6-1-1.3
				c0-0.5,0-1,0-1.5c0.4-0.9,2,0.5,2.1-1.3c-0.7,0-1.4,0-2,0c-1.1,0-1.5-0.4-1.6-1.4c-0.2-2-0.9-3.9-1.6-5.7
				c-0.3-0.7-0.5-1.4-0.5-2.1c0.1-0.9-0.1-1.8-0.5-2.6c-1.1-2.5-1.4-5.2-2.8-7.6c-0.2-0.4-0.2-1-0.3-2c0.9,0.6,1.4,1,1.9,1.4
				c0.1-0.1,0.2-0.3,0.2-0.4c-0.4-0.8-0.7-1.6-1.4-2.2c-0.9-0.8-1.5-1.7-1.7-2.9c-0.1-0.8-0.9-1.4-1.2-2.3c-0.3-1,0-2.4-1.3-3
				c-0.1,0-0.1-0.3,0-0.5c0.3-1.8-0.5-3.3-1.2-4.9c-0.3-0.7-0.7-1.5-0.7-2.3c-0.1-2.1-1.4-4-1.2-6.2c0.1-0.9-0.6-1.9-1-2.9
				c-0.7-1.7-0.9-3.5-1.5-5.3c-0.2-0.4-0.2-1-0.5-1.3c-0.9-1-1.2-2.1-1-3.4c0.1-0.6-0.2-1.1-0.5-1.6c-0.3-0.4-0.5-0.9-0.5-1.3
				c0.2-1.3-0.5-2.4-1.1-3.4c-1.2-2.3-1.8-4.9-2.5-7.4c-0.4-1.3-0.8-2.7-0.5-4.1c0.1-0.6,0-1.1-0.5-1.6c-0.5-0.5-0.8-1.2-1.2-2
				c0.4-0.2,0.7-0.3,1.1-0.4c-0.4-0.9-0.3-2.1-1.4-2.7c-0.2-0.1-0.5-0.4-0.5-0.6c0.2-1.8-1.2-2.9-1.6-4.5c0.2-0.2,0.3-0.4,0.5-0.6
				c-1.4-1-1.3-2.7-2-4c-0.5-1-0.8-2.2-1-3.4c-0.2-1.1-1.4-1.3-1.6-2.4c-0.8-0.1-1.6-0.1-2.7-0.2c0.7,1.5,1.1,2.8,1.8,3.9
				c0.5,0.7,0.6,1.2,0.1,2c-0.5,0.7-0.8,1.6-1.2,2.4c0.2,0.5,0.4,1,0.7,1.5c0.5,0.7-0.4,1.1-0.2,1.7c0.1,0.5-0.3,1-0.5,1.7
				c0.5,0.3,1,0.7,1.4,0.9c-0.4,0.8-0.8,1.7-1.3,2.7c0.3,0.3,0.7,0.7,1.1,1.1c0.1,0.1,0.2,0.2,0.4,0.4c0.6,0.7-0.6,1.2-0.2,2
				c0.4,0.6,0.9,1.3,0.7,2.3c-0.2,0.7-0.2,1.5-0.3,2.2c0,0.1-0.1,0.2-0.2,0.4c0.3,0.1,0.5,0.1,0.8,0.2c0.1,0.1,0.2,0.2,0.2,0.4
				c0.3,2-0.6,4,0.5,6c0.1,0.2-0.3,0.7-0.4,1c-0.6,1.6-1,3.1,0,4.7c-0.4,2.3-0.3,4.7,0,7c0,0.4-0.3,0.9-0.6,1.2
				c-0.6,0.6-0.5,1.6-0.3,1.9c0.9,1,0.2,2.1,0.6,3c0.5,1.1,0.4,2.1,0.4,3.2c0,1.3,0.4,2.7-0.5,3.9c-0.2,0.3-0.1,0.9,0,1.3
				c0.4,1.2,0.7,2.2,0,3.5c-0.3,0.5,0.4,1.4,0.4,2.1c0.1,1.8,0.1,3.6,0,5.4c0,0.5-0.3,0.9-0.4,1.4c-0.1,0.3-0.2,0.8-0.1,1
				c0.8,0.9,0.5,1.9,0.5,2.9c-0.1,1,0.4,2-0.4,2.9c-0.1,0.1,0.5,0.9,0.4,1.3c-0.2,1.6,0.5,3.3-0.4,4.9c-0.3,0.5-0.3,1.5,0.1,2
				c0.5,0.8,0.6,1.3,0,2c-0.2,0.2-0.1,0.8,0,1.2c0.9,1.7,0.4,3.1-0.6,4.5c0.8,1.2,1.5,2.3,0.5,3.8c-0.3,0.5,0.1,1.4-0.1,2
				c-0.2,1.3-0.3,2.6-2.2,2.7c-0.8,0.1-1.6,1.3-2.4,0.9c-0.9-0.4-1.6,0.3-2.4,0.1c-0.5-0.1-1,0-1.3,0c-0.5-0.4-1-1-1.1-1
				c-1.3,1-3,0-4.2,1c-0.2,0.2-0.8,0-1.2-0.1c-0.1,0-0.2-0.3-0.4-0.3c-0.6,0-1.3-0.1-1.7,0.2c-0.7,0.5-1.1-0.5-1.7-0.2
				c-0.5,0.2-1.2-0.2-1.6,0.4c-2.1,0-4.2,0.2-6.3,0c-1.9-0.2-1.9-0.4-4,0.1c-1.4,0.3-2.8-0.2-4.1-0.5c-0.3-0.1-0.8-0.8-0.8-1.2
				c0-1.4-0.8-2.6-1-3.9c-0.2-1.3-0.4-2.5-1-3.7c-0.1-0.1-0.2-0.3-0.1-0.5c0.5-1.4,0.9-2.8,0-4.2c0.8-0.7,0.5-1.7,0.5-2.6
				c-0.1-1.2-0.4-2.4-0.5-3.6c-0.1-1.4-0.1-2.7,0-4.1c0-0.9-0.3-1.8,0.4-2.6c0.3-0.4,0.2-1.2,0-1.7c-0.7-1.9-0.6-3.6,0-5.5
				c0.3-0.8,0.5-2-0.4-2.9c-0.2-0.2-0.1-0.8-0.1-1.5c0.8,0.3,1.5,0.6,2.1,0.9c-0.7,1.9-0.7,1.9,0.2,2.4c0.6-2.7,0.4-3.4-1.2-4.3
				c0-0.6,0-1.2,0-1.7c0-0.5,0.1-1.2-0.2-1.4c-0.8-0.7,0.7-1,0.2-1.5c-1.1-1-0.3-1.9,0.1-3c-0.9-0.6-1.1-1.4-1.1-2.5
				c0.1-3.7,0-7.3,0-11c0-0.8-0.2-1.6,0.4-2.4c0.4-0.6,0.4-1.9,0-2.4c-1-1.2-0.4-2.3,0.2-3.2c0.6-0.9,0.5-1.8,0.3-2.6
				c-0.5-2.3-0.5-2.4,0.1-5c0.1-0.5,0.1-1,0-1.5c-0.1-0.7-0.2-1.5-0.5-2.1c-0.4-0.8,0.8-1.3,0.1-2.2c-0.4-0.5-0.1-1.5-0.1-2.3
				c0-0.8-0.1-1.5,0-2.3c0.1-0.8-0.3-1.6,0.3-2.4c0.3-0.4-0.1-1.4-0.4-2c-0.4-0.9,1.1-1.5,0.3-2.5c-0.4-0.6-0.3-1.6-0.2-2.4
				c0.1-1.4-0.2-2.8,0.4-4.2c0.3-0.7,0.5-1.8-0.3-2.6c-0.2-0.2-0.1-0.6-0.1-1c0-2.4-0.2-4.8,0.1-7.2c0.2-1.5,0.7-3,0.3-4.4
				c-0.3-1.2-0.5-2.4-0.4-3.7c0-0.8-0.3-1.7,0.4-2.4c0.1-0.1-0.1-0.6-0.3-0.8c-0.6-0.8,0.3-1,0.5-1.4c0.3,0.5,0.7,1,0.9,1.4
				c2-0.6,0.1-1.7,0.4-2.5h1c0-0.5,0.1-0.9,0-1.2c-0.5-1.3-0.3-2.4,0.7-3.4c0.6-0.6,0.5-1.4,0.1-2c-0.3-0.5-0.8-0.8-1.3-1.3
				c-0.4,0.4-0.9,0.7-0.9,1c-0.1,0.9,0,1.8,0.1,2.7c0,0.3,0.4,0.8,0.3,0.8C977.9,334.4,978.5,335.5,978.4,336.4 M1061.1,449.3
				c-1.2-0.3-2.2-0.5-3.6-0.8c1,1.2,2.2,1.8,2.3,3.2c0.4-0.8,0.8-1.5,1.4-3c-0.1,0.1-0.2,0.2-0.3,0.2c0.1,0.1,0.2,0.2,0.2,0.2
				c0.1-0.1,0.2-0.2,0.2-0.3C1061.4,448.8,1061.3,448.7,1061.1,449.3 M1072.8,238.1v1.4h1.4v-1.4c-0.5,0-1,0-7.4,1
				c1.4-0.7,1.4-0.8,3.8-0.5c1.4,0.2,2-1,3.4-1.5c-0.8-0.3-1.3-0.7-1.8-0.6c-0.9,0.1-1.8,0.6-2.7,0.8c-0.4,0.1-1.1,0.2-1.3,0
				c-1.2-1-2.6-0.8-4-0.8c-0.4,0.4-0.8,0.8-1.3,1.3c0.1,0.1,0.1,0.1,0.3,0.3h3.1C1066.5,238.4,1066.6,238.7,1072.8,238.1 M979,394.9
				c1-0.5-0.2-1.8,0.9-2.1c1.6-0.5-1-1.6,0.3-2.1c0.1-0.8,0.2-1.7,0.2-2.5c-0.1-0.9-0.4-1.7-0.7-2.8c-0.7,0.3-1.2,0.6-1.9,0.8
				c0.9,0.9,0.5,1.8,0.6,2.6c0.1,0.6-0.6,1.1-0.1,1.9c0.4,0.6,0.2,1.8-0.1,2.4C977.4,394.5,978.4,394.5,979,394.9 M978.4,380.9h1.3
				c0.8-2.4,0.6-4.7,0.1-7h-1.4c0,0.9-0.1,1.7,0,2.5c0.1,0.7-0.6,1.1-0.1,1.9C978.7,378.9,978.4,380,978.4,380.9 M979.9,404.4
				c0-4,0-4-1.5-5.4c-0.1,2.2,0.2,4.4-0.1,6.7C978.8,405.3,979.4,404.8,979.9,404.4 M1069.5,342.6c1.4,1.5,3.3,2.1,3.3,4h1.4
				c-0.2-1.1-0.5-2-0.7-3.2c-0.5,0.3-0.8,0.4-1.3,0.7c-0.3-0.7-0.5-1.4-0.8-2.2C1070.8,342.1,1070.2,342.3,1069.5,342.6 M1071.8,339
				c1.1,0.8,1.9,1.4,2.9,2c0.2-1.5-0.2-2.7-1-3.4C1073.2,338.1,1072.6,338.5,1071.8,339 M1023.6,286.6c-0.3-0.6-0.5-1-0.7-1.4
				c-0.8-1.4-1.1-1.5-2.7-0.1h2.2c-0.2,0.6-0.4,1-0.6,1.5H1023.6z M1074.1,334.6c0.4-1,0.8-1.8,1.1-2.6c-0.6-0.2-1.2-0.3-1.8-0.5
				C1072.9,332.5,1073.5,333.4,1074.1,334.6 M979.8,278.6H979v3h0.9V278.6z M1046.8,453.6c-0.9,0.4-1.7,0.9-1.8,2
				C1046.9,455.7,1047.1,455.5,1046.8,453.6 M1019.8,275.6v-2.2c-0.5,0-1,0.1-1.4,0.1C1018.2,274.6,1018.5,275.3,1019.8,275.6
				 M1046.9,285.1c-0.5-0.4-0.9-0.6-1.2-0.9c-0.9,0.6-0.8,1.5-0.6,2.3C1045.6,286.1,1046.1,285.8,1046.9,285.1 M979.2,235.5
				c-0.7,0.6-1.3,1.2-0.5,2.1c0.4-0.1,0.8-0.1,1.5-0.2c-0.3-0.5-0.5-0.7-0.7-1C979.4,236.1,979.3,235.8,979.2,235.5 M1019.6,276.3
				c-0.1,0.5-0.2,0.7-0.2,0.8c0.1,0.2,0.2,0.4,0.4,0.6c0.6,0.5,1.5,0.5,1.6,0c0.2-0.8-0.6-0.5-0.9-0.8
				C1020.3,276.7,1020,276.5,1019.6,276.3 M1054.7,447.7c0.7-0.1,1.3-0.1,1.5-0.3c0.4-0.5-0.2-0.9-0.5-1.2c-0.2-0.1-0.4-0.1-0.8-0.3
				C1054.8,446.5,1054.8,447,1054.7,447.7 M1072.1,350.5v-2.2c-0.4,0.5-0.9,0.9-1.3,1.4C1071.1,349.9,1071.5,350.1,1072.1,350.5
				 M979.3,246.9c-1.4-0.3-0.8,0.7-0.9,1.2c-0.1,0.7,0.2,0.9,0.9,0.6V246.9z M1064.8,340.7c0.4-0.2,1.1-0.3,1.2-0.6
				c0.3-0.8-0.6-0.5-0.9-0.8c-0.2-0.2-0.4-0.3-0.6-0.3c-0.1,0-0.3,0.1-0.4,0.2C1064.3,339.6,1064.5,339.9,1064.8,340.7 M1072,457.4
				c0.4,0.6,0.6,1.1,1,1.7c0.3-0.6,0.6-1.1,0.9-1.7H1072z M979.5,398.1c-1.5-0.8-1.5-0.8-1.4,0.3C978.5,398.4,979,398.3,979.5,398.1
				 M1071.7,239.7c-0.4,0-0.9-0.1-1.4,0c-0.1,0-0.1,0.5-0.2,0.8C1070.9,240.6,1071.7,241,1071.7,239.7 M1066.3,458.9
				c0.3-0.5,1.2-0.7,0.4-1.7c-0.4,0.3-0.8,0.6-1.2,0.9C1065.8,458.4,1066.1,458.6,1066.3,458.9 M979.7,384.2
				c-0.4-0.3-0.6-0.6-0.7-0.6c-0.2,0.1-0.5,0.3-0.6,0.5c0,0.1,0.2,0.5,0.4,0.5C979,384.6,979.2,384.4,979.7,384.2 M1072.5,450.5
				c1.1-0.1,1.1-0.1,1.5-1.1C1073.5,449.8,1073.1,450.1,1072.5,450.5 M980.2,458c-0.4-0.3-0.6-0.6-0.7-0.6c-0.2,0.1-0.5,0.3-0.6,0.5
				c0,0,0.2,0.5,0.4,0.5C979.5,458.3,979.7,458.1,980.2,458 M1076.3,434.1c-0.3,0.1-0.7,0.2-1.3,0.4
				C1076.1,434.9,1076.5,434.8,1076.3,434.1 M1035.2,419.8c-0.1-0.1-0.1-0.2-0.2-0.3c-0.1,0.1-0.2,0.1-0.2,0.2
				c0,0.1,0.1,0.2,0.2,0.3C1035.1,419.9,1035.1,419.8,1035.2,419.8"/>
			<path class="st5" d="M867.1,334.9c0.1-1,1-0.2,1.4-0.6c0.7-0.6-1-1.3,0.1-1.8c-0.2-0.3-0.4-0.7-0.6-1c-0.2-0.3-0.8-0.4-0.9-0.6
				c-0.2-0.6-0.5-1.4-0.3-2c0.2-0.7,0.3-1.1-0.1-1.8c-0.3-0.5-0.2-1.3-0.2-2c0-1.3,0-2.5,0-3.7c0.5-0.3,0.9-0.5,1.3-0.8
				c0.4-0.3,0.4-0.4-0.4-0.6c-0.7-0.2-1.2-1-0.8-1.7c0.5-0.8,0.6-1.2,0-2c-0.3-0.3-0.1-1-0.1-1.5c0-1.4-0.1-2.7,0-4.1
				c0.3-2.6-0.7-5.1-0.5-7.7c0.1-0.7-0.3-1.5,0.5-2.1c0.1-0.1,0.1-0.5,0-0.7c-0.1-0.8-0.7-1.9-0.4-2.3c0.6-0.8,0.4-1.6,0.4-2.4
				c0-0.8-0.5-1.6-0.4-2.3c0.1-1.8,0.3-3.6,0.5-5.4c0-0.2,0.3-0.4,0.4-0.6c0.7-0.6,0.8-1.2,0.2-1.9c-0.1-0.2-0.2-0.5-0.2-0.7
				c0-1-0.1-1.9-0.5-2.9c-0.2-0.6-0.4-1.5,0.3-2.1c0.2-0.2,0.2-0.9,0.1-1.1c-0.5-0.6-0.5-0.9,0-1.5c0.2-0.3-0.4-1-0.4-1.5
				c0-0.5,0.3-1,0.5-1.6c0-0.1-0.3-0.2-0.3-0.4c-0.3-0.7-0.6-1.3-0.2-2.1c0.2-0.3,0.1-0.9-0.1-1.2c-0.8-1.1-0.6-2.5-0.3-3.4
				c0.3-1,0.4-1.9,0.4-2.9c0.1-2.1,0-4.3,0-6.4c0-1,0.2-2.1-0.1-3.1c-0.2-0.9,0.8-1.8,0.1-2.6c1-0.8,0.2-2,0.5-2.9
				c0.2-0.5,0.2-0.9,0-1.4c-0.4-1.4,0.4-2.5,1-3.7c0.6,0.2,1,0.5,1,1.2c0,0.9,0,1.8,0,2.8c1.5-0.4,1.7-0.6,1.5-1.7
				c-0.2-1.2-0.5-2.4-1.1-3.4c-0.4-0.8-0.4-1.2,0-1.9c0.3-0.5-0.5-1.6,0.9-1.6c1.1-2.8,4.2-3.6,6.2-5.5c0.8-0.8,2.4-0.7,3.6-1.1
				c2.3-0.7,3.9-0.7,6.5-0.1c0.5,0.1,1,0.1,1.5,0.1c2.4-0.2,4.8,0.4,7.2-0.4c0.7-0.3,1.7-0.3,2.6,0.4c0.4,0.3,1.5,0.3,2-0.4
				c0.6,0.3,1.3,0.9,1.9,0.9c1.9,0,3.8,0.5,5.6-0.7c0.2-0.1,0.7-0.2,0.8,0c0.4,0.5,0.9,0.3,1.4,0.3c0.9,0.1,1.9-0.4,2.6,0.5
				c0,0,0.2,0,0.3,0c1,0.1,1.9-1.1,3-0.3c1,0.6,2,0.3,3-0.2c0.7-0.3,1.8-0.2,2.4,0.1c0.7,0.4,1.4,0.1,1.9,0.4
				c0.6,0.3,0.8-0.9,1.5-0.2c0.5,0.6,0.8-0.2,1.2-0.3c0.2-0.1,0.5,0.1,0.8,0c1.1-0.4,2.1,1.4,3.2,0.1c1.1,0,2.2,0,3.3-0.1
				c1.2-0.1,2.2,0.3,3.1,1.2c-0.2,0.4-0.3,0.8-0.5,1.4c1.1-0.4,1.2-1.1,1.2-1.8c0.6-0.2,1.2-0.4,1.9-0.6c0,0.1,0.2,0.3,0.2,0.5
				c-0.1,0.8,0.1,1.5,0.9,1.9c1.3,0,1.1-1.2,1.4-2c0.2,0,0.5,0,0.7,0c0,0,2.4,0,2.4,0c0.6,0.1,1.1-0.6,1.9-0.1
				c0.5,0.3,1.3,0.4,2.1,0.1c0.8-0.3,1.8-0.1,2.7-0.1c0.3,1.1,0.6,2.1,0.9,3.1c0.4-0.7,1.8-0.3,1.5-1.8c0.8,1,2,0.5,2.8,1.4
				c0.9,1,1.7,1.9,1.9,3.4c0.2,1.3,0.1,2.8,1.3,3.8c-0.3,1.5,1,2.5,1.2,3.9c0.1,0.5,0.3,1.1,0.3,1.6c0,1.6,0,3.2,0,4.9
				c0,0.7,0.2,1.4-0.4,2.2c-0.3,0.3-0.3,1.3,0,1.7c0.8,1.4,0.3,2.9,0.5,4.4c0.1,0.7-0.3,1.5,0.5,2.1c0.1,0.1,0.1,0.6,0,0.7
				c-0.8,1.1-0.5,2.2-0.5,3.4c0,1,0,2.1,0.4,3.2c0.3,0.9,0.6,2.3-0.3,3.4c-0.2,0.2-0.2,0.9,0,1.2c0.8,1.1,0.5,2.4,0.3,3.4
				c-0.5,2.4-0.6,2.4,0.1,4.7c0.1,0.4,0,0.9,0,1.3c-0.2,2.5,0.4,5-0.5,7.5c-0.2,0.7-0.4,1.7,0.3,2.4c0.1,0.1-0.1,0.6-0.1,0.9
				c-0.1,0.6-0.3,1.3-0.2,1.9c0.2,0.7,0.6,1.4,0,2.2c-0.1,0.2,0,0.7,0.2,0.9c0.4,0.6,0.2,1.1,0,1.8c-0.3,0.9-0.2,2,0.1,2.9
				c0.2,0.6,0,0.8-0.2,1.3c-0.1,0.4,0.3,1,0.4,1.5c0.1,0.5,0.2,1.1,0,1.5c-0.3,0.5-0.6,1-0.5,1.6c0.1,0.9-0.1,1.7,0.4,2.7
				c0.4,0.8-0.4,2-0.4,3.1c0,1,0.7,2.1,0.4,2.8c-0.5,1.1-0.4,2.1-0.4,3.2c0,1-0.3,1.6-1,2c0.6,1.7,1.6,3.3,0.6,5.1
				c0,0.1-0.1,0.2-0.1,0.2c0.9,1-0.1,1.9,0,2.9c0.1,1,0.3,2.1,0.5,3.1c0.2,1,0,2,0.4,3.2c0.6,1.5,0.5,3.4,0.6,5.1
				c0.1,0.9-0.2,1.7-1.4,2.5c0.1-0.1,0.6-0.4-0.1-1c1.4-2.2-0.2-4.5-0.1-6.7c0-0.2-0.4-0.5-0.7-0.8c-1.2,1.4-0.9,2.8-0.4,4.2
				c0.3,0.8,0.3,1.3,0.2,2.6c-0.1,0.8-0.1,1.5,1.1,1.7c0.6,0.5,0.8,1.2,0.9,1.9c0.1,0.8,0,1.5,0,2.3c0,0.6,0,1.2,0.3,1.9
				c0.3,0.8,0,1.9,0,2.9c-0.1,0.9,0,1.9-0.3,2.7c-0.4,0.9-0.3,1.5,0,2.4c0.3,0.9,0.3,2.1-0.2,3.2c-0.3,0.7-0.1,1.6,0,2.4
				c0,0.5,0.4,1,0.3,1.4c-0.9,2.2-0.3,4.5-0.5,6.7c-0.1,1,0.1,2.1-0.4,3.2c-0.4,0.9,0,2.1,0.2,3.2c0.3,2.2,0.4,4.5-0.1,6.7
				c-0.1,0.3-0.2,0.6-0.2,0.9c0,1.2-0.3,2.6,0.2,3.5c0.8,1.3-0.6,2.1-0.3,3.3c1,3,0.4,6.2,0.5,9.3c0.1,3.1,0.3,6.2-0.1,9.2
				c-0.4,2.9-0.4,5.8-0.4,8.8c0,0.8,0.1,1.5,0.3,2.3c0.2,0.5-0.7,1.2-0.8,1.9c-0.2,0.8,0.5,1.5,0.5,2.3c-0.1,2.6,0,5.1-0.1,7.7
				c0,1.5-0.3,2.9-0.5,4.4c-0.2,1.4-1,2.6-1.2,3.8c-0.3,1.6-1.8,2.8-1.3,4.6c-1.2,1.1-0.9,3.2-2.7,4c-0.7,0.3-1.2,0.8-1.8,1.3
				c-0.5,0.4-0.7,1-1.2,1.4c-1.2,0.9-2.5,1.7-3.8,2.5c-0.2,0.1-0.7-0.2-1.1-0.4c-0.4,0.6-1.1,1.1-2,1c-1.5-0.1-2.9,0.8-4.4,0.5
				c-0.7-0.2-1.4,0-2.2-0.4c-0.7-0.4-1.9-0.3-2.7,0.1c-0.7,0.3-1.3,0.1-1.9,0.3c-1.1,0.4-1.8-0.8-3-0.2c-0.9,0.4-2.1,0.2-3.2,0.2
				c-1,0-2,0-3.1,0c-1.1,0-2.2,0-3.3,0c-1,0-2-0.2-3-0.2c-1,0-2,0.2-3,0.2c-1.1,0-2.2,0-3.3,0c-1,0-2.1,0-3.1,0
				c-0.8,0-1.6-0.2-2.4-0.2c-0.8,0-1.5,0.2-2.3,0.2c-0.9,0-1.7,0-2.6,0c-0.9,0-1.7,0-2.6,0c-1.4,0-2.8,0.1-4.2,0.4
				c-2.1,0.5-4.3-0.2-6.3-0.7c-0.7-0.2-1.2,0.6-2,0.2c-0.5-0.3-1.1-0.6-1.7-0.7c-0.7-0.2-1.5-0.1-2.2-0.3c-0.4-0.1-0.7-0.3-1.1-0.5
				c-1.6-0.8-3-2.2-4.8-2.6c-0.2,0-0.3-0.1-0.4-0.2c-0.6-0.5-1.3-1-1.6-1.6c-0.5-1.2-1.9-1.5-2.4-2.8c-0.7-1.5-0.9-2.7,0.6-4.2
				c-0.9,0.1-1.5,0.2-2.3,0.3c-0.5-0.6-1.2-1.5-1.9-2.4c-0.6-1,0.2-1.5,0.9-2.2c-0.4-0.1-0.8-0.1-0.8-0.2c-0.6-1.7-1.8-3.2-1-5.2
				c0.5-1.3,0.2-2.8,0.3-4.3c0.3-0.3,0.6-0.6,1-1c-0.4-0.2-0.8-0.5-1.3-0.7c0.3-0.4,0.5-0.6,0.7-0.8c-0.3-0.1-0.6-0.2-0.9-0.3
				c-0.1-0.1-0.1-0.3-0.1-0.4c0-0.9-0.1-1.7,0-2.6c0.1-1-0.2-1.9,0.4-2.9c0.3-0.4,0.2-1.4-0.1-1.9c-0.4-0.6-0.6-1,0-1.5
				c0.1-0.1,0.1-0.4,0.1-0.5c-0.9-1.5,0.2-2.9,0.1-4.5c-0.2-1.6,0-3.2,0-4.9s0.1-3.2,0-4.9c0-0.7-0.4-1.4-0.5-2.1
				c-0.1-0.7-0.3-1.5,0-2c0.5-1,0.5-1.9,0.4-2.9c0-0.6-0.1-1.3-0.3-1.9c-0.3-1,0-2.3,0.1-3.4c0.1-0.7,0.5-1.7,0.2-2.2
				c-0.6-1-0.4-1.9-0.4-2.9c0-2.6-0.1-5.1,0-7.7c0-1.4,0-2.7,0.4-4.2c0.3-1.5,0.6-3.3-0.4-4.9c-0.2-0.3,0.7-6.4,0.9-7
				c0-0.1-0.1-0.2-0.1-0.4c-0.2,0-0.3,0-0.5,0c-0.1-0.1-0.2-0.3-0.2-0.4c0-3.9,0-7.9,0-11.8c0-0.6,0-1.2,0.4-1.9
				c0.4-0.6,0.2-1.7,0.1-2.5c-0.5-2.5-0.5-2.5,0-4.7c0.1-0.4,0-1-0.2-1.2c-1-0.7-0.8-1.6-0.8-2.5c0-1.4,0-2.7,0-4.1
				C866.6,335.3,866.9,335.1,867.1,334.9c0.1,0.4-0.3,1.1,0.6,1c0.2,0,0.4-0.3,0.4-0.4C868.2,334.6,867.5,335,867.1,334.9
				 M926.7,427.3c-2,0-2.1,0.1-1.6,1.4c0.1,0.2,0.1,0.5,0.3,0.5c0.2,0,0.6,0,0.7-0.2c0.3-0.5,0.4-1-0.9,0.6c0-0.1,0-0.3,0-0.4
				c-0.3,0.1-0.7,0.1-1,0.2c0,0.1,0,0.2,0,0.3C924.4,429.6,924.7,429.6,926.7,427.3 M919.7,263.7c-1.2,1.6-2.1,1.8-3.8,1.3
				c-0.3-0.1-0.7-0.3-0.9-0.2c-1.3,0.9-2.8,0.2-4.2,0.4c-0.4,0-1.1-0.6-1.3-0.4c-1.3,1-2.8,0.5-4.2,0.4c-0.9-0.1-1.7,1.5-2.6,0.1
				c-0.8,0.4-1.4,1.6-1,2.5c0.4,0.9,0.5,1.8,0,2.6c-0.3,0.6-0.3,1,0,1.6c0.2,0.4,0.3,1,0.2,1.4c-0.1,1.7,0.5,3.5-0.5,5.2
				c-0.1,0.2-0.1,0.6,0,0.7c0.9,0.8,0.5,1.7,0.5,2.6c0,4.5,0,9,0,13.6c0,1.6-0.4,3.2,0.5,4.7c0.2,0.3,0.2,1,0,1.2
				c-0.7,0.6-0.3,1.3-0.5,1.9c-0.2,0.8-0.2,1.6,0,2.4c0.2,0.9,0,1.9,0,2.8c0.1,1.3-0.3,2.6,0.5,3.9c0.3,0.4,0.3,1.4,0,1.7
				c-0.7,0.9-0.4,1.8-0.4,2.6c-0.1,2-0.1,3.9,0,5.9c0.1,2,0.4,3.9,0.6,5.8c-0.5,0.5-0.8,0.8-1.1,1.1c0.1,0.2,0.4,0.5,0.4,0.7
				c-0.2,5.1,0.6,10.3-0.6,15.3c-0.3,0.1-0.6,0.2-1.1,0.4c0.4,0.1,0.8,0.1,0.8,0.3c0.4,1,1.3,1.8,0.7,3c-0.1,0.3-0.2,0.6-0.2,0.9
				c0.3,1.7,0.3,1.7-1.1,2.5c1,0.5,1.5,1.2,1.6,2.4c0.1,1.3-0.8,2.6-0.1,4c0.1,0.3-0.6,1.1-0.4,1.3c0.7,0.6,0.4,1.4,0.5,2.1
				c0,1.5,0,2.9,0,4.4c0,1.5,0,3.1,0,4.6c0,1.4,0.5,2.8,0.2,4c-0.3,1.5-0.1,3-0.2,4.5c0,0.5,0.1,1.1-0.1,1.5
				c-0.6,1.2-0.4,2.3-0.1,3.5c0.3,1.2,0.4,2.6-0.1,3.7c-0.3,0.9-0.5,1.7-0.2,2.4c0.9,2.7,0.3,5.3,0.5,8c0,0.4,0.2,1,0,1.3
				c-0.9,1-0.4,2.1-0.4,3.1c0,1-1,1.9,0,2.9c-0.2,2.7,0.9,5.3,0.5,8c-0.1,1,0.3,2.3-0.1,3c-0.6,1.1,0.1,1.8,0.1,2.7
				c0,0.5-0.3,0.9-0.5,1.3c-0.7,1.5-1.2,3.2-0.3,4.7c0.5,0.1,0.9,0.1,1.2,0.3c0.7,0.4,1.3,0.5,1.7-0.2c0.5-0.7,0.9-0.1,1.4-0.1
				c0.8,0,1.7,0.4,2.4-0.5c1.9-0.3,3.8-1,5.7,0c1,0.5,2.3-0.4,3.4,0.5c0,0,0.2-0.1,0.4-0.2c2.4-0.7,4.5-0.1,6.3,1.2
				c1-0.7,1.9-1.3,2.8-2c0.6,0.3,1.1,0.6,1.7,0.9c-0.2,0.8-0.5,1.4-0.7,2.1c1.4-0.8,1.5-2.4,1.5-3.5c0-1.4-0.9-2.8-1.5-4.2
				c-0.1-0.2-0.6-0.2-1.1-0.3c0.7,2,0.7,2-0.3,2.7c0-1.3-0.9-2.3-0.7-3.6c0.1-0.3,0-0.7-0.1-1c-0.2-0.4-0.8-1-0.7-1.1
				c0.7-0.6,0-1-0.1-1.5c-0.2-0.5,0-1.2,0.2-1.7c0.5-1.1,0.5-2.3,0.2-3.2c-0.5-1.3-0.4-2.4-0.4-3.7c-0.1-1.5,0-3.1,0-4.6
				c0-0.6,0.1-1.1-0.4-1.7c-0.1-0.1,0.6-1,0.9-1.5c0.1-0.2,0.1-0.6,0-0.7c-0.7-0.7-0.2-1.4,0.1-1.8c0.6-0.8,0.5-1.5,0.2-2.3
				c-0.2-0.4-0.4-1-0.2-1.1c0.9-0.8-0.5-1.5,0-2.2c-0.5-0.4-0.7-0.8-0.2-1.5c0.2-0.2-0.2-1-0.3-1.5c0-0.1,0.2-0.4,0.3-0.4
				c1.2,0,0.9-0.9,0.6-1.4c-0.5-0.8-0.2-1.5-0.1-2.3c0.1-1.3,1.3-1.5,1.8-2.2c-1.8-1.6-2.6-3.6-2.6-5.9c0-1.5,0.2-2.9,0-4.3
				c-0.2-1.3-0.4-2.6,0-3.9c0.1-0.4-0.2-0.8-0.4-1.3c0.5-0.6,1.5-1,0.1-2.2c0.5-0.5,1-1,1.5-1.5c-1,0-1.3-0.8-1.3-1.8
				c0-2.9,0-5.8,0-8.7c0-0.9,0-1.7,0-2.6c0-0.6,0.2-1.1,0.4-1.6c0.2-0.5-0.3-1.2-0.4-1.8c0-0.1,0-0.2,0-0.3c0-0.8,0-1.5,0-2.3
				c0-0.8-0.2-1.6-0.2-2.5c0-0.7,0.2-1.3,0.2-2c0-3,0-6,0-9c0-0.6,0.2-1.2-0.5-1.6c0.6-0.6,0.5-1.2,0.2-2c-0.2-0.6,0.2-1.5,0.3-2.3
				c0.1-1.1,0.3-2.3-0.1-3.3c-0.4-1.1,0.4-1.9,0.1-2.9c-0.2-0.8-0.1-1.7,0-2.6c0-0.7,0.5-1.5,0.3-2c-0.5-0.8-0.2-1.6-0.3-2.5
				c-0.1-1.3,0-2.6,0-3.8c0-0.7,0.3-1.2,0.6-1.4c0.6,0.9,1,1.7,1.5,2.5c0.4-0.9,0.5-1.8,0.2-2.5c-0.3-0.5-1.2-0.6-1.9-1
				c0.1-2.1-0.2-4.1-0.4-6.2c-0.3-2.1-0.1-4.3,0-6.4c0-0.6-0.6-1.1-0.1-1.9c0.4-0.5,0.1-1.5,0.1-2.3c0-0.5,0.2-1.1,0-1.5
				c-0.7-1.4-0.4-2.7-0.1-4.2c0.2-1.2,0.7-2.4,0.6-3.6c0-0.7,0-1.5-0.2-2.2c-0.2-0.7,0.6-1.3,0.3-2c-0.2-0.4-0.3-0.9-0.5-1.3
				c-0.3-0.8-0.8-1.5-0.1-2.4c0.2-0.3,0.1-0.9,0-1.2c-0.1-0.3-0.4-0.4-0.2-0.9c0.4-0.9,0.5-2,0.7-2.9c-0.7-0.7-1.3-1.3-2-2
				C921,264.2,921,264.2,919.7,263.7 M915.7,427.6c0.4,1.9,1.8,1.8,2.6,1.5c0.9-0.3,1.4,0,2,0.3c-0.2,0.3-0.4,0.7-0.6,1
				c0.5,0.2,0.8,0.4,1,0.5c-0.1,0.5-0.3,0.9-0.5,1.5c1.8-1,2.6-2.4,3.3-3.9c-1-0.7-1.7-1.5-3.2-0.9
				C919.1,428,917.4,427.6,915.7,427.6 M927.6,272.7c0.2-1.4-0.8-2.7-0.5-4.1c0-0.1-0.3-0.4-0.5-0.5c-0.1-0.1-0.2-0.1-0.4-0.1
				c-0.3,0.3-0.5,0.6-0.7,0.9c0.7,0.8,0.6,1,0.6,2.3c0,0.9-0.3,1.8,0.4,2.6c0.2,0.3-0.2,1.1-0.3,1.7c1.2,0.2,2.4,0.1,3.3-0.8
				C928.9,274,928.3,273.3,927.6,272.7 M900.2,280.7c0.2-0.8,0.7-1.6,0.5-2.1c-0.4-0.8-0.2-1.6-0.3-2.4c-0.1-0.7,0-1.5,0-2.3
				c-0.8,0-1.4,0.1-2.2,0.1c0.3,0.7,0.5,1.2,0.9,1.9c-0.4,0.3-0.8,0.5-1.2,0.8c0.4,0.4,0.7,0.7,1,1
				C898.9,279.8,898.9,279.8,900.2,280.7 M899.9,291.7c0-1.6,0-2.8,0-4c0-0.8-0.3-1.2-1-1.5c-0.3-0.1-0.6-0.3-1.2-0.5
				c0.2,1.7,0.3,3.3,0.6,4.8C898.5,290.9,899.2,291.1,899.9,291.7 M896.8,356.1c0,1.2,0.4,2.2,1.1,3.1c0.1,0.1,0.2,0.1,0.4,0.1
				c0.1-0.5,0.2-1,0.2-1.4c0.5,0,0.9,0,1.4-0.1c-0.1-0.9,0.3-1.8-0.6-2.4C898.3,354.9,897.7,356,896.8,356.1 M927.5,348.3
				c0.1-1.1,0-2.2,1.1-2.9c0-0.1-0.1-0.1-0.1-0.2l-1.8-0.2c-0.2-1.2-0.2-1.2-1-1.3C925.5,346.4,925.9,347.4,927.5,348.3
				 M924.5,235.9h3.4c0.6-0.6,1-1.1,1.4-1.5c-1-0.6-1.8-0.7-2.2-0.3c0.2,0.2,0.3,0.4,0.7,0.7C926.5,235,925,233.5,924.5,235.9
				 M914.7,429.1c-0.9-0.3-1.7-0.8-3-1.7c-0.3-0.2-0.9-0.4-1.1-0.3c-0.7,0.4-1.4,0.8-1.5,1.9H914.7z M931.2,425.4
				c-1.2,0.3-1.7,0.8-1.5,1.7c0.1,0.7,0.5,1.2,1.5,0.9v-1.4V425.4z M900.3,427.2c0.8,1.4,0.8,1.4,2.2,1.2
				C901.9,427.3,901.9,427.3,900.3,427.2 M918.6,260.8c2.4,0.4,2.5,0.4,2.7-1.4C920.4,259.9,919.6,260.3,918.6,260.8 M899,270.2v1.7
				c0.5,0,1-0.1,1.7-0.1c-0.3-0.5-0.5-0.9-0.8-1.2C899.7,270.4,899.4,270.4,899,270.2 M904,429.4c1.1,0.8,1.1,0.8,2,0
				C905,428.6,905,428.6,904,429.4 M931.1,310.8c0.3-0.9,0.2-1.5-0.8-2v2H931.1z M868.7,339.3c1.2,0.1,1.2,0.1,1.4-0.7
				C868.9,338.5,868.9,338.5,868.7,339.3 M915.7,432.2c-0.2-0.4-0.4-0.8-0.6-1.2c-0.4,0.6-1.3,0.9-0.6,1.5
				C914.7,432.8,915.4,432.3,915.7,432.2 M956.1,262.9c0.8,0.3,1.4,0.6,1.7-0.1c0.1-0.1-0.1-0.4-0.2-0.6
				C957.2,262.4,956.7,262.6,956.1,262.9 M873.1,378.2c0.3-0.4,0.6-0.6,0.6-0.7c-0.1-0.2-0.3-0.5-0.5-0.6c-0.1,0-0.5,0.2-0.5,0.4
				C872.8,377.5,872.9,377.8,873.1,378.2 M958.1,246.2c-0.4-0.2-0.7-0.4-0.9-0.4c-0.1,0-0.4,0.4-0.4,0.5c0.2,0.2,0.4,0.4,0.6,0.5
				C957.6,246.8,957.8,246.5,958.1,246.2 M929.7,302.3c-0.3,0.4-0.5,0.6-0.6,0.8c0,0.1,0.2,0.3,0.4,0.5c0.2-0.2,0.5-0.3,0.6-0.5
				C930.2,303,930,302.8,929.7,302.3 M958.2,284.2H958v1h0.3V284.2z"/>
			<path class="st5" d="M847.9,338.4c-0.4,0.1-1.2,0.4-0.8,1c0.5,0.8,0.1,1.4-0.1,1.9c-0.3,0.6-0.6,0.8-0.1,1.5
				c0.4,0.4,0.3,1.1-0.3,1.6c-0.3,0.3-0.5,0.8-0.7,1.2c-0.8,1.8-1.9,3.4-3.2,4.9c-0.9,1-2.1,0.9-2.8,1.9c-0.3,0.4-0.8,0.6-1.1,0.9
				c-0.6,0.6-0.6,1.5,0.1,1.9c2.2,1.2,3.6,3.3,5.4,4.9c2.1,1.8,3.7,3.9,4.9,6.4c0.3,0.6,0.7,1.2,1.1,2c-1.2,0.3-2.4,0.6-3.7,1
				c-0.7,0.9,0.8,1.4,0.4,2.4c1.2-0.6,1.5-2,3-1.5c0.8,1.5,1.1,3,0.4,4.6c-0.1,0.2-0.2,0.6-0.1,0.7c0.9,0.9,0.4,1.9,0.5,2.9
				c0.1,2.7,0.1,5.5,0,8.2c0,2.1,0.9,4.1,0.5,6.2c-0.1,0.7,0.1,1.4-0.4,2.2c-0.4,0.5-0.4,1.6-0.1,2.2c0.8,2,0.3,4,0.5,6
				c0,0.3,0.2,0.8,0,1c-1.3,1.3,0.1,2.5,0.1,3.7c0,0.5,1,1.3,0.8,1.6c-0.9,1.5,0.2,3.2-0.5,4.6c-0.4,0.7,0.1,1,0.1,1.4
				c0,1.3,0.5,2.7-0.3,4c-0.2,0.3-0.2,0.6-0.2,1c0,1.8,0,3.6,0,5.4c0,0.2,0,0.4,0,0.5c0.3,0.9,1.1,1.9,0.9,2.6
				c-0.2,1-0.4,1.9-0.4,2.9c0,1,0,2,0,3.1c0,1.2,0,2.4,0,3.6c0,1.1,0.1,2.1-0.5,3.1c-0.5,0.9-0.4,1.7,0,2.7c0.6,1.5,0.9,3.1,0,4.7
				c-0.2,0.3,0,0.8,0,1.3v4.3l-0.3,0.1c-0.1-0.3-0.2-0.5-0.4-1c-0.4,0-0.8,0-1.2,0c-0.7,0.1-1.2,0.5-1.2,1.3c0,0.3,0,0.7,0,1
				c-0.1,1-0.2,2.1-0.3,3.2c0.3,0.1,0.8,0.1,1.3,0.2c-0.5,0.4-0.9,0.7-1.7,1.4c-4.3,0-9.2,0.1-14.2,0c-2.3-0.1-4.7,0.6-7-0.5
				c-0.9,0.7-1.9,0.4-2.9,0.5c-0.7,0.1-1.3-0.1-1.8-0.5c-1.3-1.2-2.5-2.4-3.6-3.7c-0.2-0.3-0.8-0.6-0.1-1.2c0.2-0.2,0.2-0.9,0-1.2
				c-0.6-1-0.2-2.2-0.6-3.1c-0.4-1.1-0.3-2.1-0.5-3.1c-0.2-0.7-0.8-1.2,0-1.9c0.1-0.1,0.1-0.6,0-0.7c-0.9-1.2-0.4-2.6-0.5-3.9
				c0-1.2-0.4-2.5,0.5-3.6c0.2-0.2,0.1-0.7,0-1c-0.2-1-0.7-2.2-0.4-3.1c0.4-1.1,0.4-2.1,0.4-3.1c0-1,0.1-1.9-0.4-2.9
				c-0.4-0.7,0.1-1.8,0.2-2.7c0-0.3,0.4-0.7,0.2-0.9c-0.8-1.1,0.7-2.3-0.3-3.3c-0.2-0.2-0.2-0.6-0.2-0.9c-0.2-1.7,0.4-3.5-0.5-5.2
				c-0.1-0.2-0.1-0.6,0-0.7c0.9-1,0.7-2.3,0.4-3.1c-0.7-2-0.2-4-0.4-6c-0.1-0.9,0.4-1.9-0.4-2.6c1.2-1.9-0.3-4.3,0.9-6.2
				c0.2-0.3,0-0.9-0.2-1.2c-0.6-1-0.2-2-0.3-2.9c1.1-0.8,0.2-1.6-0.1-2.5c1.2-1,1.4-2.1,0.7-3.5c-0.3-0.6-0.1-1.5-0.2-2.2
				c-0.2-1.3,0.4-2.7-0.3-4c-0.6-1.1,0.4-2.5-0.5-3.6c-0.1-0.1-0.1-0.6,0-0.7c0.9-0.8,0.2-1.8,0.6-2.7c0.4-0.1,0.9-0.1,1.6-0.2
				c-0.7-1.2-1.4-2.3-2-3.5h-2.3c0.1-0.6,0.2-1.2,0.4-1.8c-1.2-1.2-2.9-1.5-4.9-1.1c0.2,0.2,0.4,0.4,0.4,0.5c0,0.3-2,1.9-2.2,1.9
				c-0.9,0-1.7,0-2.5,0c-0.9-2.1-2.4-0.6-3.7-0.6c-0.4-0.9,0.2-1.4,0.9-1.4c1,0,1.7-0.4,2.8-0.9c-2-0.4-3.6-0.3-4.8,1.1
				c-0.7,0.9-1.5,0.8-2.5,0.6c-0.1-0.5-0.1-0.9-0.1-1.3c-0.1,0-0.3,0-0.4,0.1c-0.4,0.3-0.8,0.8-1.2,0.8c-1.2-0.1-1.8,0.5-2.4,1.4
				c0.3,0.1,0.6,0.2,0.9,0.3c-0.3,1.3-2.3,0.4-2.5,2.1c1.2,0.7,2.1,1.9,2.6,3.5c-0.3,0.3-0.7,0.7-1,1.1c0.3,0.3,0.6,0.6,0.8,0.8
				c-0.1,0.7-0.4,1.4-0.2,1.8c0.9,1.6,1,3.3,0.9,5c-0.1,1.6,0.4,3.3-0.5,4.9c-0.3,0.5,0.5,1.2,0.4,1.3c-0.9,1.2,0.2,2.3,0.1,3.5
				c-0.1,1.3,0.3,2.7-0.1,3.8c-0.4,1.3-0.4,2.6-0.4,3.9c0,0.7-0.2,1.4,0.4,2.2c0.2,0.3-0.5,1.2-0.4,1.8c0.1,1.1,0.7,2.2,0.5,3.4
				c-0.2,1,0.1,2.1-0.4,3.2c-0.4,0.9,0.1,2.1,0.2,3.2c0,0.3,0.3,0.6,0.2,0.9c-0.1,0.9-0.5,1.7-0.4,2.6c0,0.8,0.4,1.5,0.7,2.4
				c-0.7,0.1-1.1,0.2-1.7,0.3c0.3,0.6,0.5,1.1,0.8,1.7c-0.4,0.3-0.9,0.6-1.4,0.9c0,0.7,0.1,1.4,0,2.1c-0.1,0.5-0.4,1-0.6,1.8h3.3
				c-0.9,0.6-0.9,0.6-1.9,0.6c-0.8,0-1.2,0.5-1.3,1.3c0.3,0.1,0.6,0.2,1,0.3v4.8c0.5,0.1,1,0.2,1.6,0.3c-0.1,1.8,0.4,3.6-1.1,5.3
				c0.4,0.2,0.8,0.5,1.3,0.8c-1.6,0.5-1.5,1.9-2.3,2.7c0.3,0.3,0.6,0.6,1.1,1.1c0.2-0.6,0.4-0.9,0.5-1.3c0.1,0,0.3,0.1,0.3,0.1
				c0.2,0.3,0.5,0.7,0.5,1.1c0,3.2,0,6.3,0,9.5c0,0.6-0.6,1.5-0.4,1.8c0.5,0.6,0.4,1.3,0.4,1.9c0,1.9-0.4,2.1-2.2,1.6
				c-0.5-0.1-1-0.1-1.6-0.2c-0.5,0.6-0.9,1.2-1.1,1.4c-2,0.6-3.7-0.4-5.1,0.7c-0.1,0.1-0.7-0.5-1-0.4c-1.3,0.1-2.6-0.3-4,0.3
				c-0.5,0.2-1.2,0-1.9-0.1c-0.6-0.1-1.4-0.4-1.6-0.2c-0.7,0.8-1.7-0.7-2.3,0.5c0,0.1-0.4,0.1-0.5,0c-0.8-1.5-2-0.3-3-0.5
				c-1.2-0.2-2.6-0.5-3.5,0.1c-1.3,0.8-2,0-3-0.3c0.2-0.6,0.4-1.1,0.7-1.8c-1.2,0.2-2.1,0.4-3,0.6c-0.2,0.1-0.2,0.6-0.4,0.8
				c-1.1-0.5-1-1.4-0.8-2.3c0.1-0.6,0.5-1.2,0.7-1.8c0.3-0.7,0.7-1.5-0.6-1.6c-0.2-0.8-0.6-1.7-0.7-2.5c-0.1-1.7-0.1-3.4,0-5.1
				c0-0.4,0.3-0.7,0.3-1.1c0.1-0.7,0.4-1.4-0.2-2.1c-0.7-0.7-0.5-1.6-0.1-2.3c0.4-0.9,0.5-1.7,0.5-2.6c0-0.8-0.2-1.4-0.6-2.1
				c-0.5-0.8-1.4-1.8-0.4-3c0.2-0.2,0-0.7,0-1v-0.9c0.2-0.1,0.2-0.2,0.3-0.2c0.3,0,0.7,0,1,0c0.9,1.3-0.8,2.4-0.2,3.5
				c0.6,1.1,0.4,2.3,0.5,3.2c0.5,0.5,0.9,0.9,1.3,1.3c0.9-1.1,1.5-2.5,1.2-4.2c-0.1-0.4-0.4-0.7-0.5-1.1c-0.1-0.7,0-1.4,0-2.1
				c-0.3-0.2-0.7-0.3-1.1-0.5c0-0.8,1.1-1.4,0.2-2.4c-0.6,0.9-2.1,0.2-2.5,1.8c-0.5-1.4,0.5-3.1-1.2-3.9c0.4-1.3,2.5-0.3,2.6-2.1
				c-0.3-0.2-0.7-0.3-1-0.5c0.1-0.9,0.2-1.8,0.5-2.6c0.4-1-0.8-1.8-0.3-2.8c0.4-0.8-0.8-1.6,0.2-2.6c0,0,0.4-0.1,1-0.4
				c-0.6-0.6-1-1-1.3-1.4c0.2-0.7,0.4-1.4,0.5-2.1c0.2-1.6-0.3-3.3,0.5-4.9c0.2-0.3-0.1-0.9-0.2-1.4c-0.1-0.4-0.3-0.8-0.2-1.2
				c0.2-1.4-0.3-2.8-0.5-4.1c-0.2-1-1-1.9,0-2.9c0.1-0.1,0.1-0.6,0-0.7c-0.8-0.6-0.3-1,0-1.7c0.2-0.4-0.4-1-0.4-1.6
				c0-0.3,0.4-0.9,0.6-1c1-0.1,0.8-1.1,1.4-1.5c-1-1.7-1-1.7-1-3.8c0-3,0-6,0-9c0-0.7-0.5-1.4-0.5-2.1c0.1-1.2-0.7-2.4-0.1-3.7
				c0.3-0.7-0.4-1.7-0.4-2.6c0-1-0.6-1.9-0.1-2.9c0.1-0.3-0.3-0.9-0.5-1.2c-1,0.5-1.9,1-2.9,1.4c-0.8-1.2-2-2.3-0.7-3.9
				c0.2-0.3,0.2-1,0-1.2c-1-1.2,0.1-2.8-1-4c-0.2-0.2,0.1-0.8,0.2-1.1c0.3-1.2,0.5-2.5-0.1-3.6c-0.6-1.2,0.5-2.7-0.7-3.8
				c0.1-0.1,0.1-0.1,0.2-0.2c1-1.4,1.1-2.8,0.4-4.3c-0.2-0.3-0.2-0.9,0-1.3c0.8-1.3,0.3-2.8,0.6-4.1c0.4,0,0.8-0.1,1.3-0.1
				c-0.4-0.9-0.8-1.8,0.3-2.4c1.3,0.1,0.9,2.4,2.8,1.9c-0.1-0.5,0.7-1.3-0.5-1.5c-0.2,0-0.4-0.5-0.4-0.8c0.1-0.8,0.4-1.5,0.6-2.4
				c0.5,1.2,0.9,2.2,1.4,3.2c1.3-1.3,1.3-1.4,1.1-3c-0.1-0.5,0.1-1.1,0.2-1.7c0.5-1.9,0.5-3.7-0.7-5.4c0.4-0.4,0.7-0.8,1.1-1.2
				c-0.2-0.3-0.2-0.6-0.3-0.6c-1.7-0.4-2.3-0.9-1.8-2.2c0.7-1.6,0.8-3.1,0-4.7c-0.1-0.2,0.1-0.5,0.2-0.7c0.1-0.5,0.4-1.1,0.3-1.4
				c-1-1.3-0.4-2.6,0.2-3.6c0.4-0.6,0.5-1.2,0.3-1.6c-0.8-1.5-0.3-3.1-0.5-4.7c-0.1-0.6-0.3-1.1-0.3-1.7c-0.1-0.6,0-1.3,0-1.9
				c0-0.1,0.3-0.3,0.3-0.4c-0.1-0.9-0.6-1.8-0.3-2.6c0.3-0.9,0.5-1.6-0.1-2.5c-0.2-0.3-0.2-1,0-1.2c0.9-0.7-0.7-1.9,0.5-2.5
				c-0.1-0.9,0.3-1.8-0.4-2.6c0.9-0.5-0.1-1.2,0.1-1.6c0.4-0.9,1.1-1.7,0.8-2.7c-0.2-0.9-0.8-1.8-0.8-2.7c0-0.7,0-1.5,0-2.3
				c0-0.5,0.4-0.9,0.3-1.4c-0.1-0.8-0.6-1.7-0.4-2.3c0.3-0.8,0.5-1.6,0.4-2.4c-0.1-1.5-0.4-2.9-0.5-4.4c0-0.7-0.3-1.5,0.4-2.2
				c0.2-0.2,0.3-0.9,0.1-1.2c-1.1-1.7,0-3.2,0.4-4.8c0.1-0.3,0.3-0.7,0.1-0.9c-0.9-1.4-0.3-2.9-0.5-4.4c-0.1-1,0.4-2.2-0.5-3.1
				c-0.2-0.2-0.1-0.7,0-1c1-2.4,0.3-4.8,0.5-7.2c0.1-0.8-0.2-1.6,0.4-2.4c0.3-0.3,0.2-1.3-0.1-1.6c-0.5-0.7-0.1-1.4-0.3-1.9
				c-0.3-0.7,1.2-0.9,0.4-1.8c-0.3-0.3-0.3-1.1-0.3-1.6c-0.1-0.7,0-1.4,0-2c0-0.3-0.3-0.5-0.5-0.8c0.3-0.1,0.5-0.1,0.9-0.2v-3.4
				c1.3,0.2,2.2,1.1,3.6,0.5c1.1-0.5,2.6,0.1,3.9-0.6c3.2,1.1,6.5,0.3,9.8,0.5c0.6,0,0.9,1.1,1.8,0.4c0.5-0.4,1.4-0.3,2.1-0.3
				c0.7,0,1.3-0.4,1.8-0.5c1.6-0.2,3.2-0.1,4.9-0.1c0.4,0.5,0.7,1,1.1,1.6c0.2-0.2,0.3-0.4,0.4-0.4c2.7-0.2,5.3-1.2,8.1-0.5
				c0.4,0.1,1-0.2,1.5-0.2c3.2,0,6.5,0,9.7,0c0.4,0,0.8,0.2,1.2,0.3c0.6,0.1,1.3,0.2,1.9,0c1.3-0.5,2.5-0.4,3.8,0
				c0.8,0.3,2,0.4,2.7,0.1c0.9-0.4,1.6-0.5,2.5,0c0.5,0.2,1.2-0.1,1.9-0.1c0.7-0.1,1.6-0.4,2.2-0.2c1.5,0.6,2.7,0.4,4.2,0
				c1.1-0.3,2.4-0.4,3.6,0.3c1,0.6,2.4,0.5,3.7,0.8v1.8c0.5-0.2,1.1-0.6,1.2-0.4c0.6,0.6,1.4,0.4,2.1,0.5c0.5,0,1,0.1,1.4,0.3
				c2.9,1.9,5.8,3.7,6.1,7.6c1.6,3.1,0.9,6.5,1,9.8c0,1.5,0,2.9,0,4.4c0,0.7-0.3,1.5,0.4,2.1c0.2,0.2,0.2,0.8,0.1,1
				c-0.9,1-0.5,2.1-0.5,3.1c-0.1,3.8,0,7.7,0,11.5c0,0.8-0.4,1.7,0.5,2.4c0.2,0.1,0.1,0.7,0,1c-0.2,0.9-0.6,1.7-0.5,2.6
				c0,0.8,0.5,1.7-0.4,2.4c0.8,1.2-0.9,2.7,0.4,4c0.2,0.2,0,1-0.1,1.4c-0.5,1.3-0.5,2.5,0,3.8c0.2,0.4,0.2,1,0.2,1.5
				c0,10.2,0,20.3,0,30.5c-0.8,3.5-0.4,7-0.5,10.5C848.6,336.1,848.2,337.2,847.9,338.4 M845.2,283.2c0.2,0,0.5,0,0.9-0.1
				c0.1-1.7-0.1-3.3-1.5-4.9c0.3,1.9,0.5,3.4,1.5,6.9c0-0.4,0.1-0.8,0-0.9c-0.4-0.4-0.8-0.7-1.3-1.1c-0.2,0.6-0.4,1.3-0.7,2
				C844.7,285.1,845.3,285.1,845.2,283.2 M793.4,333.5c-0.2-0.7-0.7-1.4-0.6-1.9c0.3-1.8-1.5-2.9-1.2-4.7c-0.8-0.5-0.8-1.3-1.1-2.1
				c-0.1-0.3-0.7-0.5-1.6-1c0.3,1.3,0.6,2,0.7,2.8c0.1,0.8,0,1.7,0.1,2.5c0.1,0.5,0.6,0.8,0.9,1.2c0.1,0.1,0.2,0.3,0.4,0.4
				c-1.2,1,0,1.9,0.2,2.7c0.4,1.5,0.7,3.2,2.3,4.1c1,0.1,2.1-0.3,3.1,0.4c1.1-1.2,2.1,0.2,3.2,0.1c1-0.1,2.1,0.2,3-0.4
				c0.1,0.3,0.1,0.6,0.3,1c2.1-0.3,4.3-0.6,6.5-0.9c0.2,1.4-1.3,0.3-1.6,1.3c0.3,0.3,0.6,0.7,0.9,1.1c0.8-0.5,1.5-1,2.3-1.5
				c-0.4-0.3-0.8-0.6-1.4-1c2.6-0.6,3.5-2.5,4.3-4.4c0.3-0.7,0.1-1.4,0.8-2c1.1-0.8-0.7-1.9,0.2-2.8c0.1-0.1,0-0.3,0-0.5
				c0-0.1-0.1-0.1-0.2-0.2c-1.4-1.6-1.7-2.5-1.1-4.2c0.3-0.9,0.1-1.7,0-2.6c-0.2-2-0.4-4-0.1-6c0.2-1.2,0.5-2.4,0.2-3.4
				c-0.4-1.2-0.6-2.1,0-3.2c0.3-0.6,0-1.5-0.2-2.2c-0.2-0.8,0.8-1.4,0.6-1.9c-1-2.5,0.5-5.2-0.8-7.6c0.9-0.8,0.8-2,0.2-2.7
				c-0.8-1.2,0.6-1.8,0.3-2.8c-0.2-0.4-0.2-0.9-0.3-1.4c-0.3-1.4-0.4-2.8,0.1-4.1c0.1-0.4,0.3-1,0.2-1.2c-0.9-0.6,0.2-1.1,0-1.7
				c-0.2-0.7-0.4-1.4-0.5-2.1c0-0.4,0.4-0.9,0.4-1.4c0.1-1,1.1-2.1-0.2-3.2c0.7-0.6,1.2-1,1.7-1.5c-1.9-0.7-1.4-2.3-1.5-3.7
				c0.6-0.1,1.1-0.2,1.4-0.3c-0.6-1.7-1.1-3.4-1.7-5c-0.6-0.2-1,0.4-1.7,0.1c-0.8-0.3-1.8-0.6-2.9-0.2c-0.7,0.3-1.6,0-2.7,0
				c0.6-0.8,1-1.3,1.4-1.8c-0.8-0.6-1.7-0.6-2.3-0.1c-0.9,0.7-1.5,0.4-2.1-0.3c-0.2-0.2-0.5-0.3-0.9-0.5c-0.2,0.4-0.3,0.7-0.4,1.2
				c-2.2-0.1-4.5,0-6.7,1c-0.5,0.2-0.8,0.2-0.9,0.8c-0.1,0.6-0.5,1.2-0.7,1.8c-0.1,0-0.3,0-0.5,0c-0.3,0.1-0.5,0.2-0.8,0.4
				c-0.1,0,0,0.4,0.1,0.4c0.3,0,0.6,0,0.9,0c0.2,0,0.3-0.1,0.6-0.3c-0.2,1.5-0.1,2.8-0.5,4.1c-0.4,1.2,0.2,2.7,0.4,4.1
				c0,0.3,0.1,0.8,0,1c-0.9,1.2-0.5,2.6-0.4,3.9c0,1.1-0.5,2.4,0.4,3.4c-0.8,1-0.4,2.2-0.4,3.3c0,5.2,0,10.4,0,15.6
				c0,0.9-0.3,1.7-0.4,2.7c0.3,0.3,0.7,0.7,0.9,1c-0.2,0.7-0.5,1.1-0.5,1.6c-0.1,0.8,0,1.5,0,2.3c-0.2,2.8,0.4,5.7-0.5,8.5
				c-0.2,0.7-0.3,1.6,0,2.3c1,2.1,0.3,4.3,0.4,6.5c0.1,1.6-0.3,1.7,0.3,2.5C794.6,332.2,794.2,332.8,793.4,333.5 M842.9,457
				c0.6,1.4,0.6,1.4,0.1,2.4c1.5,0.2,2.6-0.7,3.7-1.5c0.9-0.6,0.1-1.7,0.4-2.5h-3.3c0.3,0.5,0.5,0.9,0.7,1.3
				C844,456.8,843.6,456.9,842.9,457 M773.1,440.8c-0.5-0.5-0.7-0.8-0.9-0.9c-0.5-0.3-1.1-0.6-0.9-1.3c0.3-1.4-1.3-2.2-1.1-3.6
				c0-0.2-0.6-1.1-1.3-0.6c0,0.2-0.2,0.3-0.1,0.5c0.6,1.6,1.8,3,1.7,4.9c0,0.4,0.4,0.8,0.6,1.1H773.1z M766.2,437.9
				c0.6,0.2,0.2,1.6,1.4,0.8c0-0.7-0.1-1.5-0.1-2.6c-1,0.6-1.7,1.1-2.4,1.5c-0.3,1.4,0.4,2.3,1.9,3c-0.1-0.6,0-1.2-0.1-1.2
				C765.6,439.3,766.2,438.5,766.2,437.9 M816.6,316.9c-0.8,1.7-0.7,1.7,0.1,3.3c0.1,0.3,0,0.7,0.2,0.9c0.1,0.2,0.5,0.3,0.9,0.6
				C817.8,320.2,817.2,317.9,816.6,316.9 M846,386.4c-0.5,0.6-0.9,1.1-1.3,1.6c0.2,0.1,0.5,0.2,0.9,0.3v2.3
				C846.1,389.4,848.5,388.3,846,386.4 M790.6,233.7c-0.4,0.4-0.8,0.9-1.2,1.3c1.2,0.8,1.6,0.8,2.6-0.1c0.1-0.1,0.1-0.4,0.2-0.7
				C791.6,234,791,233.8,790.6,233.7 M818.7,268.2c-0.5,1.1-1.3-0.5-1.8,0.3v1.4c0.9-0.3,1.7,0.2,2.7-0.4
				C819.2,269,819,268.6,818.7,268.2 M820.3,273.1c-0.6-1.1-0.8-1.7-1.1-2.1h-1.5c0.2,0.6,0.3,1.3,0.6,1.6
				C818.7,272.8,819.3,272.8,820.3,273.1 M813.4,336.5c-0.3,0.7,0.8,1.2-0.1,1.8c-0.1,0,0.1,0.5,0.2,0.6c0.1,0.1,0.5,0,0.7-0.1
				c0.1-0.1,0.3-0.2,0.4-0.3c0.1-0.6,0.1-1.3,0.2-2H813.4z M784.8,432.9c-0.5-1.2,0.4-2.4-1.5-3.3
				C783.8,430.7,782.9,432,784.8,432.9 M822.2,282.6c-0.3-0.7-0.5-1.1-0.8-1.5c-0.1-0.2-0.4-0.3-0.6-0.5c-0.1,0.3-0.4,0.5-0.3,0.8
				C820.5,282.2,820.9,282.7,822.2,282.6 M820.4,273.3c-0.9,0.6-1,1.3-1,2.1c0.1,0.8,0.4,0.7,1,0.4V273.3z M763.2,450.6
				c-0.4-0.9-0.6-1.6-1.7-1.4v1.4H763.2z M761.3,447.5c0,0.2,0.1,0.4,0.1,0.5h1.6c-0.1-0.6-0.2-1-0.3-1.7
				C762.1,446.8,761.7,447.1,761.3,447.5 M788.1,428.1c0.2,1-0.4,2,1.1,2.6C789,429.7,789.6,428.7,788.1,428.1 M806.1,367.4
				c0.8-0.4,1.4-0.7,2-1c-0.5-0.3-0.8-0.6-1.3-0.8c-0.2-0.1-0.4,0-0.7,0.1V367.4z M819.1,276.4c-0.4-0.6-0.6-1.1-1-1.7
				c-0.3,0.6-0.6,1.1-0.9,1.7H819.1z M819.8,391.2c0.3-0.9,0.2-1.5-0.8-2v2H819.8z M770.8,431.4c-0.5-0.3-1-0.6-1.7-1
				c0.1,0.9,0.2,1.4,0.3,2.1C770,432.1,770.3,431.8,770.8,431.4 M820.9,451.2c-0.8-0.1-1.6-0.1-1.9,0.9h1.9V451.2z M819.3,277.1
				c0.4,0.6-0.4,1.6,1.3,1.4C820.2,277.9,821,276.9,819.3,277.1 M764,439.8c0.1,0.9,0.1,1.5,0.2,2.3
				C765.2,440.9,765.2,440.9,764,439.8 M784.9,427.1h-0.3v2h0.3V427.1z M819.2,433.2c-0.4-0.2-0.7-0.5-0.8-0.4
				c-0.2,0.1-0.4,0.4-0.5,0.6c0.2,0.1,0.4,0.4,0.5,0.4C818.6,433.7,818.8,433.5,819.2,433.2 M791.6,439.7c0.3-0.4,0.6-0.6,0.6-0.7
				c-0.1-0.2-0.3-0.5-0.5-0.6c0,0-0.5,0.2-0.5,0.4C791.2,439,791.4,439.3,791.6,439.7 M761.9,441.2c-0.2,0.4-0.4,0.7-0.4,0.9
				c0,0.1,0.4,0.4,0.5,0.4c0.2-0.2,0.4-0.4,0.5-0.6C762.5,441.7,762.2,441.5,761.9,441.2 M845.4,386.5c0.7-0.7,0.9-0.9,1.4-1.5
				c-0.7,0.1-1,0-1.1,0.1C845.6,385.4,845.6,385.7,845.4,386.5 M847.1,290.4h-1v0.3h1V290.4z"/>
			<path class="st5" d="M742.5,442.6v3.5c0.5,0,1.1-0.1,1.5,0c0.6,0.2,1.4,0.4,0.5,1.3c0.3,1.7-0.6,3.5,0.5,5.2
				c-0.2,1.3,0.4,2.7-0.4,3.9c-0.2,0.3-0.1,0.6-0.1,1c-0.2,1.9-0.2,1.9-2.3,1.9c-0.6-1.2-0.2-2.1,1.1-2.9c-1,0-1.5-0.5-2,0.6
				c-0.4,1-1.4,1.9-2.8,0.8c-0.3-0.3-1.2-0.1-1.9,0.3c-0.9,0.5-2,1.4-3.1,0.2c-1.4,0.2-2.8-0.4-4.2,0.4c-0.5,0.3-1.5,0.4-2.4,0.2
				c-0.9-0.3-2.2-0.5-3.1,0.3c-0.2,0.2-0.7,0.2-1,0.1c-1.5-1-3.1-0.2-4.8-0.5c-0.1-0.3-0.3-0.6-0.5-1c-1.4,0.4-2.7,1.3-4.2,1
				c-1.4-0.3-2.8-0.7-4.4-1.2c0.2-0.7,0.4-1.3,0.5-2c-2-2.1-2.9-5-0.9-6.4h-1.5c0-0.8-0.1-1.5-0.1-2.3c0-0.8,0-1.5,0-2.3
				c0-1,0-2,0-3.1c0-1.2,0-2.3,0.8-3.3c0.2-0.3,0.3-1.1,0.1-1.3c-1.3-1.6-0.2-3.2-0.1-4.7c0-0.5,0.3-1,0.1-1.4
				c-1.1-2.5,0.1-4.8,0.3-7.2c0-0.2,0.3-0.4,0.6-0.7c0.3,0.4,0.6,0.8,1.1,1.6c0.1-1.3,0.1-2,0.1-2.9c-0.7-0.6-1.5-1.2-2.2-1.8
				c0.7-1.5,1.2-2.8-0.1-4c-0.1-1.3-0.6-2.7-0.1-3.7c0.4-0.9,0.1-1.3-0.1-1.9c-0.1-0.3,0-0.6,0-1.2c0.5,0.3,0.9,0.4,1,0.6
				c0.3,0.4,0.5,0.8,0.8,1.4c1-1.4,1.3-2.9,1.3-4.3c0-1.2-1-1.9-2.6-2.3c0.7-1.4,0.2-2.7,0-4.2c0.3-0.1,0.5-0.2,0.7-0.2
				c0.8,0,1.3-0.3,1.4-1.1c0.1-0.8-0.3-1.2-1-1.5c-0.4-0.2-0.7-0.4-1-0.6c-0.3-1.2,0.2-2.3-0.3-3.5c0.3,0.2,0.5,0.4,0.8,0.6
				c0.2,0.2,0.5,0.5,0.6,0.5c0.8-0.3-0.3-0.6-0.1-0.8c0.8-0.6,0.1-1.1,0.1-1.6c0-0.5,0.3-1,0.5-1.7c-0.5,0.3-0.8,0.4-1,0.5
				c-0.5-1.5,0.2-3.1-0.5-4.7c-0.7-1.4,0.4-3.2-0.6-4.6c0.9-1.4,0.1-2.9,0.6-4.3c0.1-0.3,0.3-0.4,0.1-0.8c-0.4-0.8-0.3-1.7,0.1-2.6
				c0.3-1,0.1-2.2,0.2-3.2c0.1-1.2,0.8-2.5-0.5-3.5c0,0,0-0.2-0.1-0.2c-0.3-0.8,0.6-1.4,0.2-2.2c-0.6-1.1,0.7-1.1,0.8-1.9
				c-0.5-1.2-0.5-1.2,0.5-2.9c-0.7-0.9-1-1.9-1-3.2c0-1.3,0.4-2.7-0.3-4c-0.1-0.2,0.4-0.7,0.3-1c0-0.8-0.2-1.6-0.2-2.4
				c0-0.8,0.2-1.5,0.3-2.3c0-0.9,0-1.7,0-2.6s0.2-1.8,0-2.5c-0.9-2.7-0.2-5.5-0.5-8.2c1.4-1.4,1.4-1.4,2.4-0.8
				c0.3-0.9,0.2-1.6-0.4-2.5c-0.7-0.9-1.4-2.2-1.3-3.2c0.1-2.3-0.8-4.4-0.6-6.7c0.1-0.7-0.3-1.5,0.4-2.2c0.2-0.2-0.1-0.9-0.2-1.3
				c0-0.2-0.3-0.6-0.2-0.7c1-0.9,0.4-2.1,0.5-3.1c0-1,0.3-2-0.3-2.9c-0.2-0.3,0.3-1,0.3-1.5c-0.1-1.9,0.1-3.8-0.4-5.7
				c-0.3-1.2-0.4-2.7,0.3-4.2c0.4-0.8,0.1-2,0.1-3c0-0.6,0.1-4.3,0.2-4.9c0.6-3.6,0.4-7.2,0.1-10.8c-0.8-0.8,0.3-2-0.7-2.8
				c-0.1-0.1,0.2-0.9,0.4-1.2c0.5-0.8,0.5-1.7,0.5-2.6c0-0.8-0.1-1.4-0.7-2.1c-0.7-0.9-1.5-1.9-0.5-3.3c0.4-0.6,0-1.7,0.2-2.5
				c0.2-0.7-1.1-1.1-0.3-2c0.4-0.5,0.2-1.6,0.2-2.4c0-0.8-0.2-1.6,0-2.3c0.9-2.3,0.3-4.7,0.5-7c0-0.5,0.2-1.2-0.3-1.7
				c-0.1-0.1,0-0.6,0.1-0.8c0.1-0.4,0.3-0.8,0.3-1.2c0-0.6-0.5-1.4-0.3-1.7c0.5-0.7,0.4-1.3,0.3-1.9c-0.1-0.7,0.4-1.2,0.5-1.8
				c0.1-0.5-0.6-1.4-0.4-1.5c1.2-0.9-0.3-2.1,0.4-3c0.3-0.4,0.1-1.3,0.1-2c0.5,0,0.9-0.1,1.5-0.1c0.1-1-0.3-2.4,1.4-2.6
				c0.5-0.8,0.7,0.1,1.2,0.1c1.3-0.1,2.6,0.1,3.8,0c1.2-0.1,2.5,0.6,3.7-0.5c0.1-0.1,0.5,0.1,0.7,0.2c0.8,0.6,1.7,0.5,2.4,0.2
				c2.1-0.8,4.1-0.3,6.2-0.3c0.7,0.9,1.2-0.6,1.9-0.1c0.5,0.3,1.2,0.4,1.8,0.5c0.4,0.1,0.9-0.7,1.4,0c0.1,0.1,0.6,0.1,0.7,0
				c0.6-0.9,1.4,0.4,2.1-0.2c0.4-0.4,1.2-0.2,1.8-0.3c-0.1,0.6-0.2,1-0.3,1.4c0.4,0,0.7,0,1.3-0.1c0.7,0.5,1.8,1,0.8,2.4
				c0,0.1,0.2,0.4,0.3,0.5c1.4,0.6,1.4,1.9,1.6,3.1c0.1,0.7-0.2,1.5,0.5,2.1c0.2,0.2-0.1,0.9-0.4,1.3c-0.6,0.8-0.4,1.8-0.6,2.7
				c-0.1,1-0.5,2.2,0.4,3.2c0.2,0.2,0.5,1.2-0.6,1.3c-0.7,0.1-0.5,1-0.3,1.2c0.8,1,0.5,1.9,0.1,3c-0.3,0.7,0,1.6,0.1,2.4
				c0.1,0.5,0.2,0.9,0.4,1.5c0.4,0,0.8,0.1,1.1,0.1c0.3,0.7,0.7,1.3,0.7,2c0.1,2.6,0,5.1,0,7.7c-0.9,1.5-0.7,3.2-0.4,4.6
				c0.3,1.2,0.3,2.3,0.4,3.4c0,0.3,0,0.7-0.1,1c-0.6,1.9-0.6,1.9,0,4.6c0.1,0.5,0.1,1.2-0.2,1.7c-0.5,0.9-0.4,1.7-0.1,2.6
				c0.6,1.7,0.5,3.4-0.6,4.9c0.5,1.1,1.7,2.2,0.4,3.6c-0.1,1.7,0,3.3,0.7,4.8c0.2,0.4,0.4,0.9,0.2,1.1c-0.4,0.6-0.5,1.2-0.5,1.9
				c0,2.6,0,5.1,0,7.7c1.1,1.7,0.3,3.2-0.4,4.8c-0.1,0.2-0.2,0.6-0.1,0.7c0.8,0.8,0.4,1.8,0.5,2.6c0.2,1.8-0.3,3.6,0.5,5.4
				c0.3,0.7-0.1,1.6-0.2,2.4c0,0.2-0.2,0.4-0.2,0.7c-0.1,1.2,0.1,2.4-0.5,3.6c-0.4,0.9,0.7,1.9,0.4,2.5c-0.4,0.9-0.6,1.6,0,2.5
				c-0.7,1.4,0.9,3.1-0.4,4.5c-0.1,0.1,0,0.7,0.1,0.9c0.5,0.6,0.4,1.1,0,1.8c-0.2,0.4-0.2,1-0.2,1.4c0.1,0.9,0.4,1.7,0.5,2.6
				c0.1,0.8-0.2,1.7,0.5,2.3c-0.2,1.9,0.4,3.8-0.5,5.7c-0.8,1.8-0.8,1.9,0,4.7c0.4,1.2,0.4,2.2,0.4,3.2c-0.4,0.4-1,0.9-1,1
				c0.8,1.9,0.7,3.6,0,5.5c-0.5,1.2,0.3,2.4,0.7,3.5c0.2,0.6,0.5,1.2,0.2,1.6c-0.8,1.6-0.3,3.3-0.5,4.9c-0.2,1.4,0.4,2.8-0.4,4.2
				c-0.3,0.5,0.5,1.4,0.5,2.3c-0.1,1.8-0.1,3.6,0,5.4c0,1.2-0.3,2.5,0.5,3.6c0.1,0.2,0.1,0.5,0,0.8c-0.2,0.9-0.4,1.7-0.5,2.6
				c-0.1,0.8,0.3,1.9-0.1,2.5c-0.4,0.7-0.6,1.1,0.1,1.7c-0.2,1.8,0.3,3.7-0.3,5.5c-0.3,1-0.4,2.3,0,3.2c0.3,0.8,0.2,1.5,0.4,2.2
				c0.2,0.9-0.5,1.7-0.1,2.7c0.3,0.9,0.1,2,0.1,3c0,1,0,2.1,0,3.1c-0.1,1.2,0.2,2.4-0.5,3.7c-0.5,1,0.8,2.1,0.4,3.1
				c-0.4,1-0.7,2-0.4,2.9c0.4,1.1,0.4,1.9,0,3c-0.2,0.5,0.2,1.3,0.3,1.9c0.1,0.6,0.4,1.3,0.2,1.7c-0.8,1.4-0.6,2.6,0,4
				c0.1,0.1,0,0.3,0,0.5c0,0.1-0.1,0.3-0.2,0.4C743.8,443.8,743.9,441.8,742.5,442.6 M743.2,343.7c0.3-0.4,0.6-0.6,1-1
				c-1.3-0.2-1.2,0.3-0.3,0.8c-0.3,0.4-0.6,0.6-1,1C744.2,344.7,744.1,344.3,743.2,343.7 M735.7,293.5c0.7,0.5,1,1.5,2,1.4
				c0.4-0.8-0.1-1.8,0.7-2.4c0.1-0.1,0.1-0.7-0.1-0.9c-0.5-0.8-1.1-1.5-1.8-2.4C736.2,290.8,735.9,292.2,735.7,293.5 M742.3,291.1
				c-2.6,0.8-1.5,2.5-1.9,3.7c0.9,0.6,1.6,1.1,2.5,1.8v-2.4c-0.5-0.4-1.1-0.8-1.5-1.2C741.7,292.4,741.9,292,742.3,291.1
				 M742.3,448.5c-0.3,0.7-0.7,1.2-0.7,1.8c0,0.7,0.4,1.5,0.6,2.3c0.8,0.4,1.6,0,1.8-0.7C744.3,450.6,744.1,449.2,742.3,448.5
				 M741.7,290.9c-0.4-0.9-0.6-1.5-0.9-2c-0.1-0.2-0.2-0.4-0.2-0.5c0.1-1.5,0.1-1.5-1.7-1.5v2.3
				C739.8,289.5,740.1,290.8,741.7,290.9 M709.3,344.3c0.1,1,0.2,2,0.4,2.9c0,0.2,0.3,0.4,0.5,0.7c1.1-1.2,1.2-2.4,0.8-4.1
				C710.5,345.5,709.9,343.5,709.3,344.3 M741.1,348.6c-0.2,0.1-0.4,0.2-0.6,0.2c-0.3,1.3,0.4,2.4,0.8,3.8c0.6-0.5,0.9-0.8,1.3-1.2
				C742.1,350.4,741.6,349.5,741.1,348.6 M712.6,337.2c-0.9-0.2-1.4-0.3-1.9-0.4c-0.5-0.1-1-0.2-1.6-0.4c0.5,1.2,0.8,2.1,1.3,3.2
				C711,338.6,711,337.5,712.6,337.2 M710.1,357.3c-0.1-1,0.7-2.2-0.7-2.9C708.8,355.6,709.5,356.5,710.1,357.3 M737.3,337
				c-1.2,0.4-0.9,1.4-0.9,2.2c0,0.1,0.5,0.2,0.9,0.4V337z M736.5,296.5c-0.3-0.8-0.5-1.3-0.7-1.8c-0.1-0.2-0.4-0.3-0.6-0.2
				c-0.2,0-0.4,0.3-0.4,0.5C734.7,295.9,735.1,296.4,736.5,296.5 M744,338h-1.4v2.4C743.2,339.4,743.6,338.8,744,338 M743.7,454.7
				c-0.3-0.3-0.8-0.8-1.2-1.2c-0.2,0.3-0.4,0.6-0.7,1.2H743.7z M710.7,435.4c-0.8,0.6-1.1,0.9-1.6,1.2c0.6,0.3,1,0.6,1.3,0.8
				c0.1-0.3,0.3-0.4,0.3-0.5C710.7,436.6,710.7,436.3,710.7,435.4 M723,234.2c-0.9-0.1-0.9-0.1-2.1,0.8
				C721.6,235.6,721.6,235.6,723,234.2 M737.4,456.6c0.2-0.4,0.5-0.7,0.4-0.8c-0.1-0.2-0.4-0.4-0.6-0.5c-0.1,0.2-0.4,0.4-0.4,0.5
				C736.9,456,737.2,456.2,737.4,456.6"/>
			<path class="st5" d="M849.6,458.7c0.7-1,1.6-1,2.5-0.8v2.2C851.2,459.6,850.4,459.2,849.6,458.7"/>
			<path class="st5" d="M868,243.9c-0.3-0.6-0.5-1-0.8-1.6c0.3-0.2,0.8-0.5,1.7-1.1C868.5,242.4,868.3,243,868,243.9"/>
			<path class="st5" d="M1013.2,360.2c-0.1,0.1-0.1,0.2-0.2,0.3c-0.1-0.1-0.2-0.1-0.2-0.2c0-0.1,0.1-0.2,0.2-0.3
				C1013,360.1,1013.1,360.1,1013.2,360.2"/>
			<path class="st5" d="M978.9,336.9c-0.2-0.2-0.3-0.3-0.5-0.5C978.5,336.6,978.7,336.8,978.9,336.9"/>
			<path class="st5" d="M1522.4,350.8c-1.6-0.3-1.9-1.6-2-2.8c-0.1-1-0.5-2.2,0.4-3.1c0.2-0.2,0.2-0.8,0-1c-0.9-0.9-0.3-1.9-0.5-2.9
				c0.5,0.2,1,0.5,1.6,0.8c-0.2,1.4,0.3,2.8-0.5,4.3c-0.4,0.8-0.1,2-0.1,3.1h1V350.8z"/>
			<path class="st5" d="M1634.7,239v-1.2c-1.2-0.3-2.4-0.6-3.7-0.9c0.2-0.9,0.6-1.4,1.5-1.4c1.2,0,2.3,0,3.4,0
				c0.6,0.8-1.4,0.8-0.4,1.7C1635.7,237.4,1635.1,238.2,1634.7,239"/>
			<path class="st5" d="M1633.4,456.3c0.5,0.5,0.9,0.9,1.3,1.3c-1,0.2-2,0.4-3.2,0.7c0.3-0.4,0.4-0.6,0.6-0.8c-0.3-0.3-0.6-0.6-1-1
				C1631.9,456.1,1632.7,456.4,1633.4,456.3"/>
			<path class="st5" d="M1525.2,250.4c-0.4,0.6-0.7,1.1-1.2,1.9c-0.4-0.8-0.7-1.2-1-1.7c0.3-0.5,0.7-1.1,1.1-1.8
				C1524.5,249.4,1524.9,250,1525.2,250.4"/>
			<path class="st5" d="M1634.5,445.7c1.9-0.4,1.6,1.2,2.5,1.8c-0.6,0-1,0.2-1.4,0.1c-0.2,0-0.3-0.5-0.4-0.7
				C1635,446.5,1634.8,446.2,1634.5,445.7"/>
			<path class="st5" d="M1623.7,234h2.6C1625.4,235.3,1625.3,235.3,1623.7,234"/>
			<path class="st5" d="M1634.6,349.5c-0.4-0.5-0.7-0.7-0.9-1c-0.1-0.2-0.1-0.5,0-0.7c0-0.1,0.3-0.2,0.4-0.2
				c0.2,0.2,0.4,0.4,0.5,0.6C1634.8,348.5,1634.7,348.8,1634.6,349.5"/>
			<path class="st5" d="M1549.7,438.4c-1.6,0-0.9-0.9-0.9-1.5C1549,437.3,1549.3,437.7,1549.7,438.4"/>
			<path class="st5" d="M1634.6,238.7v1.9c-0.2-0.1-0.4-0.1-0.4-0.1C1634.2,239.4,1634.2,239.4,1634.6,238.7"/>
			<path class="st5" d="M1529.2,458c0.6-0.6,0.8-0.8,1-1c0.2-0.1,0.5-0.1,1.3-0.3c-0.6,0.6-0.8,0.8-1,1
				C1530.3,457.8,1530,457.8,1529.2,458"/>
			<path class="st5" d="M1618.6,234.7l-0.6-0.6C1618.8,234.1,1618.8,234.1,1618.6,234.7"/>
			<path class="st5" d="M1549.5,434.8c-0.2-0.1-0.4-0.2-0.4-0.3c0-0.2,0.1-0.4,0.2-0.7c0.1,0.1,0.3,0.1,0.3,0.2
				C1549.6,434.3,1549.5,434.5,1549.5,434.8"/>
			<path class="st5" d="M1556.1,259.6c0,0.3,0.1,0.7,0.1,1c-0.1,0-0.2,0-0.3,0c-0.1-0.3-0.1-0.7-0.2-1
				C1555.8,259.6,1556,259.6,1556.1,259.6"/>
			<path class="st5" d="M1555.3,259.6c0-0.3-0.1-0.7-0.1-1c0.1,0,0.2,0,0.3,0c0.1,0.3,0.1,0.7,0.2,1
				C1555.6,259.6,1555.5,259.6,1555.3,259.6"/>
			<path class="st5" d="M1521.1,246.4c0-0.1-0.1-0.3-0.2-0.4c0.1-0.1,0.3-0.2,0.4-0.2c0.2,0,0.3,0.2,0.4,0.3
				C1521.7,246.1,1521.5,246.2,1521.1,246.4"/>
			<path class="st5" d="M1550.5,449.6c-0.2-0.1-0.4-0.2-0.4-0.3c0-0.2,0.1-0.4,0.2-0.7c0.1,0.1,0.3,0.1,0.3,0.2
				C1550.6,449.1,1550.5,449.4,1550.5,449.6"/>
			<rect x="1633.3" y="449.7" class="st5" width="0.3" height="1"/>
			<path class="st5" d="M1547.3,235.4c0.4,0.2,0.5,0.2,0.7,0.3c-0.1,0.1-0.3,0.3-0.4,0.3c-0.1,0-0.4-0.1-0.4-0.2
				C1547.1,235.7,1547.2,235.5,1547.3,235.4"/>
			<path class="st5" d="M1526,456.9c-0.1,0.2-0.2,0.4-0.3,0.4c-0.2,0-0.4-0.1-0.7-0.2c0.1-0.1,0.1-0.3,0.2-0.3
				C1525.5,456.8,1525.7,456.9,1526,456.9"/>
			<path class="st5" d="M1522.7,348.8c0.1,0.1,0.2,0.1,0.2,0.2c-0.1,0.1-0.1,0.2-0.2,0.3l-0.2-0.2
				C1522.5,348.9,1522.6,348.8,1522.7,348.8"/>
			<path class="st5" d="M1522.9,351.1c-0.1,0.1-0.1,0.2-0.2,0.2c-0.1-0.1-0.2-0.1-0.3-0.2c0.1-0.1,0.2-0.2,0.2-0.2
				C1522.7,350.9,1522.8,351,1522.9,351.1"/>
			<path class="st5" d="M1582.9,441.7c-0.1,0.1-0.2,0.1-0.3,0.2c0,0-0.1-0.1-0.2-0.2c0.1-0.1,0.2-0.1,0.3-0.2
				C1582.8,441.5,1582.9,441.7,1582.9,441.7"/>
			<path class="st5" d="M1555.1,257.4c-0.1,0.1-0.1,0.1-0.2,0.2c-0.1-0.1-0.1-0.2-0.2-0.3c0,0,0.1-0.1,0.2-0.2
				C1555,257.1,1555.1,257.2,1555.1,257.4"/>
			<path class="st5" d="M1552.7,247.5c-0.1,0.1-0.2,0.1-0.3,0.2c0,0-0.1-0.1-0.2-0.2c0.1-0.1,0.2-0.1,0.3-0.2
				C1552.5,247.4,1552.6,247.5,1552.7,247.5"/>
			<path class="st5" d="M1604.2,245.2c0.1,0.1,0.1,0.2,0.2,0.3c0,0-0.1,0.1-0.2,0.2c-0.1-0.1-0.1-0.2-0.2-0.3
				C1604,245.4,1604.1,245.3,1604.2,245.2"/>
			<path class="st5" d="M1520.1,341c-0.1-0.1-0.2-0.2-0.2-0.3c0.1,0,0.3-0.1,0.3-0.1c0.1,0.1,0.1,0.3,0.2,0.4H1520.1z"/>
			<path class="st5" d="M1605.3,240.2c0.1,0.1,0.1,0.1,0.2,0.2c-0.1,0.1-0.2,0.1-0.3,0.2c0,0-0.1-0.1-0.2-0.2
				C1605.1,240.3,1605.2,240.2,1605.3,240.2"/>
			<path class="st5" d="M1551.4,451.2c-0.1-0.1-0.2-0.2-0.2-0.3c0.1,0,0.3-0.1,0.3-0.1c0.1,0.1,0.1,0.3,0.2,0.4H1551.4z"/>
			<path class="st5" d="M1520.9,238.9c0.1-0.1,0.1-0.2,0.2-0.3c0.1,0.1,0.2,0.1,0.2,0.2c0,0.1-0.1,0.2-0.2,0.3
				C1521.1,239,1521,239,1520.9,238.9"/>
			<path class="st5" d="M1549.8,235.5c0.1,0.1,0.1,0.2,0.2,0.3c0,0-0.1,0.1-0.2,0.2c-0.1-0.1-0.1-0.2-0.2-0.3
				C1549.7,235.6,1549.8,235.6,1549.8,235.5"/>
			<path class="st5" d="M1616.1,234.4c-0.1-0.1-0.2-0.1-0.3-0.2c0.1-0.1,0.1-0.2,0.2-0.2c0.1,0,0.2,0.1,0.3,0.2
				C1616.2,234.3,1616.1,234.3,1616.1,234.4"/>
			<path class="st5" d="M1521.6,356.8c-0.1-0.1-0.1-0.1-0.2-0.2c0.1-0.1,0.2-0.1,0.3-0.2c0,0,0.1,0.1,0.2,0.2
				C1521.8,356.7,1521.7,356.8,1521.6,356.8"/>
			<path class="st5" d="M1533,456.9c0.1,0.1,0.2,0.1,0.2,0.2c-0.1,0.1-0.1,0.2-0.2,0.3c-0.1-0.1-0.2-0.2-0.2-0.2
				C1532.8,457,1532.9,456.9,1533,456.9"/>
			<path class="st5" d="M1523.2,338.4c-0.1-0.1-0.2-0.1-0.3-0.2c0.1-0.1,0.1-0.2,0.2-0.2c0.1,0,0.2,0.1,0.3,0.2
				C1523.4,338.3,1523.3,338.3,1523.2,338.4"/>
			<path class="st5" d="M1532.7,457.6c-0.1,0.1-0.2,0.2-0.3,0.2c0-0.1-0.1-0.3-0.1-0.3c0.1-0.1,0.3-0.1,0.4-0.2V457.6z"/>
			<path class="st5" d="M1638.7,457.7c-0.1,0.1-0.1,0.1-0.2,0.2c-0.1-0.1-0.1-0.2-0.2-0.3c0,0,0.1-0.1,0.2-0.2
				C1638.6,457.4,1638.7,457.6,1638.7,457.7"/>
			<path class="st5" d="M1189.2,331.6c0.6,0.8,0.7,1.6,0.1,2.5c-0.5,0.7-0.9,1.5-1.4,2.3c-0.1-0.1-0.5-0.3-0.6-0.3
				c-0.3,0.2-0.4,0.6-0.6,0.9c-0.4-0.3-0.6,0.9-1.2,0.2c-0.1-0.1-0.6,0.3-1,0.3c-0.6,0.1-1.2,0-1.9,0c-0.1-0.5-0.2-1-0.3-1.7
				c-0.5,0.3-1,0.5-1.4,0.8c0.2,0.5,0.4,0.8,0.6,1.3h-2c-0.1-0.2-0.3-0.6-0.5-1c-1.3,0.6-2.6,1-4,0.2c-0.3-0.2-0.6-0.1-1-0.1
				c-0.7,0-1.3,0.2-2,0.2c-0.7,0-1.5-0.2-2-0.3c-0.7-0.7-1.4-1.4-2.1-2.1c0.3-0.2,0.7-0.5,1.2-0.8c1.2-0.7,1.6-1.4,1.1-2.6
				c-0.4-0.9-0.4-1.8-0.4-2.8c0-2.1,0.5-4.3-0.3-6.5c-0.3-0.9-0.4-2.1,0.2-3.2c0.2-0.4,0.2-1,0.2-1.4c0-2.1,0-4.3,0-6.4
				c0-0.9-0.4-1.9,0.5-2.6c0.1-0.1,0.1-0.5,0-0.7c-0.2-0.8-1.1-1.3-0.6-2.5c0.4-0.8,0.1-1.8,0.1-2.8c0-6.4,0-12.8,0-19.2
				c0-1.8-0.2-3.6,0.4-5.4c0.3-1,0.5-2.5-0.4-3.6c-0.2-0.3-0.2-1.1,0-1.5c0.9-2,0.3-4.1,0.5-6.4c1.5-0.6,3-1.7,4.8-1.6
				c1.4,0.1,2.7,0.1,4.1,0c1,0,2.1-0.2,3.1-0.3c-0.1,0.7-0.2,1.5-0.3,2.5c0.9-0.2,1.5-0.4,2.1-0.6c0.5-0.1,1.1-0.4,1.7-0.3
				c0.7,0.1,1.7-0.1,2,0.7c0.3,0.7,0.5,0.8,1,0.4c0.4-0.4,0.6-0.1,0.7,0.2c0.3,0.4,0.5,2.5,0.4,3c-0.3,1-1.1,1.9-0.1,2.9
				c0.2,0.2,0.1,0.8-0.1,1.2c-0.5,1-0.4,1.8,0,2.8c0.3,1-0.4,1.9-0.5,2.9c-0.1,0.5-0.3,1-0.2,1.4c0.5,2.1,0.5,2,0,4.5
				c-0.2,1-0.3,2.1,0,3c0.6,1.5,0.7,2.8,0,4.2c-0.1,0.3,0.4,0.9,0.4,1.3c0,3.3,0.1,6.7,0,10c0,0.8-0.5,1.6,0,2.4
				c0.1,0.1,0,0.3,0,0.5c-0.2,1.1-0.7,2.3-0.4,3.3c0.3,1.1,0.6,2.1,0.4,3.1c-0.5,1.8-0.5,3.6-0.4,5.4c0,0.9-0.3,1.8,0.5,2.6
				c0.3,0.3,0.2,1.1,0,1.5c-0.8,1.1-0.5,2.1,0,3.2c0.3,0.7,0.3,1.6,0.6,2.3C1190.7,330.7,1190.7,330.7,1189.2,331.6"/>
			<path class="st5" d="M1138.2,432c0,0.9,0,1.7,0.1,2.4c0.1,0.6,0.4,1.2,0.5,1.8c0.1,1-0.3,1.6-1.4,1.6c-0.3-1.3,0-2.5-0.6-3.7
				C1136.6,433.6,1137.1,432.6,1138.2,432"/>
			<path class="st5" d="M1222.3,455.8c0.7,2-1.2,2.2-2.1,3.1c-0.2-0.3-0.3-0.6-0.5-1c-0.1-0.2,0-0.4,0-0.5c1.3,0.4,1.2-1,1.9-1.4
				C1221.7,455.8,1222,455.8,1222.3,455.8"/>
			<path class="st5" d="M1167.4,329.8c-1.6-0.2-1.3-1.3-1.4-2.2c0-0.6,0-1,0.9-0.8C1167,327.7,1167.2,328.7,1167.4,329.8"/>
			<path class="st5" d="M1226.2,454.4c-1.4,1.1,0.2,3.1-1.8,4.2c0.2-0.9,0.5-1.6,0.6-2.3c0-0.6-0.3-1.2-0.5-1.9H1226.2z"/>
			<path class="st5" d="M1168.1,332.4c-0.5-0.1-0.8-0.1-1.2-0.2c0.3-0.7,0.5-1.3,1-2.3C1168,331,1168.1,331.7,1168.1,332.4"/>
			<path class="st5" d="M1224.9,369.6c-1.5,1.3-1.5,1.3-2,0.3C1223.4,369.8,1224,369.7,1224.9,369.6"/>
			<path class="st5" d="M1166.7,234.9h-1.4c0.5-0.3,0.7-0.5,1.1-0.8C1166.5,234.3,1166.6,234.7,1166.7,234.9"/>
			<rect x="1222.1" y="387.7" class="st5" width="0.3" height="1.5"/>
			<rect x="1165.6" y="324.6" class="st5" width="0.3" height="1"/>
			<rect x="1192.3" y="318.5" class="st5" width="0.3" height="1"/>
			<path class="st5" d="M1136.6,430.6c-0.1-0.1-0.2-0.1-0.3-0.2c0.1-0.1,0.1-0.2,0.2-0.2c0.1,0,0.2,0.1,0.3,0.2
				C1136.7,430.5,1136.7,430.6,1136.6,430.6"/>
			<path class="st5" d="M1145.6,431.5c0.1-0.1,0.1-0.2,0.2-0.3c0.1,0.1,0.2,0.1,0.2,0.2c0,0.1-0.1,0.2-0.2,0.3
				C1145.7,431.7,1145.7,431.6,1145.6,431.5"/>
			<path class="st5" d="M1194.7,269.1c-0.1,0.1-0.1,0.1-0.2,0.2c-0.1-0.1-0.1-0.2-0.2-0.3c0,0,0.1-0.1,0.2-0.2
				C1194.6,268.9,1194.6,269,1194.7,269.1"/>
			<path class="st5" d="M1193.5,268.8c0.1,0.1,0.1,0.2,0.2,0.3c0,0-0.1,0.1-0.2,0.2c-0.1-0.1-0.1-0.2-0.2-0.3
				C1193.3,268.9,1193.4,268.9,1193.5,268.8"/>
			<path class="st5" d="M1194.6,271.4c0.1,0.1,0.1,0.1,0.2,0.2c-0.1,0.1-0.2,0.1-0.3,0.2c0,0-0.1-0.1-0.2-0.2
				C1194.3,271.6,1194.5,271.5,1194.6,271.4"/>
			<path class="st5" d="M1168.6,332.6c-0.1,0.1-0.1,0.2-0.2,0.2c-0.1-0.1-0.2-0.1-0.3-0.2l0.2-0.2
				C1168.4,332.4,1168.5,332.5,1168.6,332.6"/>
			<path class="st5" d="M1138.2,447.2c0.1,0.1,0.1,0.1,0.2,0.2c-0.1,0.1-0.2,0.1-0.3,0.2c0,0-0.1-0.1-0.2-0.2
				C1137.9,447.3,1138.1,447.2,1138.2,447.2"/>
			<path class="st5" d="M1134.6,338.9c-0.1-0.1-0.2-0.1-0.3-0.2c0.1-0.1,0.1-0.2,0.2-0.2c0.1,0,0.2,0.1,0.3,0.2
				C1134.7,338.8,1134.6,338.9,1134.6,338.9"/>
			<path class="st5" d="M1227,457c-0.1,0.1-0.1,0.2-0.2,0.3c-0.1-0.1-0.2-0.1-0.2-0.2c0-0.1,0.1-0.2,0.2-0.3
				C1226.9,456.9,1226.9,456.9,1227,457"/>
			<path class="st5" d="M1182.7,366.1c0.1,0.1,0.1,0.2,0.2,0.3c0,0-0.1,0.1-0.2,0.2c-0.1-0.1-0.1-0.2-0.2-0.3
				C1182.5,366.3,1182.6,366.2,1182.7,366.1"/>
			<path class="st5" d="M1190,338.4c-0.1-0.1-0.2-0.1-0.3-0.2c0.1-0.1,0.1-0.2,0.2-0.2c0.1,0,0.2,0.1,0.3,0.2
				C1190.1,338.3,1190,338.3,1190,338.4"/>
			<path class="st5" d="M1375.8,378.8c0-1.7,0-3.4,0-5.1c0-1.7-0.1-3.3,0.5-4.9c0.8-2,0.6-4.1,0.5-6.2c-0.1-1.7,0.4-3.2,0.9-4.8
				c0-0.1,0.2-0.3,0.2-0.4c-0.1-2.9,0.8-5.8,0.5-8.8c-0.2-2.2-0.2-2.4,0.5-3.7c0.4-0.6,0.5-1.2,0.5-1.9c0-1.3,0-2.6,0-3.9
				c0.5-0.4,1-0.9,1.4-1.3c-0.2-0.7-0.2-1.4-0.5-1.8c-1.1-1.6-1.1-3.2-0.5-5.1c0.4-1.2,0.3-2.5,1.1-3.7c0.2-0.3-0.2-1-0.3-1.6
				c0.8-0.4,1.9,0.3,2.8-0.5c0.1-0.1,0.8,0.4,1.4,0.7c-0.5,0.2-0.8,0.3-1.1,0.4c-0.6,1,0,2,0.5,2.7c0.3,0.6,0.6,1.1,0.3,1.6
				c-0.9,1.3-0.3,2.5,0.3,3.7c0.5,1.2,1.5,2.2,0.4,3.6c-0.1,0.1,0.4,0.8,0.3,1c-0.2,0.3-0.7,0.3-1,0.6c-0.7,0.8-0.5,1.7-0.2,2.6
				c0.1,0.4,0.2,0.4,0,0.8c-0.3,0.5-0.3,1.1,0.2,1.6c1,0.9,0.9,2.2,1.2,3.3c0.3,1.2,0.7,2.4,0.2,3.6c-0.5,1.2-0.5,2.5-0.2,3.4
				c0.3,0.8,0.3,1.6,0.4,2.4c0,0.5,0.2,1.1-0.3,1.7c-0.2,0.2,0,0.9,0.1,1.3c0,0.3,0.3,0.7,0.1,0.8c-0.8,0.8-0.2,1.5,0.1,2.2
				c0.2,0.4,0.5,0.7,0.5,1.1c0,0.8,0.2,1.9-0.2,2.4c-0.7,1,0.2,1.5,0.4,1.9c0.5,0.8,0.2,1.7,0.4,2.4c0.7,2.4,0.4,4.8,0.5,7.2
				c0,0.6,0.3,1.3,0.7,1.8c1,1.3,1,2.6,0.3,4.1c-0.5,1.2-1.4,1.6-2.5,0.9c-0.1-0.1-0.1-0.4-0.2-0.8c-0.4,0-0.8,0-1.3,0
				c-2.1,0.1-4.1-0.1-6-0.9c-0.6-0.3-1.3,0-2-0.1c-1.6-0.1-2.3-1.3-1.9-2.9C1374.8,379.5,1374.7,378.9,1375.8,378.8"/>
			<path class="st5" d="M1422.9,447.7c-0.3-0.7-0.7-1.4-0.9-2.1c-0.1-0.3,0.4-0.7,0.6-1C1423.4,445.5,1423.4,445.5,1422.9,447.7"/>
			<path class="st5" d="M1416.7,456.7c1-1.5,2.4-0.7,3.6-1c-0.9,1.1-0.9,1.1-1.6,1.1C1418,456.8,1417.4,456.8,1416.7,456.7"/>
			<path class="st5" d="M1390.7,381v-3.6c0.4,0.9,0.6,1.2,0.9,1.7C1391.5,379.3,1391.2,379.9,1390.7,381"/>
			<path class="st5" d="M1414.9,444.4c-0.1-1.2,1-1.1,1.7-1.6C1416.7,444.2,1415.3,443.8,1414.9,444.4"/>
			<path class="st5" d="M1372.7,381.6v-1.6C1373.7,380.8,1373.7,380.8,1372.7,381.6"/>
			<path class="st5" d="M1408.6,457.1c-0.5,0.2-0.9,0.5-1.4,0.7C1407.2,456.8,1407.2,456.8,1408.6,457.1"/>
			<path class="st5" d="M1422.8,452.9l-1-1c0.3-0.2,0.6-0.4,1-0.7V452.9z"/>
			<rect x="1364.6" y="243.7" class="st5" width="0.3" height="1"/>
			<path class="st5" d="M1415.4,352.3c0-0.3-0.1-0.7-0.1-1l0.3,0c0.1,0.3,0.1,0.7,0.2,1C1415.6,352.3,1415.5,352.3,1415.4,352.3"/>
			<path class="st5" d="M1383.9,323.8c-0.1,0.1-0.1,0.2-0.2,0.3c-0.1-0.1-0.2-0.1-0.2-0.2c0-0.1,0.1-0.2,0.2-0.3
				C1383.8,323.7,1383.8,323.7,1383.9,323.8"/>
			<path class="st5" d="M1384.3,322.5c-0.1-0.1-0.2-0.1-0.3-0.2c0.1-0.1,0.1-0.2,0.2-0.2c0.1,0,0.2,0.1,0.3,0.2
				C1384.4,322.4,1384.4,322.5,1384.3,322.5"/>
			<path class="st5" d="M1367.9,436.4c0.1,0.1,0.1,0.1,0.2,0.2c-0.1,0.1-0.2,0.1-0.3,0.2c0,0-0.1-0.1-0.2-0.2
				C1367.7,436.5,1367.8,436.5,1367.9,436.4"/>
			<path class="st5" d="M1415.7,352.3c0.2,0.2,0.3,0.3,0.5,0.5C1416.1,352.7,1415.9,352.5,1415.7,352.3"/>
			<polygon class="st5" points="1374.2,381 1373.9,381.4 1373.7,381 			"/>
			<path class="st5" d="M1429,453.6c-0.1,0.1-0.1,0.1-0.2,0.2c-0.1-0.1-0.1-0.2-0.2-0.3c0,0,0.1-0.1,0.2-0.2
				C1428.9,453.3,1428.9,453.5,1429,453.6"/>
			<path class="st5" d="M1380.6,389.1c-0.1-0.1-0.1-0.1-0.2-0.2c0.1-0.1,0.2-0.1,0.3-0.2c0,0,0.1,0.1,0.2,0.2
				C1380.8,389,1380.7,389.1,1380.6,389.1"/>
			<path class="st5" d="M1427.3,456.3c-0.1-0.1-0.2-0.2-0.2-0.3c0.1,0,0.3-0.1,0.3-0.1c0.1,0.1,0.1,0.3,0.2,0.4H1427.3z"/>
			<path class="st5" d="M1346.9,358.5l0.2,0.2c-0.1,0.1-0.2,0.1-0.3,0.2c0,0-0.1-0.1-0.2-0.2
				C1346.6,358.7,1346.7,358.6,1346.9,358.5"/>
			<path class="st5" d="M1365.3,457.8c-0.1-0.1-0.2-0.1-0.3-0.2c0.1-0.1,0.1-0.2,0.2-0.2c0.1,0,0.2,0.1,0.3,0.2L1365.3,457.8z"/>
			<path class="st5" d="M1404.5,458l0.2-0.2c0.1,0.1,0.1,0.2,0.2,0.3c0,0-0.1,0.1-0.2,0.2C1404.7,458.3,1404.6,458.1,1404.5,458"/>
			<path class="st5" d="M1314.4,327.2c-0.2,1.1-0.4,2-0.7,3h-2.3C1312.3,329.3,1313.2,328.4,1314.4,327.2"/>
			<path class="st5" d="M1310.5,431.1c-1.5,0.1-3.1,0.5-4.6-0.7C1307.6,429.9,1309.1,430.3,1310.5,431.1"/>
			<path class="st5" d="M1316.3,429.6c-0.2,0.9-0.9,1.2-2.6,1.2C1314.5,430.5,1315.3,430.1,1316.3,429.6"/>
			<path class="st5" d="M1273.6,277.7c0.9-0.3,1.3-0.2,1,0.9C1274.2,278.3,1274,278,1273.6,277.7"/>
			<path class="st5" d="M1243.9,264.8v1.4c-0.1,0-0.2,0-0.3,0l-0.2-1.3C1243.6,264.8,1243.7,264.8,1243.9,264.8"/>
			<path class="st5" d="M1310.2,262.2h1.4c0,0.1,0,0.2,0,0.3c-0.5,0.1-0.9,0.1-1.4,0.2L1310.2,262.2z"/>
			<path class="st5" d="M1274.6,275.5c0,0.3,0.1,0.5,0.1,0.7c0,0.1-0.2,0.1-0.3,0.2c-0.1-0.2-0.1-0.4-0.2-0.7
				C1274.2,275.7,1274.4,275.6,1274.6,275.5"/>
			<path class="st5" d="M1272.6,320c-0.2-0.1-0.4-0.2-0.4-0.3c0-0.2,0.1-0.4,0.2-0.7c0.1,0.1,0.3,0.1,0.3,0.2
				C1272.7,319.5,1272.6,319.7,1272.6,320"/>
			<path class="st5" d="M1304.2,350.4c0-0.1-0.1-0.3-0.2-0.4c0.1-0.1,0.3-0.2,0.4-0.2c0.2,0,0.3,0.2,0.4,0.3
				C1304.8,350.1,1304.6,350.2,1304.2,350.4"/>
			<path class="st5" d="M1275.1,321c0,0.3,0.1,0.7,0.1,1c-0.1,0-0.2,0-0.3,0c-0.1-0.3-0.1-0.7-0.2-1
				C1274.8,321.1,1275,321.1,1275.1,321"/>
			<path class="st5" d="M1309.4,255.4c0.4,0.2,0.5,0.2,0.7,0.3c-0.1,0.1-0.3,0.3-0.4,0.3c-0.1,0-0.4-0.1-0.4-0.2
				C1309.2,255.6,1309.3,255.5,1309.4,255.4"/>
			<path class="st5" d="M1239.3,324.4c-0.1,0.1-0.1,0.2-0.2,0.2c-0.1-0.1-0.2-0.1-0.3-0.2c0.1-0.1,0.2-0.2,0.2-0.2
				C1239.2,324.2,1239.2,324.3,1239.3,324.4"/>
			<path class="st5" d="M1274.5,321.1c-0.1-0.1-0.2-0.2-0.2-0.3c0.1,0,0.3-0.1,0.3-0.1c0.1,0.1,0.1,0.3,0.2,0.4H1274.5z"/>
			<path class="st5" d="M1308.9,251.5c0.1,0.1,0.1,0.1,0.2,0.2c-0.1,0.1-0.2,0.1-0.3,0.2c0,0-0.1-0.1-0.2-0.2
				C1308.7,251.6,1308.8,251.5,1308.9,251.5"/>
			<path class="st5" d="M1243.6,275.9c-0.1-0.1-0.1-0.1-0.2-0.2c0.1-0.1,0.2-0.1,0.3-0.2c0,0,0.1,0.1,0.2,0.2
				C1243.9,275.8,1243.8,275.8,1243.6,275.9"/>
			<path class="st5" d="M1303.8,327.6c-0.1-0.1-0.2-0.1-0.3-0.2c0.1-0.1,0.1-0.2,0.2-0.2c0.1,0,0.2,0.1,0.3,0.2
				C1303.9,327.5,1303.9,327.6,1303.8,327.6"/>
			<path class="st5" d="M1306.8,440.9c0.1,0.1,0.1,0.2,0.2,0.3c0,0-0.1,0.1-0.2,0.2c-0.1-0.1-0.1-0.2-0.2-0.3
				C1306.6,441.1,1306.7,441,1306.8,440.9"/>
			<path class="st5" d="M1304.9,346.5c-0.1,0.1-0.1,0.1-0.2,0.2c-0.1-0.1-0.1-0.2-0.2-0.3c0,0,0.1-0.1,0.2-0.2
				C1304.8,346.3,1304.9,346.4,1304.9,346.5"/>
			<path class="st5" d="M1307.4,240c-0.1-0.1-0.2-0.1-0.3-0.2c0.1-0.1,0.1-0.2,0.2-0.2c0.1,0,0.2,0.1,0.3,0.2
				C1307.5,239.9,1307.4,240,1307.4,240"/>
			<path class="st5" d="M1316.3,326.9c-0.1,0.1-0.2,0.2-0.3,0.2c0-0.1-0.1-0.3-0.1-0.3c0.1-0.1,0.3-0.1,0.4-0.2V326.9z"/>
			<path class="st5" d="M1308.5,326.9c-0.1,0.1-0.1,0.2-0.2,0.3c-0.1-0.1-0.2-0.1-0.2-0.2c0-0.1,0.1-0.2,0.2-0.3
				C1308.4,326.8,1308.4,326.8,1308.5,326.9"/>
			<path class="st5" d="M1316.3,326.2c0.1,0.1,0.3,0.2,0.4,0.3l-0.4,0.2V326.2z"/>
			<path class="st5" d="M1316.1,355.8c-0.1-0.1-0.2-0.1-0.3-0.2c0.1-0.1,0.1-0.2,0.2-0.2c0.1,0,0.2,0.1,0.3,0.2L1316.1,355.8z"/>
			<path class="st5" d="M1316,326.2l-0.2-0.3c0.1,0,0.3-0.1,0.3-0.1c0.1,0.1,0.1,0.3,0.2,0.4H1316z"/>
			<path class="st5" d="M1306.7,458.3c-0.1-0.1-0.1-0.1-0.2-0.2c0.1-0.1,0.2-0.1,0.3-0.2c0,0,0.1,0.1,0.2,0.2
				C1306.9,458.2,1306.8,458.2,1306.7,458.3"/>
			<path class="st5" d="M1311,458.3c-0.1-0.1-0.2-0.1-0.3-0.2c0.1-0.1,0.1-0.2,0.2-0.2c0.1,0,0.2,0.1,0.3,0.2
				C1311.1,458.2,1311,458.2,1311,458.3"/>
			<path class="st5" d="M1297.6,459.4c0.1,0.1,0.2,0.1,0.2,0.2c-0.1,0.1-0.1,0.2-0.2,0.3l-0.2-0.2
				C1297.4,459.6,1297.5,459.5,1297.6,459.4"/>
			<path class="st5" d="M1448.6,324c0.2-0.5,0.4-0.9,0.6-1.4c0.5,0.3,1.1,0.8,1.6-0.2c0.3,0.5,0.6,0.9,1,1.5H1448.6z"/>
			<rect x="1446.6" y="261.6" class="st5" width="0.3" height="4.6"/>
			<path class="st5" d="M1445.7,418c-0.2-0.4-0.4-0.7-0.7-1.1C1445.7,416.8,1446.3,416.7,1445.7,418"/>
			<path class="st5" d="M1447.2,312.2c0.1,0.1,0.4,0.4,0.6,0.6C1447.1,312.8,1447.1,312.8,1447.2,312.2"/>
			<path class="st5" d="M1498.1,432.8c-0.3,0.3-0.5,0.5-0.8,0.7C1497.1,433,1497.2,432.6,1498.1,432.8"/>
			<rect x="1448.2" y="326.7" class="st5" width="0.3" height="1"/>
			<rect x="1492.1" y="441.6" class="st5" width="1" height="0.3"/>
			<rect x="1453.3" y="328.2" class="st5" width="0.3" height="1"/>
			<path class="st5" d="M1479.1,375.9c0.1,0.1,0.1,0.2,0.2,0.3c0,0-0.1,0.1-0.2,0.2c-0.1-0.1-0.1-0.2-0.2-0.3
				C1478.9,376,1479,375.9,1479.1,375.9"/>
			<path class="st5" d="M1480.4,254.1c0.1-0.1,0.1-0.1,0.2-0.2c0.1,0.1,0.1,0.2,0.2,0.3c0,0-0.1,0.1-0.2,0.2
				C1480.6,254.3,1480.5,254.2,1480.4,254.1"/>
			<path class="st5" d="M1492.3,453.2l-0.2-0.2c0.1-0.1,0.2-0.1,0.3-0.2c0,0,0.1,0.1,0.2,0.2C1492.6,453,1492.4,453.1,1492.3,453.2"
				/>
			<path class="st5" d="M1476.6,371.2c-0.1-0.1-0.2-0.1-0.3-0.2c0.1-0.1,0.1-0.2,0.2-0.2c0.1,0,0.2,0.1,0.3,0.2
				C1476.7,371.1,1476.7,371.1,1476.6,371.2"/>
			<path class="st5" d="M793.3,333.6c-0.1,0.1-0.2,0.2-0.3,0.2c0-0.1-0.1-0.3-0.1-0.3c0.1-0.1,0.3-0.1,0.4-0.2V333.6z"/>
			<path class="st5" d="M737.3,292c-0.1,0.1-0.1,0.2-0.2,0.3c-0.1-0.1-0.2-0.1-0.2-0.2c0-0.1,0.1-0.2,0.2-0.3
				C737.2,291.9,737.2,292,737.3,292"/>
		</g>
	</g>
</g>
</svg>
