<?xml version="1.0" encoding="utf-8"?>
<!-- Generator: Adobe Illustrator 25.0.1, SVG Export Plug-In . SVG Version: 6.00 Build 0)  -->
<svg version="1.1" id="logo_xA0_Imagen_1_" xmlns="http://www.w3.org/2000/svg" xmlns:xlink="http://www.w3.org/1999/xlink" x="0px"
	 y="0px" viewBox="0 0 120 120" style="enable-background:new 0 0 120 120;" xml:space="preserve">
<style type="text/css">
	.st0{fill:#FFFFFF;}
</style>
<g>
	<g>
		<path class="st0" d="M59,94.1c0,5.6,0,11.2,0,16.8c0,0.9-0.2,1.1-1.1,1.1c-22.6-0.7-41.7-17.4-44.6-39.6
			c-2.5-19.4,4.9-34.7,21-45.7c7.1-4.8,15-7,23.6-7.3c0.9,0,1.2,0.2,1.2,1.2c0,11.1,0,22.2,0,33.3c0,0.9-0.2,1.2-1.1,1.3
			c-5.3,0.5-9.5,5.1-9.5,10.4c-0.1,5.3,3.8,9.9,9.1,10.6c1.2,0.2,1.6,0.5,1.6,1.8C59,83.4,59,88.7,59,94.1z"/>
		<path class="st0" d="M61.7,83.4c0-5.5,0-11.1,0-16.6c0-0.8,0.2-1.1,1-1.2c5.4-0.5,9.6-5.1,9.6-10.4c0.1-5.4-4-10-9.4-10.7
			c-1-0.1-1.3-0.5-1.3-1.5c0-11,0-22,0-33.1c0-1.1,0.3-1.3,1.3-1.2c19.8,0.5,37.4,14.1,43.1,33.3c5.8,19.8-2.2,41-19.8,52.1
			c-7.1,4.5-14.8,6.8-23.1,7.2c-1.3,0.1-1.5-0.3-1.5-1.5C61.8,94.4,61.7,88.9,61.7,83.4C61.7,83.4,61.7,83.4,61.7,83.4z"/>
	</g>
</g>
</svg>
